<svg xmlns="http://www.w3.org/2000/svg" viewBox="0 0 49.68 67.79"><defs><style>.cls-1{fill:#cbd2ff;}.cls-2{fill:#211827;}.cls-3{fill:#bdbdbd;}.cls-4{fill:#8b8e8f;}.cls-5{fill:#2e2929;}.cls-6{fill:#1f1a1a;}.cls-7{fill:#745f5b;}.cls-8{fill:#644d48;}.cls-9{fill:#4a4240;}.cls-10{fill:#7db3d6;}.cls-11{fill:#a2d2ff;}.cls-12{fill:#7dff17;}.cls-13{fill:#948480;}</style></defs><title>anycast</title><g id="&#x421;&#x43B;&#x43E;&#x439;_2" data-name="&#x421;&#x43B;&#x43E;&#x439; 2"><g id="_1" data-name="1"><path class="cls-1" d="M39.62,52.58A3.6,3.6,0,0,0,38,49.76a1.07,1.07,0,0,0-1.28,0h0l-9,5.19,2.3,4,9.1-5.26a.35.35,0,0,0,.12-.07h0A1.18,1.18,0,0,0,39.62,52.58Z"></path><path class="cls-2" d="M30.44,57.89c0,1-.74,1.46-1.64.93A3.6,3.6,0,0,1,27.16,56c0-1,.73-1.45,1.64-.93A3.63,3.63,0,0,1,30.44,57.89Z"></path><path class="cls-3" d="M31.45,58.73a6.18,6.18,0,0,0-2.81-4.85,1.87,1.87,0,0,0-2.2-.05h0L21.5,56.66l3.93,6.88,5.1-2.95a1.13,1.13,0,0,0,.21-.12h0A2,2,0,0,0,31.45,58.73Z"></path><path class="cls-4" d="M26.23,61.75c0,1.78-1.26,2.5-2.81,1.6A6.16,6.16,0,0,1,20.6,58.5c0-1.78,1.26-2.5,2.82-1.6A6.21,6.21,0,0,1,26.23,61.75Z"></path><path class="cls-1" d="M24.49,61.32a3.64,3.64,0,0,0-1.64-2.83,1.07,1.07,0,0,0-1.29,0h0l-9,5.19,2.29,4L24,62.41l.12-.07h0A1.2,1.2,0,0,0,24.49,61.32Z"></path><path class="cls-4" d="M15.3,66.63c0,1-.73,1.45-1.64.93A3.63,3.63,0,0,1,12,64.73c0-1,.74-1.46,1.64-.93A3.6,3.6,0,0,1,15.3,66.63Z"></path><path class="cls-1" d="M24.39,56.13a3.62,3.62,0,0,0,3.27,0,1.07,1.07,0,0,0,.66-1.1h0l0-10.4-4.62,0V55.12a.33.33,0,0,0,0,.14h0A1.21,1.21,0,0,0,24.39,56.13Z"></path><path class="cls-2" d="M24.39,45.52c-.9-.52-.89-1.36,0-1.89a3.62,3.62,0,0,1,3.27,0c.9.52.9,1.36,0,1.89A3.62,3.62,0,0,1,24.39,45.52Z"></path><polygon class="cls-5" points="22.03 40.46 22.03 51.11 0 38.34 0 27.68 22.03 40.46"></polygon><polygon class="cls-6" points="49.68 24.5 22.03 40.46 0 27.68 27.65 11.72 49.68 24.5"></polygon><polygon class="cls-7" points="49.68 35.15 22.03 51.12 22.03 40.46 49.68 24.5 49.68 35.15"></polygon><polygon class="cls-8" points="48.61 34.28 23.1 49.01 23.1 41.03 48.61 26.3 48.61 34.28"></polygon><path class="cls-9" d="M24.29,42.88a.82.82,0,0,0,1.27.8,2.37,2.37,0,0,0,1.22-2,.82.82,0,0,0-1.27-.79A2.37,2.37,0,0,0,24.29,42.88Z"></path><path class="cls-9" d="M24.29,46.37a.82.82,0,0,0,1.27.8,2.37,2.37,0,0,0,1.22-2,.82.82,0,0,0-1.27-.79A2.37,2.37,0,0,0,24.29,46.37Z"></path><path class="cls-10" d="M25,42.8a.52.52,0,0,0,.8.51A1.5,1.5,0,0,0,26.53,42a.52.52,0,0,0-.8-.5A1.49,1.49,0,0,0,25,42.8Z"></path><path class="cls-11" d="M25,46.16a.52.52,0,0,0,.8.5,1.49,1.49,0,0,0,.78-1.26.52.52,0,0,0-.8-.51A1.5,1.5,0,0,0,25,46.16Z"></path><polygon class="cls-12" points="28.31 40.79 28.31 41.86 29.07 41.43 29.07 40.36 28.31 40.79"></polygon><polygon class="cls-12" points="29.88 39.88 29.88 40.95 30.64 40.52 30.64 39.45 29.88 39.88"></polygon><polygon class="cls-12" points="31.45 38.97 31.45 40.04 32.22 39.61 32.22 38.54 31.45 38.97"></polygon><polygon class="cls-12" points="33.03 38.06 33.03 39.13 33.79 38.69 33.79 37.63 33.03 38.06"></polygon><polygon class="cls-12" points="34.6 37.15 34.6 38.21 35.37 37.78 35.37 36.71 34.6 37.15"></polygon><polygon class="cls-12" points="36.18 36.23 36.18 37.3 36.94 36.87 36.94 35.8 36.18 36.23"></polygon><polygon class="cls-12" points="37.75 35.32 37.75 36.39 38.51 35.96 38.51 34.89 37.75 35.32"></polygon><polygon class="cls-12" points="39.32 34.41 39.32 35.48 40.09 35.04 40.09 33.98 39.32 34.41"></polygon><polygon class="cls-12" points="40.9 33.5 40.9 34.56 41.66 34.13 41.66 33.06 40.9 33.5"></polygon><polygon class="cls-12" points="28.31 42.87 28.31 43.94 29.07 43.51 29.07 42.44 28.31 42.87"></polygon><polygon class="cls-12" points="29.88 41.96 29.88 43.03 30.64 42.6 30.64 41.53 29.88 41.96"></polygon><polygon class="cls-12" points="31.45 41.05 31.45 42.12 32.22 41.69 32.22 40.62 31.45 41.05"></polygon><polygon class="cls-12" points="33.03 40.14 33.03 41.2 33.79 40.77 33.79 39.7 33.03 40.14"></polygon><polygon class="cls-12" points="34.6 39.23 34.6 40.29 35.37 39.86 35.37 38.79 34.6 39.23"></polygon><polygon class="cls-12" points="36.18 38.31 36.18 39.38 36.94 38.95 36.94 37.88 36.18 38.31"></polygon><polygon class="cls-12" points="37.75 37.4 37.75 38.47 38.51 38.04 38.51 36.97 37.75 37.4"></polygon><polygon class="cls-12" points="39.32 36.49 39.32 37.56 40.09 37.12 40.09 36.06 39.32 36.49"></polygon><polygon class="cls-12" points="40.9 35.58 40.9 36.64 41.66 36.21 41.66 35.14 40.9 35.58"></polygon><polygon class="cls-12" points="47.51 32.99 43.1 35.53 43.1 32.06 47.51 29.51 47.51 32.99"></polygon><polygon class="cls-5" points="22.03 28.74 22.03 39.39 0 26.62 0 15.97 22.03 28.74"></polygon><polygon class="cls-13" points="49.68 12.78 22.03 28.74 0 15.97 27.65 0 49.68 12.78"></polygon><polygon class="cls-8" points="48.28 12.78 22.03 27.82 0 15.97 27.65 0 48.28 12.78"></polygon><polygon class="cls-7" points="49.68 23.43 22.03 39.4 22.03 28.74 49.68 12.78 49.68 23.43"></polygon><polygon class="cls-8" points="48.61 22.56 23.1 37.29 23.1 29.32 48.61 14.59 48.61 22.56"></polygon><path class="cls-9" d="M24.29,31.17a.82.82,0,0,0,1.27.79,2.37,2.37,0,0,0,1.22-2,.82.82,0,0,0-1.27-.79A2.37,2.37,0,0,0,24.29,31.17Z"></path><path class="cls-9" d="M24.29,34.66a.82.82,0,0,0,1.27.79,2.37,2.37,0,0,0,1.22-2,.82.82,0,0,0-1.27-.79A2.37,2.37,0,0,0,24.29,34.66Z"></path><path class="cls-10" d="M25,31.09a.52.52,0,0,0,.8.5,1.49,1.49,0,0,0,.78-1.26.52.52,0,0,0-.8-.51A1.5,1.5,0,0,0,25,31.09Z"></path><path class="cls-11" d="M25,34.44a.52.52,0,0,0,.8.5,1.48,1.48,0,0,0,.78-1.26.52.52,0,0,0-.8-.51A1.5,1.5,0,0,0,25,34.44Z"></path><polygon class="cls-12" points="28.31 29.08 28.31 30.14 29.07 29.71 29.07 28.64 28.31 29.08"></polygon><polygon class="cls-12" points="29.88 28.16 29.88 29.23 30.64 28.8 30.64 27.73 29.88 28.16"></polygon><polygon class="cls-12" points="31.45 27.25 31.45 28.32 32.22 27.89 32.22 26.82 31.45 27.25"></polygon><polygon class="cls-12" points="33.03 26.34 33.03 27.41 33.79 26.98 33.79 25.91 33.03 26.34"></polygon><polygon class="cls-12" points="34.6 25.43 34.6 26.5 35.37 26.06 35.37 25 34.6 25.43"></polygon><polygon class="cls-12" points="36.18 24.52 36.18 25.58 36.94 25.15 36.94 24.08 36.18 24.52"></polygon><polygon class="cls-12" points="37.75 23.6 37.75 24.67 38.51 24.24 38.51 23.17 37.75 23.6"></polygon><polygon class="cls-12" points="39.32 22.69 39.32 23.76 40.09 23.33 40.09 22.26 39.32 22.69"></polygon><polygon class="cls-12" points="40.9 21.78 40.9 22.85 41.66 22.41 41.66 21.35 40.9 21.78"></polygon><polygon class="cls-12" points="28.31 31.16 28.31 32.22 29.07 31.79 29.07 30.72 28.31 31.16"></polygon><polygon class="cls-12" points="29.88 30.24 29.88 31.31 30.64 30.88 30.64 29.81 29.88 30.24"></polygon><polygon class="cls-12" points="31.45 29.33 31.45 30.4 32.22 29.97 32.22 28.9 31.45 29.33"></polygon><polygon class="cls-12" points="33.03 28.42 33.03 29.49 33.79 29.06 33.79 27.99 33.03 28.42"></polygon><polygon class="cls-12" points="34.6 27.51 34.6 28.57 35.37 28.14 35.37 27.07 34.6 27.51"></polygon><polygon class="cls-12" points="36.18 26.59 36.18 27.66 36.94 27.23 36.94 26.16 36.18 26.59"></polygon><polygon class="cls-12" points="37.75 25.68 37.75 26.75 38.51 26.32 38.51 25.25 37.75 25.68"></polygon><polygon class="cls-12" points="39.32 24.77 39.32 25.84 40.09 25.41 40.09 24.34 39.32 24.77"></polygon><polygon class="cls-12" points="40.9 23.86 40.9 24.93 41.66 24.5 41.66 23.43 40.9 23.86"></polygon><polygon class="cls-12" points="47.51 21.27 43.1 23.81 43.1 20.34 47.51 17.8 47.51 21.27"></polygon><polygon class="cls-6" points="16.67 8.55 22.74 12.05 23.3 11.72 17.24 8.22 16.67 8.55"></polygon><polygon class="cls-6" points="19.05 7.17 25.12 10.67 25.68 10.35 19.62 6.84 19.05 7.17"></polygon><polygon class="cls-6" points="21.43 5.8 27.5 9.3 28.07 8.97 22 5.47 21.43 5.8"></polygon><polygon class="cls-6" points="23.82 4.42 29.88 7.92 30.45 7.6 24.38 4.09 23.82 4.42"></polygon><polygon class="cls-6" points="26.2 3.05 32.26 6.55 32.83 6.22 26.76 2.72 26.2 3.05"></polygon><polygon class="cls-6" points="4.43 15.6 10.49 19.1 11.06 18.77 4.99 15.27 4.43 15.6"></polygon><polygon class="cls-6" points="6.81 14.22 12.88 17.72 13.44 17.4 7.38 13.9 6.81 14.22"></polygon><polygon class="cls-6" points="9.19 12.85 15.26 16.35 15.82 16.02 9.76 12.52 9.19 12.85"></polygon><polygon class="cls-6" points="11.57 11.47 17.64 14.97 18.2 14.65 12.14 11.14 11.57 11.47"></polygon><polygon class="cls-6" points="13.96 10.1 20.02 13.6 20.59 13.27 14.52 9.77 13.96 10.1"></polygon></g></g></svg>