<svg xmlns="http://www.w3.org/2000/svg" viewBox="0 0 400 136.7"><defs><style>.cls-1{fill:#37474f;}</style></defs><title>blue-logo</title><g id="&#x421;&#x43B;&#x43E;&#x439;_2" data-name="&#x421;&#x43B;&#x43E;&#x439; 2"><g id="ah-logo"><path id="var1" class="cls-1" d="M262.19,77.3,254,52.52h6.51l5.29,20,5.43-20h6.19L269.36,77.3Zm-9.3,36.78c0,7.82-4.36,13.11-11.67,13.11s-11.66-5-11.66-13.11c0-7.78,4.36-13.07,11.71-13.07S252.89,106,252.89,114.08Zm-6.33,0c0-5.9-1.82-8.53-5.29-8.53s-5.39,2.67-5.39,8.53,1.83,8.57,5.34,8.57S246.56,120,246.56,114.08ZM228.33,64.94c0-7.64,3.79-13.12,10.07-13.12a8.38,8.38,0,0,1,6.13,2.67V41.94l6,.65V77.3h-5.29l-.42-3.14A8.23,8.23,0,0,1,237.74,78C231.56,78,228.33,72.8,228.33,64.94Zm6.32,0c0,6.37,1.83,8.57,4.78,8.57,2.2,0,3.7-1.08,5.1-3.19V58.94c-1.31-1.64-2.71-2.62-4.68-2.62C236.71,56.32,234.65,58.94,234.65,64.89Zm-17.84-20,10,32.37h-6.56l-2-7.49H207.54l-2,7.49h-6.42l10.07-32.37Zm.24,20.19-4.17-15.45-4.12,15.45Zm-48.39-1.69v61.89a1.17,1.17,0,0,1-1.18,1.17H148.75a1.17,1.17,0,0,1-1.18-1.17V65.77c0-11.13-7.47-14.06-14-14.06A20.24,20.24,0,0,0,120.43,57a16.27,16.27,0,0,0-5.65,12.39v33.7c0,21.18-16.3,25.76-30.45,25.76-10.74,0-21.18-4.78-26.32-12.69-2.77,3.22-12.4,12.69-29.9,12.69C13.66,128.83,0,119.26,0,103.07S11.61,72.62,37.48,72.62c7,0,16.4,2.34,16.4,2.34V65.59c0-11.64-4.83-16.4-16.4-16.4C28.25,49.19,15,53.35,10.54,55A1.17,1.17,0,0,1,9,54.13L7.06,45.68a1.16,1.16,0,0,1,.63-1.31c5.66-2.66,22.08-9.23,33.3-9.23,23.78,0,34,9.66,34,35.13v38.65a9.38,9.38,0,0,0,10,9.36c4.85-.3,8.79-4.86,8.79-9.72V5.34a1.18,1.18,0,0,1,.91-1.15L113.35,0a1.17,1.17,0,0,1,1.43,1.14v48.2s9.47-14,25.77-14C156.4,35.32,168.66,46.56,168.66,63.43ZM53.88,88.34a2.35,2.35,0,0,0-1.65-2.23,35.25,35.25,0,0,0-10.07-1.78c-13.95,0-21.08,7.22-21.08,16.4s5.47,14,14.06,14c11.11,0,16.75-6.56,18.29-8.7a2.37,2.37,0,0,0,.45-1.38ZM219.16,107.1H207.63v-13h-6.18v32.37h6.18V112h11.53v14.47h6.23V94.12h-6.23ZM323.75,101a9.29,9.29,0,0,0-7.54,4l-.47-3.28h-5.2v24.78h6V109.25c1.45-2.29,3-3.74,5.2-3.74,1.87,0,3,.89,3,4v17h6V108.55C330.78,103.82,328.2,101,323.75,101Zm34.89,2a22.05,22.05,0,0,1-7.16.85c3,1.36,4.49,3.28,4.49,6.37,0,4.82-3.75,8.34-10,8.34a10.07,10.07,0,0,1-2.95-.38,2.25,2.25,0,0,0-1,1.83c0,.89.52,1.73,3,1.73h3.8c5.48,0,9,2.95,9,7,0,5-4.27,7.91-12.37,7.91-8.81,0-11.29-2.81-11.29-7.77h5.39c0,2.48,1.08,3.56,6,3.56s6.23-1.31,6.23-3.28-1.45-3-4.21-3h-3.75c-5,0-7.07-2.2-7.07-4.78a5.6,5.6,0,0,1,2.9-4.59,7.22,7.22,0,0,1-4.35-7c0-5.39,4.26-8.9,10.25-8.9a20.08,20.08,0,0,0,11.57-2.76Zm-8.48,6.75c0-3.14-1.49-4.68-4.49-4.68-2.72,0-4.31,1.87-4.31,4.73s1.64,4.87,4.4,4.87S350.16,112.91,350.16,109.77ZM311.69,60.06c1.45-2.29,3-3.74,5.2-3.74,1.87,0,3,.89,3,4v17h6V59.36c0-4.73-2.58-7.54-7-7.54a9.29,9.29,0,0,0-7.54,4l-.47-3.28h-5.2V77.3h6ZM267.47,111.5c-4.22-1.17-5.2-1.92-5.2-3.56s1.36-2.48,3.74-2.48a11.34,11.34,0,0,1,6.24,2l2.34-3.51a13.93,13.93,0,0,0-8.81-2.95c-5.76,0-9.55,3.09-9.55,7.21,0,3.66,2.24,6.09,7.35,7.5,4.64,1.31,5.62,2,5.62,4,0,1.87-1.73,3-4.4,3a11.22,11.22,0,0,1-6.75-2.44l-3,3.37a14.53,14.53,0,0,0,9.89,3.51c5.67,0,10.44-2.71,10.44-7.86C275.38,114.92,272.53,112.86,267.47,111.5ZM374,64.33c0,.79-.09,1.78-.14,2.43H358.31c.47,5.06,2.81,6.7,6.09,6.7a10.27,10.27,0,0,0,6.18-2.2l2.48,3.42A14.21,14.21,0,0,1,363.88,78c-7.68,0-11.8-5.1-11.8-12.92,0-7.55,4-13.26,11-13.26S374,56.5,374,64.33Zm-5.95-1.74c0-4.07-1.45-6.51-4.82-6.51-2.81,0-4.59,1.88-4.92,6.79h9.74Zm31.95-20V77.3h-5.29l-.43-3.14A8.2,8.2,0,0,1,387.21,78c-6.18,0-9.41-5.2-9.41-13.06,0-7.64,3.79-13.12,10.07-13.12A8.38,8.38,0,0,1,394,54.49V41.94Zm-6,16.35c-1.31-1.64-2.71-2.62-4.68-2.62-3.14,0-5.2,2.62-5.2,8.57,0,6.37,1.83,8.57,4.78,8.57,2.2,0,3.7-1.08,5.1-3.19ZM350.38,75.15l-2.67-3.8a8.59,8.59,0,0,1-5,1.78c-3.37,0-5.57-2.11-5.57-8.1s2.11-8.48,5.57-8.48a7.89,7.89,0,0,1,5,1.78l2.67-3.61a11.54,11.54,0,0,0-8.05-2.9c-7.12,0-11.57,5.39-11.57,13.3S335.21,78,342.37,78A12.22,12.22,0,0,0,350.38,75.15Zm-60.49,47.22c-1.83,0-2.62-1-2.62-3.42V106h5.15l.61-4.31h-5.76V95.53l-6,.7v5.48h-3.89V106h3.89v13.07c0,5.29,2.58,8.06,7.45,8.1a10.8,10.8,0,0,0,6.23-1.87l-2.11-3.89A5.53,5.53,0,0,1,289.89,122.37Zm10-44.46c-2.72-.23-4.5-1.17-5.48-3.61A8.43,8.43,0,0,1,287,78c-5,0-8-3.13-8-7.63,0-5.39,4.07-8.29,11.28-8.29h3.1V60.67c0-3.23-1.46-4.31-4.64-4.31a22.18,22.18,0,0,0-6.56,1.31l-1.4-4.07a25.55,25.55,0,0,1,9-1.78c6.6,0,9.51,3,9.51,8.52v10.4c0,2,.65,2.72,1.87,3.19Zm-6.51-12.32h-2.49c-3.88,0-5.8,1.41-5.8,4.31,0,2.39,1.21,3.75,3.51,3.75a5.3,5.3,0,0,0,4.78-3.05Zm7.83,23.57a3.63,3.63,0,1,0,3.8,3.65A3.6,3.6,0,0,0,301.18,89.16Zm-2.95,37.33h6V101.71h-6Z"></path></g></g></svg>