<svg xmlns="http://www.w3.org/2000/svg" viewBox="0 0 53.75 86.29"><defs><style>.cls-1{fill:#4a4240;}.cls-2{fill:#7d7675;}.cls-3{fill:#1f1a1a;}.cls-4{fill:#615a59;}.cls-5{fill:#2e2929;}.cls-6{fill:#745f5b;}.cls-7{fill:#644d48;}.cls-8{fill:#4f883d;}.cls-9{fill:#31541a;}.cls-10{fill:#315c1c;}.cls-11{fill:#3b6820;}.cls-12{fill:#705b57;}.cls-13{fill:#060000;}.cls-14{fill:#7db3d6;}.cls-15{fill:#a2d2ff;}.cls-16{fill:#7dff17;}</style></defs><title>cdn</title><g id="&#x421;&#x43B;&#x43E;&#x439;_2" data-name="&#x421;&#x43B;&#x43E;&#x439; 2"><g id="_1" data-name="1"><polygon class="cls-1" points="20.84 10.9 39.71 0 53.75 8.11 34.88 19 20.84 10.9"></polygon><polygon class="cls-2" points="34.88 19 53.75 8.11 53.75 62.76 34.88 73.66 34.88 19"></polygon><polygon class="cls-3" points="52.35 10.54 52.35 56.5 36.28 65.78 36.28 19.81 50.33 11.7 52.35 10.54"></polygon><polygon class="cls-4" points="52.35 56.5 46.76 54.07 36.28 61.88 36.28 65.78 52.35 56.5"></polygon><polygon class="cls-3" points="34.88 19 20.84 10.9 20.84 65.55 34.88 73.66 34.88 19"></polygon><polygon class="cls-5" points="37.69 58.52 37.69 64.17 36.28 63.35 36.28 57.71 37.69 58.52"></polygon><polygon class="cls-6" points="52.34 55.71 37.69 64.17 37.69 58.52 52.34 50.06 52.34 55.71"></polygon><polygon class="cls-1" points="52.35 50.06 37.69 58.52 36.28 57.71 36.28 57.01 50.33 48.9 52.35 50.06"></polygon><polygon class="cls-5" points="37.69 52.33 37.69 57.97 36.28 57.16 36.28 51.51 37.69 52.33"></polygon><polygon class="cls-6" points="52.34 49.51 37.69 57.97 37.69 52.32 52.34 43.86 52.34 49.51"></polygon><polygon class="cls-1" points="52.35 43.86 37.69 52.33 36.28 51.51 36.28 50.81 50.33 42.7 52.35 43.86"></polygon><polygon class="cls-5" points="37.69 46.13 37.69 51.77 36.28 50.96 36.28 45.31 37.69 46.13"></polygon><polygon class="cls-6" points="52.34 43.31 37.69 51.77 37.69 46.13 52.34 37.66 52.34 43.31"></polygon><polygon class="cls-1" points="52.35 37.66 37.69 46.13 36.28 45.31 36.28 44.61 50.33 36.5 52.35 37.66"></polygon><polygon class="cls-5" points="37.69 39.93 37.69 45.57 36.28 44.76 36.28 39.11 37.69 39.93"></polygon><polygon class="cls-6" points="52.34 37.11 37.69 45.58 37.69 39.93 52.34 31.46 52.34 37.11"></polygon><polygon class="cls-1" points="52.35 31.47 37.69 39.93 36.28 39.11 36.28 38.41 50.33 30.3 52.35 31.47"></polygon><polygon class="cls-5" points="37.69 33.73 37.69 39.37 36.28 38.56 36.28 32.91 37.69 33.73"></polygon><polygon class="cls-6" points="52.34 30.91 37.69 39.38 37.69 33.73 52.34 25.26 52.34 30.91"></polygon><polygon class="cls-1" points="52.35 25.27 37.69 33.73 36.28 32.91 36.28 32.21 50.33 24.1 52.35 25.27"></polygon><polygon class="cls-5" points="37.69 27.53 37.69 33.17 36.28 32.36 36.28 26.71 37.69 27.53"></polygon><polygon class="cls-6" points="52.34 24.71 37.69 33.18 37.69 27.53 52.34 19.07 52.34 24.71"></polygon><polygon class="cls-1" points="52.35 19.07 37.69 27.53 36.28 26.71 36.28 26.01 50.33 17.9 52.35 19.07"></polygon><polygon class="cls-5" points="37.69 21.33 37.69 26.98 36.28 26.16 36.28 20.52 37.69 21.33"></polygon><polygon class="cls-6" points="52.34 18.52 37.69 26.98 37.69 21.33 52.34 12.87 52.34 18.52"></polygon><polygon class="cls-1" points="52.35 12.87 37.69 21.33 36.28 20.52 36.28 19.81 50.33 11.7 52.35 12.87"></polygon><polygon class="cls-7" points="51.78 18.05 38.25 25.86 38.25 21.64 51.78 13.82 51.78 18.05"></polygon><polygon class="cls-8" points="22.73 14.95 22.73 45.22 33.32 51.33 33.32 21.05 24.07 15.71 22.73 14.95"></polygon><polygon class="cls-9" points="22.73 45.22 22.73 14.95 21.62 14.3 21.62 45.82 33.32 52.58 33.32 51.33 22.73 45.22"></polygon><polygon class="cls-10" points="25.7 46.93 33.32 51.33 33.32 21.05 25.7 16.66 25.7 46.93"></polygon><polygon class="cls-11" points="22.73 45.22 21.62 45.82 33.32 52.58 33.32 51.33 22.73 45.22"></polygon><polygon class="cls-12" points="38.39 67.13 38.39 68.11 39.09 67.72 39.09 66.73 38.39 67.13"></polygon><polygon class="cls-12" points="40.32 66.01 40.32 66.99 41.02 66.6 41.02 65.61 40.32 66.01"></polygon><polygon class="cls-12" points="42.25 64.89 42.25 65.87 42.95 65.48 42.95 64.49 42.25 64.89"></polygon><polygon class="cls-12" points="44.18 63.77 44.18 64.75 44.88 64.36 44.88 63.38 44.18 63.77"></polygon><polygon class="cls-12" points="46.11 62.65 46.11 63.64 46.81 63.24 46.81 62.26 46.11 62.65"></polygon><polygon class="cls-12" points="48.04 61.53 48.04 62.52 48.75 62.12 48.75 61.14 48.04 61.53"></polygon><polygon class="cls-12" points="49.98 60.41 49.98 61.4 50.68 61 50.68 60.02 49.98 60.41"></polygon><polygon class="cls-12" points="38.39 68.62 38.39 69.61 39.09 69.21 39.09 68.22 38.39 68.62"></polygon><polygon class="cls-12" points="40.32 67.5 40.32 68.49 41.02 68.09 41.02 67.11 40.32 67.5"></polygon><polygon class="cls-12" points="42.25 66.38 42.25 67.37 42.95 66.97 42.95 65.99 42.25 66.38"></polygon><polygon class="cls-12" points="44.18 65.27 44.18 66.25 44.88 65.85 44.88 64.87 44.18 65.27"></polygon><polygon class="cls-12" points="46.11 64.14 46.11 65.13 46.81 64.73 46.81 63.75 46.11 64.14"></polygon><polygon class="cls-12" points="48.04 63.03 48.04 64.01 48.75 63.61 48.75 62.63 48.04 63.03"></polygon><polygon class="cls-12" points="49.98 61.91 49.98 62.89 50.68 62.49 50.68 61.51 49.98 61.91"></polygon><polygon class="cls-12" points="38.39 70.11 38.39 71.1 39.09 70.7 39.09 69.72 38.39 70.11"></polygon><polygon class="cls-12" points="40.32 69 40.32 69.98 41.02 69.58 41.02 68.6 40.32 69"></polygon><polygon class="cls-12" points="42.25 67.88 42.25 68.86 42.95 68.46 42.95 67.48 42.25 67.88"></polygon><polygon class="cls-12" points="44.18 66.76 44.18 67.74 44.88 67.34 44.88 66.36 44.18 66.76"></polygon><polygon class="cls-12" points="46.11 65.64 46.11 66.62 46.81 66.22 46.81 65.24 46.11 65.64"></polygon><polygon class="cls-12" points="48.04 64.52 48.04 65.5 48.75 65.1 48.75 64.12 48.04 64.52"></polygon><polygon class="cls-12" points="49.98 63.4 49.98 64.38 50.68 63.98 50.68 63 49.98 63.4"></polygon><polygon class="cls-13" points="33.61 67.13 33.61 68.11 32.91 67.72 32.91 66.73 33.61 67.13"></polygon><polygon class="cls-13" points="31.68 66.01 31.68 66.99 30.98 66.6 30.98 65.61 31.68 66.01"></polygon><polygon class="cls-13" points="29.75 64.89 29.75 65.87 29.05 65.48 29.05 64.49 29.75 64.89"></polygon><polygon class="cls-13" points="27.82 63.77 27.82 64.75 27.12 64.36 27.12 63.38 27.82 63.77"></polygon><polygon class="cls-13" points="25.89 62.65 25.89 63.64 25.19 63.24 25.19 62.26 25.89 62.65"></polygon><polygon class="cls-13" points="23.96 61.53 23.96 62.52 23.26 62.12 23.26 61.14 23.96 61.53"></polygon><polygon class="cls-13" points="22.03 60.41 22.03 61.4 21.32 61 21.32 60.02 22.03 60.41"></polygon><polygon class="cls-13" points="33.61 68.62 33.61 69.61 32.91 69.21 32.91 68.22 33.61 68.62"></polygon><polygon class="cls-13" points="31.68 67.5 31.68 68.49 30.98 68.09 30.98 67.11 31.68 67.5"></polygon><polygon class="cls-13" points="29.75 66.38 29.75 67.37 29.05 66.97 29.05 65.99 29.75 66.38"></polygon><polygon class="cls-13" points="27.82 65.27 27.82 66.25 27.12 65.85 27.12 64.87 27.82 65.27"></polygon><polygon class="cls-13" points="25.89 64.14 25.89 65.13 25.19 64.73 25.19 63.75 25.89 64.14"></polygon><polygon class="cls-13" points="23.96 63.03 23.96 64.01 23.26 63.61 23.26 62.63 23.96 63.03"></polygon><polygon class="cls-13" points="22.03 61.91 22.03 62.89 21.32 62.49 21.32 61.51 22.03 61.91"></polygon><polygon class="cls-13" points="33.61 70.11 33.61 71.1 32.91 70.7 32.91 69.72 33.61 70.11"></polygon><polygon class="cls-13" points="31.68 69 31.68 69.98 30.98 69.58 30.98 68.6 31.68 69"></polygon><polygon class="cls-13" points="29.75 67.88 29.75 68.86 29.05 68.46 29.05 67.48 29.75 67.88"></polygon><polygon class="cls-13" points="27.82 66.76 27.82 67.74 27.12 67.34 27.12 66.36 27.82 66.76"></polygon><polygon class="cls-13" points="25.89 65.64 25.89 66.62 25.19 66.22 25.19 65.24 25.89 65.64"></polygon><polygon class="cls-13" points="23.96 64.52 23.96 65.5 23.26 65.1 23.26 64.12 23.96 64.52"></polygon><polygon class="cls-13" points="22.03 63.4 22.03 64.38 21.32 63.98 21.32 63 22.03 63.4"></polygon><path class="cls-1" d="M38.89,22.61a.44.44,0,0,0,.67.43A1.25,1.25,0,0,0,40.2,22a.43.43,0,0,0-.67-.42A1.25,1.25,0,0,0,38.89,22.61Z"></path><path class="cls-1" d="M38.89,24.46a.43.43,0,0,0,.67.42,1.23,1.23,0,0,0,.64-1.05.43.43,0,0,0-.67-.42A1.25,1.25,0,0,0,38.89,24.46Z"></path><path class="cls-14" d="M39.23,22.57a.28.28,0,0,0,.43.27.78.78,0,0,0,.41-.67.27.27,0,0,0-.42-.27A.79.79,0,0,0,39.23,22.57Z"></path><path class="cls-15" d="M39.23,24.35a.28.28,0,0,0,.43.27.78.78,0,0,0,.41-.67.27.27,0,0,0-.42-.27A.79.79,0,0,0,39.23,24.35Z"></path><polygon class="cls-16" points="41.01 21.51 41.01 22.07 41.42 21.84 41.42 21.28 41.01 21.51"></polygon><polygon class="cls-16" points="41.85 21.02 41.85 21.59 42.25 21.36 42.25 20.79 41.85 21.02"></polygon><polygon class="cls-16" points="42.68 20.54 42.68 21.11 43.09 20.88 43.09 20.31 42.68 20.54"></polygon><polygon class="cls-16" points="43.52 20.06 43.52 20.62 43.92 20.39 43.92 19.83 43.52 20.06"></polygon><polygon class="cls-16" points="44.35 19.57 44.35 20.14 44.76 19.91 44.76 19.34 44.35 19.57"></polygon><polygon class="cls-16" points="45.19 19.09 45.19 19.66 45.59 19.43 45.59 18.86 45.19 19.09"></polygon><polygon class="cls-16" points="46.02 18.61 46.02 19.17 46.42 18.94 46.42 18.38 46.02 18.61"></polygon><polygon class="cls-16" points="46.85 18.12 46.85 18.69 47.26 18.46 47.26 17.89 46.85 18.12"></polygon><polygon class="cls-16" points="47.69 17.64 47.69 18.2 48.09 17.98 48.09 17.41 47.69 17.64"></polygon><polygon class="cls-16" points="41.01 22.61 41.01 23.18 41.42 22.95 41.42 22.38 41.01 22.61"></polygon><polygon class="cls-16" points="41.85 22.13 41.85 22.69 42.25 22.46 42.25 21.9 41.85 22.13"></polygon><polygon class="cls-16" points="42.68 21.64 42.68 22.21 43.09 21.98 43.09 21.41 42.68 21.64"></polygon><polygon class="cls-16" points="43.52 21.16 43.52 21.73 43.92 21.5 43.92 20.93 43.52 21.16"></polygon><polygon class="cls-16" points="44.35 20.68 44.35 21.24 44.76 21.01 44.76 20.45 44.35 20.68"></polygon><polygon class="cls-16" points="45.19 20.19 45.19 20.76 45.59 20.53 45.59 19.96 45.19 20.19"></polygon><polygon class="cls-16" points="46.02 19.71 46.02 20.27 46.42 20.05 46.42 19.48 46.02 19.71"></polygon><polygon class="cls-16" points="46.85 19.22 46.85 19.79 47.26 19.56 47.26 19 46.85 19.22"></polygon><polygon class="cls-16" points="47.69 18.74 47.69 19.31 48.09 19.08 48.09 18.51 47.69 18.74"></polygon><polygon class="cls-16" points="51.19 17.37 48.86 18.72 48.86 16.88 51.19 15.53 51.19 17.37"></polygon><path class="cls-1" d="M38.89,28.76a.43.43,0,0,0,.67.42,1.23,1.23,0,0,0,.64-1.05.43.43,0,0,0-.67-.42A1.25,1.25,0,0,0,38.89,28.76Z"></path><path class="cls-1" d="M38.89,30.61a.43.43,0,0,0,.67.42A1.23,1.23,0,0,0,40.2,30a.43.43,0,0,0-.67-.42A1.25,1.25,0,0,0,38.89,30.61Z"></path><path class="cls-14" d="M39.23,28.72a.28.28,0,0,0,.43.27.78.78,0,0,0,.41-.67.27.27,0,0,0-.42-.27A.79.79,0,0,0,39.23,28.72Z"></path><path class="cls-15" d="M39.23,30.5a.28.28,0,0,0,.43.27.81.81,0,0,0,.41-.67.27.27,0,0,0-.42-.27A.79.79,0,0,0,39.23,30.5Z"></path><polygon class="cls-16" points="41.01 27.66 41.01 28.22 41.42 27.99 41.42 27.43 41.01 27.66"></polygon><polygon class="cls-16" points="41.85 27.17 41.85 27.74 42.25 27.51 42.25 26.94 41.85 27.17"></polygon><polygon class="cls-16" points="42.68 26.69 42.68 27.25 43.09 27.03 43.09 26.46 42.68 26.69"></polygon><polygon class="cls-16" points="43.52 26.2 43.52 26.77 43.92 26.54 43.92 25.98 43.52 26.2"></polygon><polygon class="cls-16" points="44.35 25.72 44.35 26.29 44.76 26.06 44.76 25.49 44.35 25.72"></polygon><polygon class="cls-16" points="45.19 25.24 45.19 25.8 45.59 25.57 45.59 25.01 45.19 25.24"></polygon><polygon class="cls-16" points="46.02 24.75 46.02 25.32 46.42 25.09 46.42 24.52 46.02 24.75"></polygon><polygon class="cls-16" points="46.85 24.27 46.85 24.84 47.26 24.61 47.26 24.04 46.85 24.27"></polygon><polygon class="cls-16" points="47.69 23.79 47.69 24.35 48.09 24.12 48.09 23.56 47.69 23.79"></polygon><polygon class="cls-16" points="41.01 28.76 41.01 29.32 41.42 29.1 41.42 28.53 41.01 28.76"></polygon><polygon class="cls-16" points="41.85 28.27 41.85 28.84 42.25 28.61 42.25 28.05 41.85 28.27"></polygon><polygon class="cls-16" points="42.68 27.79 42.68 28.36 43.09 28.13 43.09 27.56 42.68 27.79"></polygon><polygon class="cls-16" points="43.52 27.31 43.52 27.87 43.92 27.64 43.92 27.08 43.52 27.31"></polygon><polygon class="cls-16" points="44.35 26.82 44.35 27.39 44.76 27.16 44.76 26.59 44.35 26.82"></polygon><polygon class="cls-16" points="45.19 26.34 45.19 26.91 45.59 26.68 45.59 26.11 45.19 26.34"></polygon><polygon class="cls-16" points="46.02 25.86 46.02 26.42 46.42 26.19 46.42 25.63 46.02 25.86"></polygon><polygon class="cls-16" points="46.85 25.37 46.85 25.94 47.26 25.71 47.26 25.14 46.85 25.37"></polygon><polygon class="cls-16" points="47.69 24.89 47.69 25.46 48.09 25.23 48.09 24.66 47.69 24.89"></polygon><polygon class="cls-16" points="51.19 23.52 48.86 24.87 48.86 23.02 51.19 21.68 51.19 23.52"></polygon><path class="cls-1" d="M38.89,34.91a.43.43,0,0,0,.67.42,1.23,1.23,0,0,0,.64-1,.43.43,0,0,0-.67-.42A1.24,1.24,0,0,0,38.89,34.91Z"></path><path class="cls-1" d="M38.89,36.76a.43.43,0,0,0,.67.42,1.23,1.23,0,0,0,.64-1,.43.43,0,0,0-.67-.42A1.24,1.24,0,0,0,38.89,36.76Z"></path><path class="cls-14" d="M39.23,34.87a.28.28,0,0,0,.43.27.78.78,0,0,0,.41-.67.27.27,0,0,0-.42-.27A.79.79,0,0,0,39.23,34.87Z"></path><path class="cls-15" d="M39.23,36.65a.27.27,0,0,0,.43.26.78.78,0,0,0,.41-.67.27.27,0,0,0-.42-.26A.79.79,0,0,0,39.23,36.65Z"></path><polygon class="cls-16" points="41.01 33.8 41.01 34.37 41.42 34.14 41.42 33.58 41.01 33.8"></polygon><polygon class="cls-16" points="41.85 33.32 41.85 33.89 42.25 33.66 42.25 33.09 41.85 33.32"></polygon><polygon class="cls-16" points="42.68 32.84 42.68 33.4 43.09 33.17 43.09 32.61 42.68 32.84"></polygon><polygon class="cls-16" points="43.52 32.35 43.52 32.92 43.92 32.69 43.92 32.13 43.52 32.35"></polygon><polygon class="cls-16" points="44.35 31.87 44.35 32.44 44.76 32.21 44.76 31.64 44.35 31.87"></polygon><polygon class="cls-16" points="45.19 31.39 45.19 31.95 45.59 31.72 45.59 31.16 45.19 31.39"></polygon><polygon class="cls-16" points="46.02 30.9 46.02 31.47 46.42 31.24 46.42 30.67 46.02 30.9"></polygon><polygon class="cls-16" points="46.85 30.42 46.85 30.99 47.26 30.76 47.26 30.19 46.85 30.42"></polygon><polygon class="cls-16" points="47.69 29.94 47.69 30.5 48.09 30.27 48.09 29.71 47.69 29.94"></polygon><polygon class="cls-16" points="41.01 34.91 41.01 35.47 41.42 35.24 41.42 34.68 41.01 34.91"></polygon><polygon class="cls-16" points="41.85 34.42 41.85 34.99 42.25 34.76 42.25 34.2 41.85 34.42"></polygon><polygon class="cls-16" points="42.68 33.94 42.68 34.51 43.09 34.28 43.09 33.71 42.68 33.94"></polygon><polygon class="cls-16" points="43.52 33.46 43.52 34.02 43.92 33.79 43.92 33.23 43.52 33.46"></polygon><polygon class="cls-16" points="44.35 32.97 44.35 33.54 44.76 33.31 44.76 32.74 44.35 32.97"></polygon><polygon class="cls-16" points="45.19 32.49 45.19 33.06 45.59 32.83 45.59 32.26 45.19 32.49"></polygon><polygon class="cls-16" points="46.02 32.01 46.02 32.57 46.42 32.34 46.42 31.78 46.02 32.01"></polygon><polygon class="cls-16" points="46.85 31.52 46.85 32.09 47.26 31.86 47.26 31.29 46.85 31.52"></polygon><polygon class="cls-16" points="47.69 31.04 47.69 31.61 48.09 31.38 48.09 30.81 47.69 31.04"></polygon><polygon class="cls-16" points="51.19 29.67 48.86 31.02 48.86 29.17 51.19 27.82 51.19 29.67"></polygon><path class="cls-1" d="M38.89,41.06a.43.43,0,0,0,.67.42,1.23,1.23,0,0,0,.64-1,.43.43,0,0,0-.67-.42A1.24,1.24,0,0,0,38.89,41.06Z"></path><path class="cls-1" d="M38.89,42.91a.43.43,0,0,0,.67.42,1.23,1.23,0,0,0,.64-1,.43.43,0,0,0-.67-.42A1.23,1.23,0,0,0,38.89,42.91Z"></path><path class="cls-14" d="M39.23,41a.28.28,0,0,0,.43.27.81.81,0,0,0,.41-.67.27.27,0,0,0-.42-.27A.79.79,0,0,0,39.23,41Z"></path><path class="cls-15" d="M39.23,42.8a.28.28,0,0,0,.43.26.78.78,0,0,0,.41-.67.27.27,0,0,0-.42-.26A.79.79,0,0,0,39.23,42.8Z"></path><polygon class="cls-16" points="41.01 39.95 41.01 40.52 41.42 40.29 41.42 39.73 41.01 39.95"></polygon><polygon class="cls-16" points="41.85 39.47 41.85 40.04 42.25 39.81 42.25 39.24 41.85 39.47"></polygon><polygon class="cls-16" points="42.68 38.99 42.68 39.55 43.09 39.32 43.09 38.76 42.68 38.99"></polygon><polygon class="cls-16" points="43.52 38.5 43.52 39.07 43.92 38.84 43.92 38.27 43.52 38.5"></polygon><polygon class="cls-16" points="44.35 38.02 44.35 38.59 44.76 38.36 44.76 37.79 44.35 38.02"></polygon><polygon class="cls-16" points="45.19 37.54 45.19 38.1 45.59 37.87 45.59 37.31 45.19 37.54"></polygon><polygon class="cls-16" points="46.02 37.05 46.02 37.62 46.42 37.39 46.42 36.82 46.02 37.05"></polygon><polygon class="cls-16" points="46.85 36.57 46.85 37.13 47.26 36.91 47.26 36.34 46.85 36.57"></polygon><polygon class="cls-16" points="47.69 36.09 47.69 36.65 48.09 36.42 48.09 35.86 47.69 36.09"></polygon><polygon class="cls-16" points="41.01 41.06 41.01 41.62 41.42 41.39 41.42 40.83 41.01 41.06"></polygon><polygon class="cls-16" points="41.85 40.57 41.85 41.14 42.25 40.91 42.25 40.34 41.85 40.57"></polygon><polygon class="cls-16" points="42.68 40.09 42.68 40.66 43.09 40.43 43.09 39.86 42.68 40.09"></polygon><polygon class="cls-16" points="43.52 39.61 43.52 40.17 43.92 39.94 43.92 39.38 43.52 39.61"></polygon><polygon class="cls-16" points="44.35 39.12 44.35 39.69 44.76 39.46 44.76 38.89 44.35 39.12"></polygon><polygon class="cls-16" points="45.19 38.64 45.19 39.2 45.59 38.98 45.59 38.41 45.19 38.64"></polygon><polygon class="cls-16" points="46.02 38.16 46.02 38.72 46.42 38.49 46.42 37.93 46.02 38.16"></polygon><polygon class="cls-16" points="46.85 37.67 46.85 38.24 47.26 38.01 47.26 37.44 46.85 37.67"></polygon><polygon class="cls-16" points="47.69 37.19 47.69 37.75 48.09 37.52 48.09 36.96 47.69 37.19"></polygon><polygon class="cls-16" points="51.19 35.81 48.86 37.16 48.86 35.32 51.19 33.97 51.19 35.81"></polygon><path class="cls-1" d="M38.89,47.21a.43.43,0,0,0,.67.42,1.24,1.24,0,0,0,.64-1.05.43.43,0,0,0-.67-.42A1.23,1.23,0,0,0,38.89,47.21Z"></path><path class="cls-1" d="M38.89,49.06a.43.43,0,0,0,.67.42,1.24,1.24,0,0,0,.64-1,.43.43,0,0,0-.67-.42A1.23,1.23,0,0,0,38.89,49.06Z"></path><path class="cls-14" d="M39.23,47.17a.27.27,0,0,0,.43.26.78.78,0,0,0,.41-.66.27.27,0,0,0-.42-.27A.79.79,0,0,0,39.23,47.17Z"></path><path class="cls-15" d="M39.23,49a.28.28,0,0,0,.43.26.78.78,0,0,0,.41-.67.27.27,0,0,0-.42-.26A.79.79,0,0,0,39.23,49Z"></path><polygon class="cls-16" points="41.01 46.1 41.01 46.67 41.42 46.44 41.42 45.87 41.01 46.1"></polygon><polygon class="cls-16" points="41.85 45.62 41.85 46.19 42.25 45.96 42.25 45.39 41.85 45.62"></polygon><polygon class="cls-16" points="42.68 45.14 42.68 45.7 43.09 45.47 43.09 44.91 42.68 45.14"></polygon><polygon class="cls-16" points="43.52 44.65 43.52 45.22 43.92 44.99 43.92 44.42 43.52 44.65"></polygon><polygon class="cls-16" points="44.35 44.17 44.35 44.73 44.76 44.51 44.76 43.94 44.35 44.17"></polygon><polygon class="cls-16" points="45.19 43.69 45.19 44.25 45.59 44.02 45.59 43.46 45.19 43.69"></polygon><polygon class="cls-16" points="46.02 43.2 46.02 43.77 46.42 43.54 46.42 42.97 46.02 43.2"></polygon><polygon class="cls-16" points="46.85 42.72 46.85 43.28 47.26 43.05 47.26 42.49 46.85 42.72"></polygon><polygon class="cls-16" points="47.69 42.23 47.69 42.8 48.09 42.57 48.09 42.01 47.69 42.23"></polygon><polygon class="cls-16" points="41.01 47.2 41.01 47.77 41.42 47.54 41.42 46.98 41.01 47.2"></polygon><polygon class="cls-16" points="41.85 46.72 41.85 47.29 42.25 47.06 42.25 46.49 41.85 46.72"></polygon><polygon class="cls-16" points="42.68 46.24 42.68 46.8 43.09 46.58 43.09 46.01 42.68 46.24"></polygon><polygon class="cls-16" points="43.52 45.76 43.52 46.32 43.92 46.09 43.92 45.53 43.52 45.76"></polygon><polygon class="cls-16" points="44.35 45.27 44.35 45.84 44.76 45.61 44.76 45.04 44.35 45.27"></polygon><polygon class="cls-16" points="45.19 44.79 45.19 45.35 45.59 45.13 45.59 44.56 45.19 44.79"></polygon><polygon class="cls-16" points="46.02 44.3 46.02 44.87 46.42 44.64 46.42 44.08 46.02 44.3"></polygon><polygon class="cls-16" points="46.85 43.82 46.85 44.39 47.26 44.16 47.26 43.59 46.85 43.82"></polygon><polygon class="cls-16" points="47.69 43.34 47.69 43.9 48.09 43.67 48.09 43.11 47.69 43.34"></polygon><polygon class="cls-16" points="51.19 41.96 48.86 43.31 48.86 41.47 51.19 40.12 51.19 41.96"></polygon><path class="cls-1" d="M38.89,53.36a.43.43,0,0,0,.67.42,1.24,1.24,0,0,0,.64-1.05.43.43,0,0,0-.67-.42A1.23,1.23,0,0,0,38.89,53.36Z"></path><path class="cls-1" d="M38.89,55.21a.43.43,0,0,0,.67.42,1.25,1.25,0,0,0,.64-1.05.43.43,0,0,0-.67-.42A1.23,1.23,0,0,0,38.89,55.21Z"></path><path class="cls-14" d="M39.23,53.32a.28.28,0,0,0,.43.26.78.78,0,0,0,.41-.67.27.27,0,0,0-.42-.26A.79.79,0,0,0,39.23,53.32Z"></path><path class="cls-15" d="M39.23,55.09a.28.28,0,0,0,.43.27.78.78,0,0,0,.41-.67.27.27,0,0,0-.42-.27A.82.82,0,0,0,39.23,55.09Z"></path><polygon class="cls-16" points="41.01 52.25 41.01 52.82 41.42 52.59 41.42 52.02 41.01 52.25"></polygon><polygon class="cls-16" points="41.85 51.77 41.85 52.34 42.25 52.11 42.25 51.54 41.85 51.77"></polygon><polygon class="cls-16" points="42.68 51.28 42.68 51.85 43.09 51.62 43.09 51.06 42.68 51.28"></polygon><polygon class="cls-16" points="43.52 50.8 43.52 51.37 43.92 51.14 43.92 50.57 43.52 50.8"></polygon><polygon class="cls-16" points="44.35 50.32 44.35 50.88 44.76 50.66 44.76 50.09 44.35 50.32"></polygon><polygon class="cls-16" points="45.19 49.83 45.19 50.4 45.59 50.17 45.59 49.6 45.19 49.83"></polygon><polygon class="cls-16" points="46.02 49.35 46.02 49.92 46.42 49.69 46.42 49.12 46.02 49.35"></polygon><polygon class="cls-16" points="46.85 48.87 46.85 49.43 47.26 49.2 47.26 48.64 46.85 48.87"></polygon><polygon class="cls-16" points="47.69 48.38 47.69 48.95 48.09 48.72 48.09 48.15 47.69 48.38"></polygon><polygon class="cls-16" points="41.01 53.35 41.01 53.92 41.42 53.69 41.42 53.13 41.01 53.35"></polygon><polygon class="cls-16" points="41.85 52.87 41.85 53.44 42.25 53.21 42.25 52.64 41.85 52.87"></polygon><polygon class="cls-16" points="42.68 52.39 42.68 52.95 43.09 52.72 43.09 52.16 42.68 52.39"></polygon><polygon class="cls-16" points="43.52 51.9 43.52 52.47 43.92 52.24 43.92 51.67 43.52 51.9"></polygon><polygon class="cls-16" points="44.35 51.42 44.35 51.99 44.76 51.76 44.76 51.19 44.35 51.42"></polygon><polygon class="cls-16" points="45.19 50.94 45.19 51.5 45.59 51.27 45.59 50.71 45.19 50.94"></polygon><polygon class="cls-16" points="46.02 50.45 46.02 51.02 46.42 50.79 46.42 50.22 46.02 50.45"></polygon><polygon class="cls-16" points="46.85 49.97 46.85 50.54 47.26 50.31 47.26 49.74 46.85 49.97"></polygon><polygon class="cls-16" points="47.69 49.49 47.69 50.05 48.09 49.82 48.09 49.26 47.69 49.49"></polygon><polygon class="cls-16" points="51.19 48.11 48.86 49.46 48.86 47.62 51.19 46.27 51.19 48.11"></polygon><path class="cls-1" d="M38.89,59.51a.43.43,0,0,0,.67.42,1.25,1.25,0,0,0,.64-1,.43.43,0,0,0-.67-.42A1.23,1.23,0,0,0,38.89,59.51Z"></path><path class="cls-1" d="M38.89,61.36a.43.43,0,0,0,.67.42,1.25,1.25,0,0,0,.64-1.05.43.43,0,0,0-.67-.42A1.23,1.23,0,0,0,38.89,61.36Z"></path><path class="cls-14" d="M39.23,59.47a.28.28,0,0,0,.43.26.78.78,0,0,0,.41-.67.27.27,0,0,0-.42-.26A.79.79,0,0,0,39.23,59.47Z"></path><path class="cls-15" d="M39.23,61.24a.28.28,0,0,0,.43.27.78.78,0,0,0,.41-.67.27.27,0,0,0-.42-.27A.79.79,0,0,0,39.23,61.24Z"></path><polygon class="cls-16" points="41.01 58.4 41.01 58.97 41.42 58.74 41.42 58.17 41.01 58.4"></polygon><polygon class="cls-16" points="41.85 57.92 41.85 58.48 42.25 58.26 42.25 57.69 41.85 57.92"></polygon><polygon class="cls-16" points="42.68 57.43 42.68 58 43.09 57.77 43.09 57.2 42.68 57.43"></polygon><polygon class="cls-16" points="43.52 56.95 43.52 57.52 43.92 57.29 43.92 56.72 43.52 56.95"></polygon><polygon class="cls-16" points="44.35 56.47 44.35 57.03 44.76 56.8 44.76 56.24 44.35 56.47"></polygon><polygon class="cls-16" points="45.19 55.98 45.19 56.55 45.59 56.32 45.59 55.75 45.19 55.98"></polygon><polygon class="cls-16" points="46.02 55.5 46.02 56.07 46.42 55.84 46.42 55.27 46.02 55.5"></polygon><polygon class="cls-16" points="46.85 55.02 46.85 55.58 47.26 55.35 47.26 54.79 46.85 55.02"></polygon><polygon class="cls-16" points="47.69 54.53 47.69 55.1 48.09 54.87 48.09 54.3 47.69 54.53"></polygon><polygon class="cls-16" points="41.01 59.5 41.01 60.07 41.42 59.84 41.42 59.27 41.01 59.5"></polygon><polygon class="cls-16" points="41.85 59.02 41.85 59.59 42.25 59.36 42.25 58.79 41.85 59.02"></polygon><polygon class="cls-16" points="42.68 58.54 42.68 59.1 43.09 58.87 43.09 58.31 42.68 58.54"></polygon><polygon class="cls-16" points="43.52 58.05 43.52 58.62 43.92 58.39 43.92 57.82 43.52 58.05"></polygon><polygon class="cls-16" points="44.35 57.57 44.35 58.13 44.76 57.91 44.76 57.34 44.35 57.57"></polygon><polygon class="cls-16" points="45.19 57.09 45.19 57.65 45.59 57.42 45.59 56.86 45.19 57.09"></polygon><polygon class="cls-16" points="46.02 56.6 46.02 57.17 46.42 56.94 46.42 56.37 46.02 56.6"></polygon><polygon class="cls-16" points="46.85 56.12 46.85 56.69 47.26 56.46 47.26 55.89 46.85 56.12"></polygon><polygon class="cls-16" points="47.69 55.63 47.69 56.2 48.09 55.97 48.09 55.41 47.69 55.63"></polygon><polygon class="cls-16" points="51.19 54.26 48.86 55.61 48.86 53.77 51.19 52.42 51.19 54.26"></polygon><polygon class="cls-1" points="0 23.53 18.87 12.63 32.91 20.74 14.04 31.63 0 23.53"></polygon><polygon class="cls-2" points="14.04 31.64 32.91 20.74 32.91 75.39 14.04 86.29 14.04 31.64"></polygon><polygon class="cls-3" points="31.51 23.17 31.51 69.14 15.44 78.41 15.44 32.45 29.49 24.34 31.51 23.17"></polygon><polygon class="cls-4" points="31.51 69.14 25.92 66.7 15.44 74.51 15.44 78.41 31.51 69.14"></polygon><polygon class="cls-3" points="14.04 31.64 0 23.53 0 78.19 14.04 86.29 14.04 31.64"></polygon><polygon class="cls-5" points="16.85 71.16 16.85 76.8 15.44 75.99 15.44 70.34 16.85 71.16"></polygon><polygon class="cls-6" points="31.5 68.34 16.84 76.81 16.84 71.16 31.5 62.69 31.5 68.34"></polygon><polygon class="cls-1" points="31.51 62.7 16.85 71.16 15.44 70.34 15.44 69.64 29.49 61.53 31.51 62.7"></polygon><polygon class="cls-5" points="16.85 64.96 16.85 70.6 15.44 69.79 15.44 64.14 16.85 64.96"></polygon><polygon class="cls-6" points="31.5 62.14 16.84 70.61 16.84 64.96 31.5 56.49 31.5 62.14"></polygon><polygon class="cls-1" points="31.51 56.5 16.85 64.96 15.44 64.14 15.44 63.44 29.49 55.33 31.51 56.5"></polygon><polygon class="cls-5" points="16.85 58.76 16.85 64.41 15.44 63.59 15.44 57.95 16.85 58.76"></polygon><polygon class="cls-6" points="31.5 55.94 16.84 64.41 16.84 58.76 31.5 50.29 31.5 55.94"></polygon><polygon class="cls-1" points="31.51 50.3 16.85 58.76 15.44 57.95 15.44 57.24 29.49 49.13 31.51 50.3"></polygon><polygon class="cls-5" points="16.85 52.56 16.85 58.21 15.44 57.39 15.44 51.75 16.85 52.56"></polygon><polygon class="cls-6" points="31.5 49.74 16.84 58.21 16.84 52.56 31.5 44.1 31.5 49.74"></polygon><polygon class="cls-1" points="31.51 44.1 16.85 52.56 15.44 51.75 15.44 51.04 29.49 42.93 31.51 44.1"></polygon><polygon class="cls-5" points="16.85 46.36 16.85 52.01 15.44 51.19 15.44 45.55 16.85 46.36"></polygon><polygon class="cls-6" points="31.5 43.55 16.84 52.01 16.84 46.36 31.5 37.9 31.5 43.55"></polygon><polygon class="cls-1" points="31.51 37.9 16.85 46.36 15.44 45.55 15.44 44.84 29.49 36.73 31.51 37.9"></polygon><polygon class="cls-5" points="16.85 40.16 16.85 45.81 15.44 44.99 15.44 39.35 16.85 40.16"></polygon><polygon class="cls-6" points="31.5 37.35 16.84 45.81 16.84 40.16 31.5 31.7 31.5 37.35"></polygon><polygon class="cls-1" points="31.51 31.7 16.85 40.16 15.44 39.35 15.44 38.65 29.49 30.54 31.51 31.7"></polygon><polygon class="cls-5" points="16.85 33.96 16.85 39.61 15.44 38.8 15.44 33.15 16.85 33.96"></polygon><polygon class="cls-6" points="31.5 31.15 16.84 39.61 16.84 33.96 31.5 25.5 31.5 31.15"></polygon><polygon class="cls-1" points="31.51 25.5 16.85 33.96 15.44 33.15 15.44 32.45 29.49 24.34 31.51 25.5"></polygon><polygon class="cls-7" points="30.94 30.69 17.41 38.49 17.41 34.27 30.94 26.46 30.94 30.69"></polygon><polygon class="cls-8" points="1.89 27.58 1.89 57.85 12.48 63.96 12.48 33.69 3.23 28.35 1.89 27.58"></polygon><polygon class="cls-9" points="1.89 57.85 1.89 27.58 0.78 26.94 0.78 58.46 12.48 65.21 12.48 63.96 1.89 57.85"></polygon><polygon class="cls-10" points="4.86 59.57 12.48 63.96 12.48 33.69 4.86 29.29 4.86 59.57"></polygon><polygon class="cls-11" points="1.89 57.85 0.78 58.46 12.48 65.21 12.48 63.96 1.89 57.85"></polygon><polygon class="cls-12" points="17.55 79.76 17.55 80.75 18.25 80.35 18.25 79.36 17.55 79.76"></polygon><polygon class="cls-12" points="19.48 78.64 19.48 79.63 20.18 79.23 20.18 78.25 19.48 78.64"></polygon><polygon class="cls-12" points="21.41 77.53 21.41 78.51 22.11 78.11 22.11 77.13 21.41 77.53"></polygon><polygon class="cls-12" points="23.34 76.41 23.34 77.39 24.04 76.99 24.04 76.01 23.34 76.41"></polygon><polygon class="cls-12" points="25.27 75.29 25.27 76.27 25.98 75.87 25.98 74.89 25.27 75.29"></polygon><polygon class="cls-12" points="27.2 74.17 27.2 75.15 27.91 74.75 27.91 73.77 27.2 74.17"></polygon><polygon class="cls-12" points="29.14 73.05 29.14 74.03 29.84 73.63 29.84 72.65 29.14 73.05"></polygon><polygon class="cls-12" points="17.55 81.25 17.55 82.24 18.25 81.84 18.25 80.86 17.55 81.25"></polygon><polygon class="cls-12" points="19.48 80.14 19.48 81.12 20.18 80.72 20.18 79.74 19.48 80.14"></polygon><polygon class="cls-12" points="21.41 79.02 21.41 80 22.11 79.6 22.11 78.62 21.41 79.02"></polygon><polygon class="cls-12" points="23.34 77.9 23.34 78.88 24.04 78.48 24.04 77.5 23.34 77.9"></polygon><polygon class="cls-12" points="25.27 76.78 25.27 77.76 25.98 77.36 25.98 76.38 25.27 76.78"></polygon><polygon class="cls-12" points="27.2 75.66 27.2 76.64 27.91 76.25 27.91 75.26 27.2 75.66"></polygon><polygon class="cls-12" points="29.14 74.54 29.14 75.52 29.84 75.13 29.84 74.14 29.14 74.54"></polygon><polygon class="cls-12" points="17.55 82.75 17.55 83.73 18.25 83.33 18.25 82.35 17.55 82.75"></polygon><polygon class="cls-12" points="19.48 81.63 19.48 82.61 20.18 82.21 20.18 81.23 19.48 81.63"></polygon><polygon class="cls-12" points="21.41 80.51 21.41 81.49 22.11 81.09 22.11 80.11 21.41 80.51"></polygon><polygon class="cls-12" points="23.34 79.39 23.34 80.37 24.04 79.97 24.04 78.99 23.34 79.39"></polygon><polygon class="cls-12" points="25.27 78.27 25.27 79.25 25.98 78.86 25.98 77.87 25.27 78.27"></polygon><polygon class="cls-12" points="27.2 77.15 27.2 78.14 27.91 77.74 27.91 76.75 27.2 77.15"></polygon><polygon class="cls-12" points="29.14 76.03 29.14 77.02 29.84 76.62 29.84 75.64 29.14 76.03"></polygon><polygon class="cls-13" points="12.77 79.76 12.77 80.75 12.07 80.35 12.07 79.36 12.77 79.76"></polygon><polygon class="cls-13" points="10.84 78.64 10.84 79.63 10.14 79.23 10.14 78.25 10.84 78.64"></polygon><polygon class="cls-13" points="8.91 77.53 8.91 78.51 8.21 78.11 8.21 77.13 8.91 77.53"></polygon><polygon class="cls-13" points="6.98 76.41 6.98 77.39 6.28 76.99 6.28 76.01 6.98 76.41"></polygon><polygon class="cls-13" points="5.05 75.29 5.05 76.27 4.35 75.87 4.35 74.89 5.05 75.29"></polygon><polygon class="cls-13" points="3.12 74.17 3.12 75.15 2.42 74.75 2.42 73.77 3.12 74.17"></polygon><polygon class="cls-13" points="1.19 73.05 1.19 74.03 0.48 73.63 0.48 72.65 1.19 73.05"></polygon><polygon class="cls-13" points="12.77 81.25 12.77 82.24 12.07 81.84 12.07 80.86 12.77 81.25"></polygon><polygon class="cls-13" points="10.84 80.14 10.84 81.12 10.14 80.72 10.14 79.74 10.84 80.14"></polygon><polygon class="cls-13" points="8.91 79.02 8.91 80 8.21 79.6 8.21 78.62 8.91 79.02"></polygon><polygon class="cls-13" points="6.98 77.9 6.98 78.88 6.28 78.48 6.28 77.5 6.98 77.9"></polygon><polygon class="cls-13" points="5.05 76.78 5.05 77.76 4.35 77.36 4.35 76.38 5.05 76.78"></polygon><polygon class="cls-13" points="3.12 75.66 3.12 76.64 2.42 76.25 2.42 75.26 3.12 75.66"></polygon><polygon class="cls-13" points="1.19 74.54 1.19 75.52 0.48 75.13 0.48 74.14 1.19 74.54"></polygon><polygon class="cls-13" points="12.77 82.75 12.77 83.73 12.07 83.33 12.07 82.35 12.77 82.75"></polygon><polygon class="cls-13" points="10.84 81.63 10.84 82.61 10.14 82.21 10.14 81.23 10.84 81.63"></polygon><polygon class="cls-13" points="8.91 80.51 8.91 81.49 8.21 81.09 8.21 80.11 8.91 80.51"></polygon><polygon class="cls-13" points="6.98 79.39 6.98 80.37 6.28 79.97 6.28 78.99 6.98 79.39"></polygon><polygon class="cls-13" points="5.05 78.27 5.05 79.25 4.35 78.86 4.35 77.87 5.05 78.27"></polygon><polygon class="cls-13" points="3.12 77.15 3.12 78.14 2.42 77.74 2.42 76.75 3.12 77.15"></polygon><polygon class="cls-13" points="1.19 76.03 1.19 77.02 0.48 76.62 0.48 75.64 1.19 76.03"></polygon><path class="cls-1" d="M18.05,35.25a.43.43,0,0,0,.67.42,1.25,1.25,0,0,0,.64-1.06.43.43,0,0,0-.67-.42A1.25,1.25,0,0,0,18.05,35.25Z"></path><path class="cls-1" d="M18.05,37.1a.43.43,0,0,0,.67.42,1.25,1.25,0,0,0,.64-1.06.43.43,0,0,0-.67-.42A1.25,1.25,0,0,0,18.05,37.1Z"></path><path class="cls-14" d="M18.39,35.2a.28.28,0,0,0,.43.27.78.78,0,0,0,.41-.67.27.27,0,0,0-.42-.26A.79.79,0,0,0,18.39,35.2Z"></path><path class="cls-15" d="M18.39,37a.28.28,0,0,0,.43.27.78.78,0,0,0,.41-.67.27.27,0,0,0-.42-.27A.79.79,0,0,0,18.39,37Z"></path><polygon class="cls-16" points="20.17 34.14 20.17 34.71 20.58 34.48 20.58 33.91 20.17 34.14"></polygon><polygon class="cls-16" points="21.01 33.66 21.01 34.22 21.41 33.99 21.41 33.43 21.01 33.66"></polygon><polygon class="cls-16" points="21.84 33.17 21.84 33.74 22.25 33.51 22.25 32.94 21.84 33.17"></polygon><polygon class="cls-16" points="22.68 32.69 22.68 33.26 23.08 33.03 23.08 32.46 22.68 32.69"></polygon><polygon class="cls-16" points="23.51 32.21 23.51 32.77 23.91 32.54 23.91 31.98 23.51 32.21"></polygon><polygon class="cls-16" points="24.34 31.72 24.34 32.29 24.75 32.06 24.75 31.49 24.34 31.72"></polygon><polygon class="cls-16" points="25.18 31.24 25.18 31.8 25.58 31.58 25.58 31.01 25.18 31.24"></polygon><polygon class="cls-16" points="26.01 30.75 26.01 31.32 26.42 31.09 26.42 30.53 26.01 30.75"></polygon><polygon class="cls-16" points="26.85 30.27 26.85 30.84 27.25 30.61 27.25 30.04 26.85 30.27"></polygon><polygon class="cls-16" points="20.17 35.24 20.17 35.81 20.58 35.58 20.58 35.01 20.17 35.24"></polygon><polygon class="cls-16" points="21.01 34.76 21.01 35.33 21.41 35.1 21.41 34.53 21.01 34.76"></polygon><polygon class="cls-16" points="21.84 34.27 21.84 34.84 22.25 34.61 22.25 34.05 21.84 34.27"></polygon><polygon class="cls-16" points="22.68 33.79 22.68 34.36 23.08 34.13 23.08 33.56 22.68 33.79"></polygon><polygon class="cls-16" points="23.51 33.31 23.51 33.87 23.91 33.65 23.91 33.08 23.51 33.31"></polygon><polygon class="cls-16" points="24.34 32.83 24.34 33.39 24.75 33.16 24.75 32.59 24.34 32.83"></polygon><polygon class="cls-16" points="25.18 32.34 25.18 32.91 25.58 32.68 25.58 32.11 25.18 32.34"></polygon><polygon class="cls-16" points="26.01 31.86 26.01 32.42 26.42 32.2 26.42 31.63 26.01 31.86"></polygon><polygon class="cls-16" points="26.85 31.37 26.85 31.94 27.25 31.71 27.25 31.14 26.85 31.37"></polygon><polygon class="cls-16" points="30.35 30 28.02 31.35 28.02 29.51 30.35 28.16 30.35 30"></polygon><path class="cls-1" d="M18.05,41.4a.43.43,0,0,0,.67.42,1.25,1.25,0,0,0,.64-1.06.43.43,0,0,0-.67-.42A1.25,1.25,0,0,0,18.05,41.4Z"></path><path class="cls-1" d="M18.05,43.25a.43.43,0,0,0,.67.42,1.25,1.25,0,0,0,.64-1.06.43.43,0,0,0-.67-.42A1.25,1.25,0,0,0,18.05,43.25Z"></path><path class="cls-14" d="M18.39,41.35a.28.28,0,0,0,.43.27.78.78,0,0,0,.41-.67.27.27,0,0,0-.42-.27A.82.82,0,0,0,18.39,41.35Z"></path><path class="cls-15" d="M18.39,43.13a.28.28,0,0,0,.43.27.78.78,0,0,0,.41-.67.27.27,0,0,0-.42-.27A.79.79,0,0,0,18.39,43.13Z"></path><polygon class="cls-16" points="20.17 40.29 20.17 40.85 20.58 40.63 20.58 40.06 20.17 40.29"></polygon><polygon class="cls-16" points="21.01 39.8 21.01 40.37 21.41 40.14 21.41 39.58 21.01 39.8"></polygon><polygon class="cls-16" points="21.84 39.32 21.84 39.89 22.25 39.66 22.25 39.09 21.84 39.32"></polygon><polygon class="cls-16" points="22.68 38.84 22.68 39.4 23.08 39.17 23.08 38.61 22.68 38.84"></polygon><polygon class="cls-16" points="23.51 38.35 23.51 38.92 23.91 38.69 23.91 38.13 23.51 38.35"></polygon><polygon class="cls-16" points="24.34 37.87 24.34 38.44 24.75 38.21 24.75 37.64 24.34 37.87"></polygon><polygon class="cls-16" points="25.18 37.39 25.18 37.95 25.58 37.73 25.58 37.16 25.18 37.39"></polygon><polygon class="cls-16" points="26.01 36.9 26.01 37.47 26.42 37.24 26.42 36.67 26.01 36.9"></polygon><polygon class="cls-16" points="26.85 36.42 26.85 36.99 27.25 36.76 27.25 36.19 26.85 36.42"></polygon><polygon class="cls-16" points="20.17 41.39 20.17 41.96 20.58 41.73 20.58 41.16 20.17 41.39"></polygon><polygon class="cls-16" points="21.01 40.91 21.01 41.47 21.41 41.24 21.41 40.68 21.01 40.91"></polygon><polygon class="cls-16" points="21.84 40.42 21.84 40.99 22.25 40.76 22.25 40.2 21.84 40.42"></polygon><polygon class="cls-16" points="22.68 39.94 22.68 40.51 23.08 40.28 23.08 39.71 22.68 39.94"></polygon><polygon class="cls-16" points="23.51 39.46 23.51 40.02 23.91 39.79 23.91 39.23 23.51 39.46"></polygon><polygon class="cls-16" points="24.34 38.97 24.34 39.54 24.75 39.31 24.75 38.74 24.34 38.97"></polygon><polygon class="cls-16" points="25.18 38.49 25.18 39.06 25.58 38.83 25.58 38.26 25.18 38.49"></polygon><polygon class="cls-16" points="26.01 38.01 26.01 38.57 26.42 38.34 26.42 37.78 26.01 38.01"></polygon><polygon class="cls-16" points="26.85 37.52 26.85 38.09 27.25 37.86 27.25 37.29 26.85 37.52"></polygon><polygon class="cls-16" points="30.35 36.15 28.02 37.5 28.02 35.66 30.35 34.31 30.35 36.15"></polygon><path class="cls-1" d="M18.05,47.55a.43.43,0,0,0,.67.42,1.25,1.25,0,0,0,.64-1.06.43.43,0,0,0-.67-.42A1.25,1.25,0,0,0,18.05,47.55Z"></path><path class="cls-1" d="M18.05,49.4a.43.43,0,0,0,.67.42,1.25,1.25,0,0,0,.64-1.06.43.43,0,0,0-.67-.42A1.25,1.25,0,0,0,18.05,49.4Z"></path><path class="cls-14" d="M18.39,47.5a.28.28,0,0,0,.43.27.78.78,0,0,0,.41-.67.27.27,0,0,0-.42-.27A.79.79,0,0,0,18.39,47.5Z"></path><path class="cls-15" d="M18.39,49.28a.28.28,0,0,0,.43.27.78.78,0,0,0,.41-.67.27.27,0,0,0-.42-.27A.79.79,0,0,0,18.39,49.28Z"></path><polygon class="cls-16" points="20.17 46.44 20.17 47 20.58 46.77 20.58 46.21 20.17 46.44"></polygon><polygon class="cls-16" points="21.01 45.95 21.01 46.52 21.41 46.29 21.41 45.73 21.01 45.95"></polygon><polygon class="cls-16" points="21.84 45.47 21.84 46.04 22.25 45.81 22.25 45.24 21.84 45.47"></polygon><polygon class="cls-16" points="22.68 44.99 22.68 45.55 23.08 45.32 23.08 44.76 22.68 44.99"></polygon><polygon class="cls-16" points="23.51 44.5 23.51 45.07 23.91 44.84 23.91 44.27 23.51 44.5"></polygon><polygon class="cls-16" points="24.34 44.02 24.34 44.59 24.75 44.36 24.75 43.79 24.34 44.02"></polygon><polygon class="cls-16" points="25.18 43.54 25.18 44.1 25.58 43.87 25.58 43.31 25.18 43.54"></polygon><polygon class="cls-16" points="26.01 43.05 26.01 43.62 26.42 43.39 26.42 42.82 26.01 43.05"></polygon><polygon class="cls-16" points="26.85 42.57 26.85 43.14 27.25 42.91 27.25 42.34 26.85 42.57"></polygon><polygon class="cls-16" points="20.17 47.54 20.17 48.11 20.58 47.88 20.58 47.31 20.17 47.54"></polygon><polygon class="cls-16" points="21.01 47.06 21.01 47.62 21.41 47.39 21.41 46.83 21.01 47.06"></polygon><polygon class="cls-16" points="21.84 46.57 21.84 47.14 22.25 46.91 22.25 46.34 21.84 46.57"></polygon><polygon class="cls-16" points="22.68 46.09 22.68 46.66 23.08 46.43 23.08 45.86 22.68 46.09"></polygon><polygon class="cls-16" points="23.51 45.61 23.51 46.17 23.91 45.94 23.91 45.38 23.51 45.61"></polygon><polygon class="cls-16" points="24.34 45.12 24.34 45.69 24.75 45.46 24.75 44.89 24.34 45.12"></polygon><polygon class="cls-16" points="25.18 44.64 25.18 45.2 25.58 44.98 25.58 44.41 25.18 44.64"></polygon><polygon class="cls-16" points="26.01 44.16 26.01 44.72 26.42 44.49 26.42 43.93 26.01 44.16"></polygon><polygon class="cls-16" points="26.85 43.67 26.85 44.24 27.25 44.01 27.25 43.44 26.85 43.67"></polygon><polygon class="cls-16" points="30.35 42.3 28.02 43.65 28.02 41.81 30.35 40.46 30.35 42.3"></polygon><path class="cls-1" d="M18.05,53.7a.43.43,0,0,0,.67.42,1.25,1.25,0,0,0,.64-1.06.43.43,0,0,0-.67-.42A1.25,1.25,0,0,0,18.05,53.7Z"></path><path class="cls-1" d="M18.05,55.54a.43.43,0,0,0,.67.42,1.23,1.23,0,0,0,.64-1.05.43.43,0,0,0-.67-.42A1.25,1.25,0,0,0,18.05,55.54Z"></path><path class="cls-14" d="M18.39,53.65a.28.28,0,0,0,.43.27.78.78,0,0,0,.41-.67.27.27,0,0,0-.42-.27A.79.79,0,0,0,18.39,53.65Z"></path><path class="cls-15" d="M18.39,55.43a.28.28,0,0,0,.43.27.78.78,0,0,0,.41-.67.27.27,0,0,0-.42-.27A.79.79,0,0,0,18.39,55.43Z"></path><polygon class="cls-16" points="20.17 52.59 20.17 53.15 20.58 52.92 20.58 52.36 20.17 52.59"></polygon><polygon class="cls-16" points="21.01 52.1 21.01 52.67 21.41 52.44 21.41 51.87 21.01 52.1"></polygon><polygon class="cls-16" points="21.84 51.62 21.84 52.19 22.25 51.96 22.25 51.39 21.84 51.62"></polygon><polygon class="cls-16" points="22.68 51.14 22.68 51.7 23.08 51.47 23.08 50.91 22.68 51.14"></polygon><polygon class="cls-16" points="23.51 50.65 23.51 51.22 23.91 50.99 23.91 50.42 23.51 50.65"></polygon><polygon class="cls-16" points="24.34 50.17 24.34 50.73 24.75 50.51 24.75 49.94 24.34 50.17"></polygon><polygon class="cls-16" points="25.18 49.69 25.18 50.25 25.58 50.02 25.58 49.46 25.18 49.69"></polygon><polygon class="cls-16" points="26.01 49.2 26.01 49.77 26.42 49.54 26.42 48.97 26.01 49.2"></polygon><polygon class="cls-16" points="26.85 48.72 26.85 49.28 27.25 49.05 27.25 48.49 26.85 48.72"></polygon><polygon class="cls-16" points="20.17 53.69 20.17 54.26 20.58 54.03 20.58 53.46 20.17 53.69"></polygon><polygon class="cls-16" points="21.01 53.21 21.01 53.77 21.41 53.54 21.41 52.98 21.01 53.21"></polygon><polygon class="cls-16" points="21.84 52.72 21.84 53.29 22.25 53.06 22.25 52.49 21.84 52.72"></polygon><polygon class="cls-16" points="22.68 52.24 22.68 52.8 23.08 52.58 23.08 52.01 22.68 52.24"></polygon><polygon class="cls-16" points="23.51 51.76 23.51 52.32 23.91 52.09 23.91 51.53 23.51 51.76"></polygon><polygon class="cls-16" points="24.34 51.27 24.34 51.84 24.75 51.61 24.75 51.04 24.34 51.27"></polygon><polygon class="cls-16" points="25.18 50.79 25.18 51.35 25.58 51.13 25.58 50.56 25.18 50.79"></polygon><polygon class="cls-16" points="26.01 50.3 26.01 50.87 26.42 50.64 26.42 50.08 26.01 50.3"></polygon><polygon class="cls-16" points="26.85 49.82 26.85 50.39 27.25 50.16 27.25 49.59 26.85 49.82"></polygon><polygon class="cls-16" points="30.35 48.45 28.02 49.8 28.02 47.95 30.35 46.61 30.35 48.45"></polygon><path class="cls-1" d="M18.05,59.84a.43.43,0,0,0,.67.42,1.23,1.23,0,0,0,.64-1,.43.43,0,0,0-.67-.42A1.25,1.25,0,0,0,18.05,59.84Z"></path><path class="cls-1" d="M18.05,61.69a.43.43,0,0,0,.67.42,1.23,1.23,0,0,0,.64-1,.43.43,0,0,0-.67-.42A1.25,1.25,0,0,0,18.05,61.69Z"></path><path class="cls-14" d="M18.39,59.8a.28.28,0,0,0,.43.27.78.78,0,0,0,.41-.67.27.27,0,0,0-.42-.27A.79.79,0,0,0,18.39,59.8Z"></path><path class="cls-15" d="M18.39,61.58a.28.28,0,0,0,.43.27.81.81,0,0,0,.41-.67.27.27,0,0,0-.42-.27A.79.79,0,0,0,18.39,61.58Z"></path><polygon class="cls-16" points="20.17 58.74 20.17 59.3 20.58 59.07 20.58 58.51 20.17 58.74"></polygon><polygon class="cls-16" points="21.01 58.25 21.01 58.82 21.41 58.59 21.41 58.02 21.01 58.25"></polygon><polygon class="cls-16" points="21.84 57.77 21.84 58.34 22.25 58.11 22.25 57.54 21.84 57.77"></polygon><polygon class="cls-16" points="22.68 57.28 22.68 57.85 23.08 57.62 23.08 57.06 22.68 57.28"></polygon><polygon class="cls-16" points="23.51 56.8 23.51 57.37 23.91 57.14 23.91 56.57 23.51 56.8"></polygon><polygon class="cls-16" points="24.34 56.32 24.34 56.88 24.75 56.66 24.75 56.09 24.34 56.32"></polygon><polygon class="cls-16" points="25.18 55.83 25.18 56.4 25.58 56.17 25.58 55.6 25.18 55.83"></polygon><polygon class="cls-16" points="26.01 55.35 26.01 55.92 26.42 55.69 26.42 55.12 26.01 55.35"></polygon><polygon class="cls-16" points="26.85 54.87 26.85 55.43 27.25 55.2 27.25 54.64 26.85 54.87"></polygon><polygon class="cls-16" points="20.17 59.84 20.17 60.41 20.58 60.18 20.58 59.61 20.17 59.84"></polygon><polygon class="cls-16" points="21.01 59.35 21.01 59.92 21.41 59.69 21.41 59.13 21.01 59.35"></polygon><polygon class="cls-16" points="21.84 58.87 21.84 59.44 22.25 59.21 22.25 58.64 21.84 58.87"></polygon><polygon class="cls-16" points="22.68 58.39 22.68 58.95 23.08 58.73 23.08 58.16 22.68 58.39"></polygon><polygon class="cls-16" points="23.51 57.9 23.51 58.47 23.91 58.24 23.91 57.67 23.51 57.9"></polygon><polygon class="cls-16" points="24.34 57.42 24.34 57.99 24.75 57.76 24.75 57.19 24.34 57.42"></polygon><polygon class="cls-16" points="25.18 56.94 25.18 57.5 25.58 57.27 25.58 56.71 25.18 56.94"></polygon><polygon class="cls-16" points="26.01 56.45 26.01 57.02 26.42 56.79 26.42 56.22 26.01 56.45"></polygon><polygon class="cls-16" points="26.85 55.97 26.85 56.54 27.25 56.31 27.25 55.74 26.85 55.97"></polygon><polygon class="cls-16" points="30.35 54.6 28.02 55.95 28.02 54.1 30.35 52.76 30.35 54.6"></polygon><path class="cls-1" d="M18.05,66a.43.43,0,0,0,.67.42,1.23,1.23,0,0,0,.64-1,.43.43,0,0,0-.67-.42A1.24,1.24,0,0,0,18.05,66Z"></path><path class="cls-1" d="M18.05,67.84a.43.43,0,0,0,.67.42,1.23,1.23,0,0,0,.64-1.05.43.43,0,0,0-.67-.42A1.24,1.24,0,0,0,18.05,67.84Z"></path><path class="cls-14" d="M18.39,66a.28.28,0,0,0,.43.27.78.78,0,0,0,.41-.67.27.27,0,0,0-.42-.27A.79.79,0,0,0,18.39,66Z"></path><path class="cls-15" d="M18.39,67.73a.27.27,0,0,0,.43.26.78.78,0,0,0,.41-.67.27.27,0,0,0-.42-.26A.79.79,0,0,0,18.39,67.73Z"></path><polygon class="cls-16" points="20.17 64.89 20.17 65.45 20.58 65.22 20.58 64.66 20.17 64.89"></polygon><polygon class="cls-16" points="21.01 64.4 21.01 64.97 21.41 64.74 21.41 64.17 21.01 64.4"></polygon><polygon class="cls-16" points="21.84 63.92 21.84 64.48 22.25 64.25 22.25 63.69 21.84 63.92"></polygon><polygon class="cls-16" points="22.68 63.43 22.68 64 23.08 63.77 23.08 63.2 22.68 63.43"></polygon><polygon class="cls-16" points="23.51 62.95 23.51 63.52 23.91 63.29 23.91 62.72 23.51 62.95"></polygon><polygon class="cls-16" points="24.34 62.47 24.34 63.03 24.75 62.8 24.75 62.24 24.34 62.47"></polygon><polygon class="cls-16" points="25.18 61.98 25.18 62.55 25.58 62.32 25.58 61.75 25.18 61.98"></polygon><polygon class="cls-16" points="26.01 61.5 26.01 62.07 26.42 61.84 26.42 61.27 26.01 61.5"></polygon><polygon class="cls-16" points="26.85 61.02 26.85 61.58 27.25 61.35 27.25 60.79 26.85 61.02"></polygon><polygon class="cls-16" points="20.17 65.99 20.17 66.55 20.58 66.33 20.58 65.76 20.17 65.99"></polygon><polygon class="cls-16" points="21.01 65.5 21.01 66.07 21.41 65.84 21.41 65.28 21.01 65.5"></polygon><polygon class="cls-16" points="21.84 65.02 21.84 65.59 22.25 65.36 22.25 64.79 21.84 65.02"></polygon><polygon class="cls-16" points="22.68 64.54 22.68 65.1 23.08 64.87 23.08 64.31 22.68 64.54"></polygon><polygon class="cls-16" points="23.51 64.05 23.51 64.62 23.91 64.39 23.91 63.82 23.51 64.05"></polygon><polygon class="cls-16" points="24.34 63.57 24.34 64.14 24.75 63.91 24.75 63.34 24.34 63.57"></polygon><polygon class="cls-16" points="25.18 63.09 25.18 63.65 25.58 63.42 25.58 62.86 25.18 63.09"></polygon><polygon class="cls-16" points="26.01 62.6 26.01 63.17 26.42 62.94 26.42 62.37 26.01 62.6"></polygon><polygon class="cls-16" points="26.85 62.12 26.85 62.69 27.25 62.46 27.25 61.89 26.85 62.12"></polygon><polygon class="cls-16" points="30.35 60.75 28.02 62.09 28.02 60.25 30.35 58.91 30.35 60.75"></polygon><path class="cls-1" d="M18.05,72.14a.43.43,0,0,0,.67.42,1.23,1.23,0,0,0,.64-1,.43.43,0,0,0-.67-.42A1.24,1.24,0,0,0,18.05,72.14Z"></path><path class="cls-1" d="M18.05,74a.43.43,0,0,0,.67.42,1.23,1.23,0,0,0,.64-1,.43.43,0,0,0-.67-.42A1.23,1.23,0,0,0,18.05,74Z"></path><path class="cls-14" d="M18.39,72.1a.28.28,0,0,0,.43.27.81.81,0,0,0,.41-.67.27.27,0,0,0-.42-.27A.79.79,0,0,0,18.39,72.1Z"></path><path class="cls-15" d="M18.39,73.88a.28.28,0,0,0,.43.26.78.78,0,0,0,.41-.67.27.27,0,0,0-.42-.26A.79.79,0,0,0,18.39,73.88Z"></path><polygon class="cls-16" points="20.17 71.03 20.17 71.6 20.58 71.37 20.58 70.81 20.17 71.03"></polygon><polygon class="cls-16" points="21.01 70.55 21.01 71.12 21.41 70.89 21.41 70.32 21.01 70.55"></polygon><polygon class="cls-16" points="21.84 70.07 21.84 70.63 22.25 70.4 22.25 69.84 21.84 70.07"></polygon><polygon class="cls-16" points="22.68 69.58 22.68 70.15 23.08 69.92 23.08 69.35 22.68 69.58"></polygon><polygon class="cls-16" points="23.51 69.1 23.51 69.67 23.91 69.44 23.91 68.87 23.51 69.1"></polygon><polygon class="cls-16" points="24.34 68.62 24.34 69.18 24.75 68.95 24.75 68.39 24.34 68.62"></polygon><polygon class="cls-16" points="25.18 68.13 25.18 68.7 25.58 68.47 25.58 67.9 25.18 68.13"></polygon><polygon class="cls-16" points="26.01 67.65 26.01 68.22 26.42 67.99 26.42 67.42 26.01 67.65"></polygon><polygon class="cls-16" points="26.85 67.17 26.85 67.73 27.25 67.5 27.25 66.94 26.85 67.17"></polygon><polygon class="cls-16" points="20.17 72.14 20.17 72.7 20.58 72.47 20.58 71.91 20.17 72.14"></polygon><polygon class="cls-16" points="21.01 71.65 21.01 72.22 21.41 71.99 21.41 71.42 21.01 71.65"></polygon><polygon class="cls-16" points="21.84 71.17 21.84 71.74 22.25 71.51 22.25 70.94 21.84 71.17"></polygon><polygon class="cls-16" points="22.68 70.69 22.68 71.25 23.08 71.02 23.08 70.46 22.68 70.69"></polygon><polygon class="cls-16" points="23.51 70.2 23.51 70.77 23.91 70.54 23.91 69.97 23.51 70.2"></polygon><polygon class="cls-16" points="24.34 69.72 24.34 70.28 24.75 70.06 24.75 69.49 24.34 69.72"></polygon><polygon class="cls-16" points="25.18 69.23 25.18 69.8 25.58 69.57 25.58 69.01 25.18 69.23"></polygon><polygon class="cls-16" points="26.01 68.75 26.01 69.32 26.42 69.09 26.42 68.52 26.01 68.75"></polygon><polygon class="cls-16" points="26.85 68.27 26.85 68.83 27.25 68.61 27.25 68.04 26.85 68.27"></polygon><polygon class="cls-16" points="30.35 66.89 28.02 68.24 28.02 66.4 30.35 65.05 30.35 66.89"></polygon></g></g></svg>