<svg xmlns="http://www.w3.org/2000/svg" xmlns:xlink="http://www.w3.org/1999/xlink" viewBox="0 0 75.51 95.97"><defs><style>.cls-1{isolation:isolate;}.cls-2{fill:url(#Ѕезым_нный_градиент_3605);}.cls-3{fill:url(#Ѕезым_нный_градиент_3605-2);}.cls-4{fill:#52a5ea;}.cls-5{fill:url(#Ѕезым_нный_градиент_3605-3);}.cls-6{fill:url(#Ѕезым_нный_градиент_3605-4);}.cls-7{fill:#dcffff;}.cls-8{fill:#54acb8;}.cls-9{fill:#aacdec;}.cls-10{fill:#428bd0;}.cls-11{fill:#9aa2ff;}.cls-12{fill:#e1e6ff;}.cls-13{fill:#a7bbff;}.cls-14{fill:#cbd2ff;}.cls-15{fill:url(#Ѕезым_нный_градиент_3684);}.cls-16{fill:url(#Ѕезым_нный_градиент_3668);}.cls-17{fill:#8bd6ff;}.cls-18{fill:#6eced8;mix-blend-mode:multiply;}.cls-19{fill:#f8f9ff;}.cls-20{fill:#658c00;}.cls-21{fill:#416d00;}.cls-22{fill:#baeb34;}</style><linearGradient id="&#x405;&#x435;&#x437;&#x44B;&#x43C;_&#x43D;&#x43D;&#x44B;&#x439;_&#x433;&#x440;&#x430;&#x434;&#x438;&#x435;&#x43D;&#x442;_3605" x1="52.26" y1="52.4" x2="56.72" y2="44.68" gradientUnits="userSpaceOnUse"><stop offset="0" stop-color="#5bbaf2"></stop><stop offset="0.05" stop-color="#61caf2"></stop><stop offset="0.09" stop-color="#6cccf6"></stop><stop offset="0.17" stop-color="#7dcefd"></stop><stop offset="0.23" stop-color="#83cfff"></stop><stop offset="0.43" stop-color="#83cfff"></stop><stop offset="0.66" stop-color="#9ee6ff"></stop></linearGradient><linearGradient id="&#x405;&#x435;&#x437;&#x44B;&#x43C;_&#x43D;&#x43D;&#x44B;&#x439;_&#x433;&#x440;&#x430;&#x434;&#x438;&#x435;&#x43D;&#x442;_3605-2" x1="9.25" y1="94.76" x2="28.03" y2="62.24" xlink:href="#&#x405;&#x435;&#x437;&#x44B;&#x43C;_&#x43D;&#x43D;&#x44B;&#x439;_&#x433;&#x440;&#x430;&#x434;&#x438;&#x435;&#x43D;&#x442;_3605"></linearGradient><linearGradient id="&#x405;&#x435;&#x437;&#x44B;&#x43C;_&#x43D;&#x43D;&#x44B;&#x439;_&#x433;&#x440;&#x430;&#x434;&#x438;&#x435;&#x43D;&#x442;_3605-3" x1="29.77" y1="69.01" x2="46.35" y2="40.3" xlink:href="#&#x405;&#x435;&#x437;&#x44B;&#x43C;_&#x43D;&#x43D;&#x44B;&#x439;_&#x433;&#x440;&#x430;&#x434;&#x438;&#x435;&#x43D;&#x442;_3605"></linearGradient><linearGradient id="&#x405;&#x435;&#x437;&#x44B;&#x43C;_&#x43D;&#x43D;&#x44B;&#x439;_&#x433;&#x440;&#x430;&#x434;&#x438;&#x435;&#x43D;&#x442;_3605-4" x1="16.71" y1="72.04" x2="28.13" y2="52.26" xlink:href="#&#x405;&#x435;&#x437;&#x44B;&#x43C;_&#x43D;&#x43D;&#x44B;&#x439;_&#x433;&#x440;&#x430;&#x434;&#x438;&#x435;&#x43D;&#x442;_3605"></linearGradient><linearGradient id="&#x405;&#x435;&#x437;&#x44B;&#x43C;_&#x43D;&#x43D;&#x44B;&#x439;_&#x433;&#x440;&#x430;&#x434;&#x438;&#x435;&#x43D;&#x442;_3684" x1="15.25" y1="96.21" x2="25.93" y2="77.72" gradientUnits="userSpaceOnUse"><stop offset="0" stop-color="#2184bf"></stop><stop offset="0.17" stop-color="#30a3cf"></stop><stop offset="0.18" stop-color="#39a7d2"></stop><stop offset="0.24" stop-color="#69bee2"></stop><stop offset="0.31" stop-color="#90d0ee"></stop><stop offset="0.37" stop-color="#abdcf8"></stop><stop offset="0.42" stop-color="#bce4fd"></stop><stop offset="0.46" stop-color="#c2e7ff"></stop><stop offset="0.79" stop-color="#c2e7ff"></stop><stop offset="0.93" stop-color="#e6f8ff"></stop></linearGradient><linearGradient id="&#x405;&#x435;&#x437;&#x44B;&#x43C;_&#x43D;&#x43D;&#x44B;&#x439;_&#x433;&#x440;&#x430;&#x434;&#x438;&#x435;&#x43D;&#x442;_3668" x1="30.67" y1="82.94" x2="41.98" y2="63.35" gradientUnits="userSpaceOnUse"><stop offset="0" stop-color="#2184bf"></stop><stop offset="0.17" stop-color="#30a3cf"></stop><stop offset="0.18" stop-color="#39a7d2"></stop><stop offset="0.28" stop-color="#69bee2"></stop><stop offset="0.37" stop-color="#90d0ee"></stop><stop offset="0.46" stop-color="#abdcf8"></stop><stop offset="0.54" stop-color="#bce4fd"></stop><stop offset="0.59" stop-color="#c2e7ff"></stop><stop offset="0.79" stop-color="#c2e7ff"></stop><stop offset="0.93" stop-color="#e6f8ff"></stop></linearGradient></defs><title>cloud-servers</title><g class="cls-1"><g id="&#x421;&#x43B;&#x43E;&#x439;_2" data-name="&#x421;&#x43B;&#x43E;&#x439; 2"><g id="_1" data-name="1"><path class="cls-2" d="M52.8,52.68a16,16,0,0,0,5,2,12.72,12.72,0,0,0,2,.34,17.08,17.08,0,0,0,.35-2.7c3.08,0,2.47-4.27,2.47-4.27l-7.75-4.21a5.89,5.89,0,0,0-.64-.37h0c-1.67-.8-3.84-.7-6.23.44C46.7,46.35,50.72,51.22,52.8,52.68Z"></path><path class="cls-3" d="M12,91.55l26-15c-2.23-2.12-4.39-4.33-6.66-6.41-2.93-2.69-6-5.24-8.76-8.13-1.89-2-6.13-5.41-8-7.47A19,19,0,0,0,10,66a9.83,9.83,0,0,0,.25,2.26c-.27.13-.54.27-.81.43C4.22,71.73,0,79,0,85c0,2.94,1,5,2.69,6h0l.06,0,0,0,8.07,4.41,1.26-3.57-.76,0A6.61,6.61,0,0,0,12,91.55Z"></path><path class="cls-4" d="M39,76l.38-.22-3.5-2.81C36.93,73.93,38,75,39,76Z"></path><path class="cls-5" d="M56.91,55.59a13.51,13.51,0,0,1-5.62-2.75,7.94,7.94,0,0,1-2.15-6.94l-.51.34a12.75,12.75,0,0,0-.4-2.27,6.21,6.21,0,0,0,2.23-1.3l-8-4.35-.09,0h0c-2.27-1.26-5.38-1-8.82.94A26.46,26.46,0,0,0,23.87,50a6.83,6.83,0,0,0-5.21,1,14.87,14.87,0,0,0-3.28,2.63c2,2.27,6.4,5.91,8.53,8.07L25.17,63a.62.62,0,0,1,.33.13c5,4,9.9,8.05,14.9,12l8.29-4.79v0c.3-.14.6-.3.91-.48,4.57-2.64,8.46-8.21,9.93-13.72A13.81,13.81,0,0,1,56.91,55.59Z"></path><path class="cls-6" d="M18.66,51.06C13.86,53.83,10,60.53,10,66a9.83,9.83,0,0,0,.25,2.26l8,4.34c20.48,3,13.63-18.26,13.63-18.26L23.87,50A6.83,6.83,0,0,0,18.66,51.06Z"></path><path class="cls-7" d="M65.54,54.76c0,6.69-4.72,14.83-10.55,18.2l-.62.33-.29.14v0L40.52,81.31l-5.76,3.33-17.39,10a11.43,11.43,0,0,1-1.59.76C11.34,97.14,8,94.66,8,89.31c0-6,4.22-13.24,9.42-16.24.27-.16.55-.3.82-.43a9.29,9.29,0,0,1-.26-2.26c0-5,3.28-11.12,7.52-14.22a13.56,13.56,0,0,1,1.16-.76,6.88,6.88,0,0,1,5.21-1,26.46,26.46,0,0,1,9.69-10.84A13.35,13.35,0,0,1,45.24,42a7.23,7.23,0,0,1,4.84.44c2.19,1.08,3.64,3.45,3.94,6.89.32-.22.64-.42,1-.61a8.75,8.75,0,0,1,5.76-1.37C63.63,47.88,65.54,50.51,65.54,54.76Z"></path><path class="cls-8" d="M64.27,54.76a20.06,20.06,0,0,1-2.92,9.71,20.57,20.57,0,0,1-6.56,7.12l-.44.27-.55.29a1.06,1.06,0,0,1-.21.11l-.79.38v.11L40.94,79.6l-5.76,3.33L16.73,93.58l-.56.3c-.29.14-.57.27-.84.37a6.12,6.12,0,0,1-2.19.45c-2.45,0-3.91-2-3.91-5.39a13.39,13.39,0,0,1,.31-2.83,19,19,0,0,1,1.79-4.89c.15-.29.32-.59.48-.88A18,18,0,0,1,18,74.17c.24-.14.48-.26.73-.38l.94-.44-.25-1a8,8,0,0,1-.22-2,16.48,16.48,0,0,1,2.49-8.09,18.3,18.3,0,0,1,3.25-4.06,13.35,13.35,0,0,1,1.26-1c.35-.25.7-.49,1.05-.69a6.74,6.74,0,0,1,3.26-1,3.71,3.71,0,0,1,1,.13l1,.28L33,55a25.13,25.13,0,0,1,9.2-10.32,12.71,12.71,0,0,1,2.75-1.2c.21-.06.41-.12.61-.16a7.45,7.45,0,0,1,1.64-.19,5.36,5.36,0,0,1,2.37.52l.25.13a5.67,5.67,0,0,1,2.41,3,10.55,10.55,0,0,1,.58,2.69l.18,2.16.79-.55,1-.67c.32-.22.62-.4.89-.57a10.36,10.36,0,0,1,1-.5,7.59,7.59,0,0,1,3.1-.77,3.39,3.39,0,0,1,.72.06h.09C62.91,49.05,64.27,51.27,64.27,54.76Z"></path><path class="cls-9" d="M49,43.57l.25.14c1.69,1,2.74,3,3,5.72l.16,1.82.58.38-.19-2.16c-.23-2.74-1.29-4.76-3-5.73l-.25-.13a5.09,5.09,0,0,0-2.2-.52A5,5,0,0,1,49,43.57Z"></path><path class="cls-9" d="M60.53,48.64h-.09a4.62,4.62,0,0,0-.65-.06l.1,0H60c2.37.4,3.73,2.63,3.73,6.12a20,20,0,0,1-2.91,9.71,20.62,20.62,0,0,1-6.57,7.13l-.43.26-.55.3-.21.1-.79.38v.11L40.39,79.56l-5.76,3.33L16.18,93.54q-.29.17-.57.3a7.68,7.68,0,0,1-.84.37,6,6,0,0,1-2.18.45h0a5.46,5.46,0,0,0,.57,0,6.12,6.12,0,0,0,2.19-.45,8.48,8.48,0,0,0,.83-.37q.29-.13.57-.3L35.18,82.93l5.76-3.33,11.87-6.85v-.11l.78-.38.21-.11.55-.29.44-.26a20.69,20.69,0,0,0,6.56-7.13,20.06,20.06,0,0,0,2.92-9.71C64.27,51.27,62.91,49,60.53,48.64Z"></path><path class="cls-10" d="M30.92,55.57l1,.28.05-.1-.51-.14a3.32,3.32,0,0,0-1-.13h0Z"></path><path class="cls-7" d="M17.37,74.48c.27-.15.55-.3.82-.42A8.73,8.73,0,0,1,18,72.75c-.2.1-.4.2-.6.32C12.17,76.07,8,83.34,8,89.31c0,.24,0,.47,0,.69C8.29,84.18,12.38,77.37,17.37,74.48Z"></path><path class="cls-7" d="M25.45,57.58a11.52,11.52,0,0,1,1.16-.76,6.83,6.83,0,0,1,5.21-1A26.55,26.55,0,0,1,41.51,45a13.61,13.61,0,0,1,3.73-1.5,7.17,7.17,0,0,1,4.84.44C52.27,45,53.72,47.34,54,50.77c.32-.21.64-.42,1-.61a8.68,8.68,0,0,1,5.76-1.36c2.72.46,4.57,2.84,4.77,6.68,0-.24,0-.48,0-.72,0-4.25-1.91-6.88-4.79-7.38A8.75,8.75,0,0,0,55,48.75c-.33.19-.65.39-1,.61-.3-3.44-1.75-5.81-3.94-6.89A7.23,7.23,0,0,0,45.24,42a13.35,13.35,0,0,0-3.73,1.51,26.46,26.46,0,0,0-9.69,10.84,6.88,6.88,0,0,0-5.21,1,13.56,13.56,0,0,0-1.16.76c-4.24,3.1-7.52,9.17-7.52,14.22,0,.24,0,.47,0,.69A19.57,19.57,0,0,1,25.45,57.58Z"></path><path class="cls-7" d="M60.75,47.39A8.68,8.68,0,0,0,55,48.75a11.18,11.18,0,0,0-1,.61c-.29-3.44-1.76-5.81-3.94-6.89A7.19,7.19,0,0,0,45.25,42a13.28,13.28,0,0,0-3.74,1.51,26.52,26.52,0,0,0-9.69,10.84,6.92,6.92,0,0,0-5.21,1,13.56,13.56,0,0,0-1.16.76c-4.24,3.11-7.52,9.17-7.52,14.22a9.23,9.23,0,0,0,.26,2.26c-.27.13-.54.27-.82.43C12.17,76.07,8,83.34,8,89.31c0,5.34,3.39,7.83,7.83,6.13a9.62,9.62,0,0,0,1.59-.77l2.44-1.41,1.24-.7,2.47-1.44,5.76-3.32L33,85.66l1.78-1,4-2.29L40,81.63l.56-.32.67-.39,1.24-.71,11.64-6.73v0l.29-.14A5.36,5.36,0,0,0,55,73c5.82-3.36,10.55-11.5,10.55-18.19C65.54,50.51,63.64,47.87,60.75,47.39Zm-6,24.21c-.15.09-.28.17-.44.25l-.55.31-.21.1-.79.37v.12l-10.36,6-1.24.72-.26.15-1,.56-1.24.71-3.56,2.06L33,84.19l-2.47,1.44-1.23.7-5.76,3.32L19.81,91.8l-3.08,1.77a6.38,6.38,0,0,1-.57.32q-.42.19-.84.36a6,6,0,0,1-2.18.45c-2.46,0-3.91-2-3.91-5.39a13.3,13.3,0,0,1,.31-2.82,18.59,18.59,0,0,1,1.8-4.9c.14-.29.31-.58.47-.87A17.85,17.85,0,0,1,18,74.17c.25-.14.49-.26.73-.37l.94-.45-.25-1a8.37,8.37,0,0,1-.22-2,16.58,16.58,0,0,1,2.49-8.09,18.59,18.59,0,0,1,3.25-4.06,13.74,13.74,0,0,1,1.27-1,11,11,0,0,1,1-.69,6.74,6.74,0,0,1,3.26-1,3.66,3.66,0,0,1,1,.12l1,.3L33,55a25,25,0,0,1,9.2-10.31,11.85,11.85,0,0,1,2.75-1.21c.21-.06.41-.12.62-.16a7.31,7.31,0,0,1,1.64-.19,5.27,5.27,0,0,1,2.35.52,1.58,1.58,0,0,1,.26.13,5.67,5.67,0,0,1,2.41,3,10.24,10.24,0,0,1,.57,2.69l.19,2.16.8-.55,1-.67c.33-.21.62-.4.9-.56a9.31,9.31,0,0,1,1-.51,7.59,7.59,0,0,1,3.1-.77,4.37,4.37,0,0,1,.72.06h.09c2.38.41,3.74,2.64,3.74,6.11a20,20,0,0,1-2.93,9.72A20.48,20.48,0,0,1,54.79,71.6Z"></path><path class="cls-11" d="M33,48.44C20.72,61.06,20.09,85.72,20.09,85.72L53.18,67s.63-24.66,12.93-37.28Z"></path><path class="cls-12" d="M33.76,48.92C21.45,61.54,20.82,86.2,20.82,86.2L53.91,67.49s.63-24.66,12.94-37.28Z"></path><path class="cls-13" d="M21.65,78.88C21,90.07,55,48.75,55,48.75l.8-3.37L28.16,60.88A32.05,32.05,0,0,0,21.65,78.88Z"></path><path class="cls-11" d="M23.64,70.17l-2.28,10L49.77,64.08,39.62,61.14C35,56.88,26.45,63.76,23.64,70.17Z"></path><path class="cls-14" d="M24,70.49l-2.29,10L50.1,64.41,39.94,61.46C35.35,57.21,26.78,64.08,24,70.49Z"></path><path class="cls-7" d="M23.36,75.14l-.09,1,.06-.77C23.34,75.33,23.34,75.24,23.36,75.14Z"></path><path class="cls-15" d="M24.55,77.25l6.88,6.12L15.7,92.3l-.55.3-.79.37c-.72.3-.88,1.57-1.44,1.63-.88.11-2-1.16-2.36-1.65s-.48-1.74,0-3.24a14,14,0,0,1,1-2.24,24.14,24.14,0,0,1,2.73-4c.19-.24.41-.49.62-.74A27.6,27.6,0,0,1,21.69,77c.22-.13.46-.25.69-.37l.89-.44Z"></path><path class="cls-16" d="M48.58,73.64,31.43,83.37l-6.88-6.12-1.28-1.07.09-1v-.07a5.5,5.5,0,0,1,.27-1.16,20.41,20.41,0,0,1,4.13-6.59,27.2,27.2,0,0,1,3.71-3.5l.73-.54c.2-.14.38-.28.58-.4.35-.23.71-.45,1.05-.65a8.68,8.68,0,0,1,2.94-1.12,2.82,2.82,0,0,1,.77,0l.77.13L39.6,62.3Z"></path><path class="cls-7" d="M64.91,57.14A24.48,24.48,0,0,1,60,65a31.75,31.75,0,0,1-7.24,6.23l-.43.25a5.94,5.94,0,0,1-.54.29l-.2.11-.74.37,0,.08-2.26,1.28-9-11.34-1.28-1.06.62-.78c.57-.71,1.18-1.4,1.81-2.06a35.58,35.58,0,0,1,8.43-6.95,18.24,18.24,0,0,1,2.58-1.21c.19-.07.37-.14.55-.19a8.4,8.4,0,0,1,1.41-.31,3.63,3.63,0,0,1,1.82.17l.17.08a2.23,2.23,0,0,1,.41.27c.1.08,1.28,1,1.38,1.15.3.4-.61.06-.56.71a7,7,0,0,1-.21,2l-.41,1.67.8-.51,1-.62.88-.53c.32-.19.65-.35,1-.5a8.86,8.86,0,0,1,2.76-.91,3.82,3.82,0,0,1,.58,0h.07a2,2,0,0,1,1.34.49c.11.11,1.21.94,1.3,1.09C66.44,55.05,65.42,55.56,64.91,57.14Z"></path><path class="cls-17" d="M66.18,58.21a24.31,24.31,0,0,1-4.89,7.89,31.58,31.58,0,0,1-7.24,6.23l-.43.25-.53.29-.2.1-.74.38,0,.08L40.56,80l-5.62,3.18L17,93.36c-.18.11-.37.21-.54.3s-.54.27-.79.37a7.24,7.24,0,0,1-1.93.58c-2,.24-2.72-1.19-1.86-3.83a14,14,0,0,1,1-2.24,23.64,23.64,0,0,1,2.72-4c.2-.25.41-.5.62-.74A27.62,27.62,0,0,1,23,78.05l.7-.36.89-.44.05-.77A6.4,6.4,0,0,1,24.92,75,20.22,20.22,0,0,1,29,68.39a27.87,27.87,0,0,1,3.72-3.5c.43-.34.87-.65,1.31-.94s.7-.45,1-.65a8.48,8.48,0,0,1,3-1.12,2.42,2.42,0,0,1,.76,0l.76.12.63-.78a38.44,38.44,0,0,1,10.24-9A17.74,17.74,0,0,1,53,51.31c.19-.07.37-.14.55-.19A8.39,8.39,0,0,1,55,50.8a3.92,3.92,0,0,1,1.83.17l.17.08a2.43,2.43,0,0,1,1.22,2.13,7.06,7.06,0,0,1-.21,2l-.39,1.67.79-.5,1-.63.88-.54c.32-.18.64-.35.95-.49A9,9,0,0,1,64,53.83a2.93,2.93,0,0,1,.58,0h.08C66.51,53.88,67.07,55.48,66.18,58.21Z"></path><path class="cls-18" d="M36.33,68.66c.44-1.8-1-5.09-1.21-5.35s-2.91,0-2.91,0c.2-.15.38-.28.58-.41.35-.23.71-.44,1.05-.64a8.25,8.25,0,0,1,2.95-1.12,2.75,2.75,0,0,1,.76,0l.77.12.62-.78c.58-.7,1.18-1.4,1.81-2.06l20.66-2.09L35.9,70.49Z"></path><path class="cls-11" d="M71.32,43.62h0a4.71,4.71,0,0,0-1.47-.18,15.46,15.46,0,0,0-8.66,1.84l-28,15.33c4.35-1.06,6,.85,6,.85h0c1.38,1.29,2.41,3.58,2.8,7.22L75,50C74.57,46,73.17,44.18,71.32,43.62Z"></path><path class="cls-19" d="M71.84,43.3h0a4.43,4.43,0,0,0-1.47-.18A15.3,15.3,0,0,0,61.68,45l-28,15.33c4.35-1.06,6,.84,6,.84h0c1.38,1.28,2.41,3.57,2.8,7.21L75.51,49.64C75.09,45.7,73.69,43.85,71.84,43.3Z"></path><polygon class="cls-20" points="47.19 21.45 52.08 24.3 36 44.79 24.57 34.51 47.19 21.45"></polygon><polygon class="cls-21" points="29.46 31.69 29.46 18.22 42.3 10.81 34.35 34.53 29.46 31.69"></polygon><polygon class="cls-21" points="24.57 34.51 36 44.79 40.89 47.63 29.46 37.36 24.57 34.51"></polygon><polygon class="cls-20" points="34.35 21.07 29.46 18.22 42.3 10.81 47.19 13.66 34.35 21.07"></polygon><polygon class="cls-20" points="34.35 10.25 29.46 7.41 42.3 0 47.19 2.84 34.35 10.25"></polygon><polygon class="cls-21" points="29.46 14.2 29.46 7.41 34.35 10.25 34.35 17.04 29.46 14.2"></polygon><polygon class="cls-22" points="34.35 39.26 34.35 21.07 47.19 13.66 47.19 31.85 34.35 39.26"></polygon><polygon class="cls-22" points="34.35 17.04 34.35 10.25 47.19 2.84 47.19 9.63 34.35 17.04"></polygon><polygon class="cls-22" points="52.08 24.3 40.89 47.63 29.46 37.36 52.08 24.3"></polygon></g></g></g></svg>