<svg xmlns="http://www.w3.org/2000/svg" xmlns:xlink="http://www.w3.org/1999/xlink" viewBox="0 0 70.05 75.85"><defs><style>.cls-1{isolation:isolate;}.cls-2{fill:url(#Ѕезым_нный_градиент_3605);}.cls-3{fill:url(#Ѕезым_нный_градиент_3605-2);}.cls-4{fill:#52a5ea;}.cls-5{fill:url(#Ѕезым_нный_градиент_3605-3);}.cls-6{fill:url(#Ѕезым_нный_градиент_3605-4);}.cls-7{fill:#dcffff;}.cls-8{fill:#cff2ff;}.cls-9{fill:#aacdec;}.cls-10{fill:#428bd0;}.cls-11{fill:#6eced8;mix-blend-mode:multiply;}.cls-12{fill:#d16f00;}.cls-13{fill:#f0bf5c;}.cls-14{fill:#ffcf47;}.cls-15{fill:#969fff;}.cls-16{fill:#d8dbff;}.cls-17{fill:#9aa2ff;}.cls-18{fill:#c2c7ff;}.cls-19{fill:#e1e6ff;}.cls-20{fill:#ffe568;}.cls-21{fill:#ffd35e;}.cls-22{fill:#658c00;}.cls-23{fill:#416d00;}.cls-24{fill:#baeb34;}.cls-25{fill:#cdff6e;}</style><linearGradient id="&#x405;&#x435;&#x437;&#x44B;&#x43C;_&#x43D;&#x43D;&#x44B;&#x439;_&#x433;&#x440;&#x430;&#x434;&#x438;&#x435;&#x43D;&#x442;_3605" x1="55.86" y1="15.96" x2="60.63" y2="7.7" gradientUnits="userSpaceOnUse"><stop offset="0" stop-color="#5bbaf2"></stop><stop offset="0.05" stop-color="#61caf2"></stop><stop offset="0.09" stop-color="#6cccf6"></stop><stop offset="0.17" stop-color="#7dcefd"></stop><stop offset="0.23" stop-color="#83cfff"></stop><stop offset="0.43" stop-color="#83cfff"></stop><stop offset="0.66" stop-color="#9ee6ff"></stop></linearGradient><linearGradient id="&#x405;&#x435;&#x437;&#x44B;&#x43C;_&#x43D;&#x43D;&#x44B;&#x439;_&#x433;&#x440;&#x430;&#x434;&#x438;&#x435;&#x43D;&#x442;_3605-2" x1="9.89" y1="61.24" x2="29.96" y2="26.47" xlink:href="#&#x405;&#x435;&#x437;&#x44B;&#x43C;_&#x43D;&#x43D;&#x44B;&#x439;_&#x433;&#x440;&#x430;&#x434;&#x438;&#x435;&#x43D;&#x442;_3605"></linearGradient><linearGradient id="&#x405;&#x435;&#x437;&#x44B;&#x43C;_&#x43D;&#x43D;&#x44B;&#x439;_&#x433;&#x440;&#x430;&#x434;&#x438;&#x435;&#x43D;&#x442;_3605-3" x1="31.82" y1="33.71" x2="49.54" y2="3.02" xlink:href="#&#x405;&#x435;&#x437;&#x44B;&#x43C;_&#x43D;&#x43D;&#x44B;&#x439;_&#x433;&#x440;&#x430;&#x434;&#x438;&#x435;&#x43D;&#x442;_3605"></linearGradient><linearGradient id="&#x405;&#x435;&#x437;&#x44B;&#x43C;_&#x43D;&#x43D;&#x44B;&#x439;_&#x433;&#x440;&#x430;&#x434;&#x438;&#x435;&#x43D;&#x442;_3605-4" x1="17.86" y1="36.95" x2="30.07" y2="15.8" xlink:href="#&#x405;&#x435;&#x437;&#x44B;&#x43C;_&#x43D;&#x43D;&#x44B;&#x439;_&#x433;&#x440;&#x430;&#x434;&#x438;&#x435;&#x43D;&#x442;_3605"></linearGradient></defs><title>cloud-storage</title><g class="cls-1"><g id="&#x421;&#x43B;&#x43E;&#x439;_2" data-name="&#x421;&#x43B;&#x43E;&#x439; 2"><g id="_1" data-name="1"><path class="cls-2" d="M56.44,16.25a16.45,16.45,0,0,0,5.29,2.16,13.53,13.53,0,0,0,2.16.36,17,17,0,0,0,.38-2.88c3.3,0,2.64-4.56,2.64-4.56l-8.29-4.5a5.06,5.06,0,0,0-.68-.4h0c-1.78-.86-4.1-.75-6.66.48C49.91,9.49,54.21,14.7,56.44,16.25Z"></path><path class="cls-3" d="M12.8,57.81,40.64,41.74c-2.39-2.27-4.69-4.63-7.12-6.85-3.14-2.88-6.43-5.61-9.36-8.7-2-2.13-6.56-5.78-8.51-8-3,3.49-5,8.22-5,12.32A10,10,0,0,0,10.94,33c-.29.14-.58.29-.88.46C4.51,36.61,0,44.39,0,50.76c0,3.15,1.1,5.36,2.87,6.42h0l.06,0H3l8.62,4.71,1.35-3.81-.81,0C12.35,58.06,12.58,57.94,12.8,57.81Z"></path><path class="cls-4" d="M41.7,41.12l.4-.23-3.74-3C39.47,39,40.58,40.06,41.7,41.12Z"></path><path class="cls-5" d="M60.83,19.37c-2.08-.63-4.42-1.4-6-2.95A8.45,8.45,0,0,1,52.53,9a6.49,6.49,0,0,0-.55.36A12.42,12.42,0,0,0,51.55,7a6.79,6.79,0,0,0,2.39-1.39L45.42.91,45.33.86l0,0h0c-2.42-1.35-5.75-1.12-9.43,1C31.7,4.25,28,8.59,25.51,13.43A7.3,7.3,0,0,0,20,14.52a16.22,16.22,0,0,0-3.52,2.82c2.15,2.42,6.85,6.32,9.13,8.62.44.45.89.89,1.35,1.33a.56.56,0,0,1,.35.13C32.59,31.68,37.84,36,43.18,40.27L52,35.15v0c.32-.15.65-.32,1-.51,4.88-2.82,9-8.78,10.61-14.67A14.91,14.91,0,0,1,60.83,19.37Z"></path><path class="cls-6" d="M20,14.52c-5.13,3-9.29,10.13-9.29,16A10,10,0,0,0,10.94,33l8.5,4.64C41.33,40.82,34,18.08,34,18.08l-8.5-4.65A7.3,7.3,0,0,0,20,14.52Z"></path><path class="cls-7" d="M70.05,18.48c0,7.15-5,15.85-11.27,19.45l-.67.36-.31.15v.05L43.31,46.86l-6.16,3.55L18.56,61.15a11.77,11.77,0,0,1-1.69.81c-4.75,1.82-8.37-.84-8.37-6.55C8.5,49,13,41.26,18.56,38.05c.3-.17.59-.32.88-.46a10,10,0,0,1-.28-2.42c0-5.39,3.51-11.88,8-15.19.41-.3.83-.57,1.25-.82A7.29,7.29,0,0,1,34,18.08c2.46-4.85,6.19-9.19,10.36-11.6a13.93,13.93,0,0,1,4-1.6,7.69,7.69,0,0,1,5.17.46C55.87,6.49,57.42,9,57.74,12.7c.34-.23.69-.45,1-.65a9.29,9.29,0,0,1,6.15-1.45C68,11.12,70.05,13.94,70.05,18.48Z"></path><path class="cls-8" d="M68.69,18.48a21.45,21.45,0,0,1-3.12,10.38,22,22,0,0,1-7,7.61l-.46.28-.59.32-.23.11-.84.41v.12L43.76,45,37.6,48.58,17.88,60q-.3.18-.6.33a8.74,8.74,0,0,1-.9.39,6.52,6.52,0,0,1-2.34.48c-2.62,0-4.18-2.15-4.18-5.77a14.05,14.05,0,0,1,.34-3,20.05,20.05,0,0,1,1.91-5.22c.16-.32.34-.63.52-.94a19.15,19.15,0,0,1,6.61-7l.78-.4,1-.47-.26-1.08a8.57,8.57,0,0,1-.24-2.09,17.6,17.6,0,0,1,2.67-8.66,19.42,19.42,0,0,1,3.47-4.33A12.61,12.61,0,0,1,28,21.08c.37-.27.75-.52,1.12-.74a7.11,7.11,0,0,1,3.48-1.09,4.21,4.21,0,0,1,1,.13l1.08.31.5-1a27,27,0,0,1,9.83-11A13.67,13.67,0,0,1,48,6.38a5.83,5.83,0,0,1,.66-.17A7.8,7.8,0,0,1,50.4,6a5.66,5.66,0,0,1,2.53.56l.27.14A6,6,0,0,1,55.77,10a10.63,10.63,0,0,1,.62,2.87l.2,2.31.84-.58,1.07-.72c.34-.23.66-.43,1-.61a10.61,10.61,0,0,1,1.07-.53,8.07,8.07,0,0,1,3.31-.83,4.81,4.81,0,0,1,.77.06l.1,0C67.24,12.37,68.69,14.75,68.69,18.48Z"></path><path class="cls-9" d="M52.34,6.52l.27.14c1.81,1,2.93,3.19,3.19,6.12L56,14.72l.63.41-.2-2.31C56.13,9.89,55,7.74,53.2,6.7l-.27-.14A5.49,5.49,0,0,0,50.58,6,5.19,5.19,0,0,1,52.34,6.52Z"></path><path class="cls-9" d="M64.7,11.94l-.1,0a5.21,5.21,0,0,0-.7-.06l.11,0h.1c2.54.44,4,2.82,4,6.55A21.38,21.38,0,0,1,65,28.81a21.94,21.94,0,0,1-7,7.62l-.46.28c-.21.12-.41.23-.6.32l-.22.11-.84.41v.11L43.17,45,37,48.54,17.29,59.93l-.6.32c-.3.15-.6.28-.9.4a6.71,6.71,0,0,1-2.33.47h0a4.07,4.07,0,0,0,.61.05,6.47,6.47,0,0,0,2.33-.48,8.85,8.85,0,0,0,.9-.4l.6-.32L37.6,48.58,43.76,45,56.44,37.7v-.11l.85-.41.22-.11.59-.32.46-.28a21.94,21.94,0,0,0,7-7.62,21.27,21.27,0,0,0,3.12-10.37C68.69,14.75,67.24,12.37,64.7,11.94Z"></path><path class="cls-10" d="M33.05,19.34l1.07.31.06-.11-.54-.16a4.21,4.21,0,0,0-1-.13h0A3.58,3.58,0,0,1,33.05,19.34Z"></path><path class="cls-7" d="M18.56,39.56c.3-.17.59-.32.88-.46a9.51,9.51,0,0,1-.23-1.4c-.21.11-.43.22-.65.35C13,41.26,8.5,49,8.5,55.41c0,.25,0,.5,0,.74C8.86,49.93,13.23,42.64,18.56,39.56Z"></path><path class="cls-7" d="M27.2,21.49a13.26,13.26,0,0,1,1.25-.81A7.26,7.26,0,0,1,34,19.59,28.28,28.28,0,0,1,44.37,8a14.27,14.27,0,0,1,4-1.61,7.63,7.63,0,0,1,5.17.47c2.34,1.14,3.89,3.69,4.21,7.36.34-.23.69-.45,1-.66a9.29,9.29,0,0,1,6.15-1.45c2.91.49,4.89,3,5.1,7.14,0-.26,0-.52,0-.77,0-4.54-2-7.36-5.12-7.88a9.29,9.29,0,0,0-6.15,1.45c-.35.2-.7.42-1,.65C57.42,9,55.87,6.49,53.53,5.34a7.69,7.69,0,0,0-5.17-.46,13.93,13.93,0,0,0-4,1.6C40.2,8.89,36.47,13.23,34,18.08a7.29,7.29,0,0,0-5.56,1.08c-.42.25-.84.52-1.25.82-4.53,3.31-8,9.8-8,15.19q0,.39,0,.75A21,21,0,0,1,27.2,21.49Z"></path><path class="cls-7" d="M64.94,10.59a9.29,9.29,0,0,0-6.15,1.46c-.36.2-.7.42-1,.65-.31-3.67-1.87-6.21-4.2-7.36a7.69,7.69,0,0,0-5.17-.47,14.15,14.15,0,0,0-4,1.61A28.35,28.35,0,0,0,34,18.07a7.36,7.36,0,0,0-5.57,1.09,13.27,13.27,0,0,0-1.24.82c-4.54,3.31-8,9.79-8,15.19a10.54,10.54,0,0,0,.27,2.42c-.29.13-.57.29-.87.45C13,41.25,8.51,49,8.51,55.4c0,5.72,3.61,8.38,8.36,6.56a11.42,11.42,0,0,0,1.7-.82l2.58-1.49,0,0,1.32-.76,2.64-1.53,6.16-3.55,4-2.29,1.9-1.09L41.4,48l1.32-.76.6-.35.72-.41,1.32-.76,4.81-2.78,7.64-4.41v-.06l.31-.15a6.32,6.32,0,0,0,.67-.36C65,34.33,70.05,25.62,70.05,18.48,70.05,13.93,68,11.11,64.94,10.59ZM58.56,36.47l-.46.28-.59.32-.22.11-.84.4v.12l-6.24,3.61L45.36,44.1,44,44.87l-.27.15-1.05.6-1.32.77-3.8,2.19-2.34,1.35-2.64,1.54-1.32.75-6.16,3.55-3.94,2.3h0L17.89,60c-.2.12-.41.23-.61.33a8.74,8.74,0,0,1-.9.39,6.5,6.5,0,0,1-2.33.49c-2.63,0-4.18-2.16-4.18-5.77a14.51,14.51,0,0,1,.33-3,20.09,20.09,0,0,1,1.92-5.24c.16-.31.34-.62.51-.93a19.23,19.23,0,0,1,6.61-7c.27-.14.52-.28.78-.4l1-.48-.27-1.08a9,9,0,0,1-.23-2.09,17.68,17.68,0,0,1,2.66-8.65,19.77,19.77,0,0,1,3.47-4.34A15.71,15.71,0,0,1,28,21.07c.36-.26.74-.52,1.12-.74a7.21,7.21,0,0,1,3.48-1.09,3.7,3.7,0,0,1,1,.14l1.09.31.5-1a26.8,26.8,0,0,1,9.82-11A12.94,12.94,0,0,1,48,6.38a6.74,6.74,0,0,1,.67-.18A8.39,8.39,0,0,1,50.41,6a5.59,5.59,0,0,1,2.52.56,1.47,1.47,0,0,1,.28.14A6,6,0,0,1,55.78,10a11,11,0,0,1,.61,2.87l.2,2.31.85-.59,1.07-.72,1-.6a10.73,10.73,0,0,1,1.07-.54,8.13,8.13,0,0,1,3.31-.82,5,5,0,0,1,.77.06h.1c2.54.44,4,2.82,4,6.54a21.3,21.3,0,0,1-3.13,10.38A21.84,21.84,0,0,1,58.56,36.47Z"></path><polygon class="cls-11" points="51 11.31 50.21 41.31 50.17 42.9 45.37 45.68 44.05 46.44 43.32 46.85 42.73 47.2 41.41 47.96 37.16 50.41 35.26 51.5 31.3 53.8 25.14 57.34 22.5 58.88 21.18 59.63 21.15 59.65 21.2 58.06 21.91 31.27 38.74 21.34 38.81 18.5 51 11.31"></polygon><path class="cls-12" d="M53.56,28.34l.24,16L26.49,61.27l-1-.55-.38-26.4a4.6,4.6,0,0,1,2.3-4.05l14.11-8.14a4.65,4.65,0,0,1,2.29-4.06L50.91,14a1.66,1.66,0,0,1,1-.23,1.9,1.9,0,0,1,.56.17c.08,0,1.15.61,1.23.68s.13.14.09.19-.33.18-.39.45a.69.69,0,0,0,0,.13l.1,7,0,1.94Z"></path><path class="cls-13" d="M27.11,30.45l1,.56,14.37-8.35-1-.55v0L27.38,30.27Z"></path><path class="cls-13" d="M54,14.88l-.6.34-8.82,5.09-2.07-1.14a4.51,4.51,0,0,1,1.27-1.1L50.91,14a1.66,1.66,0,0,1,1-.23l1.88,1Z"></path><path class="cls-14" d="M51.94,14.5l-7.13,4.12a4.6,4.6,0,0,0-2.29,4.06h0L28.41,30.83a4.59,4.59,0,0,0-2.3,4l.38,26.4L54.83,44.91l-.42-29A1.65,1.65,0,0,0,51.94,14.5Z"></path><polygon class="cls-15" points="55.65 15.95 27.02 58.82 27.14 32.2 55.49 15.84 55.65 15.95"></polygon><polygon class="cls-16" points="55.52 42.56 27.18 58.92 27.31 32.31 55.65 15.95 55.52 42.56"></polygon><polygon class="cls-17" points="55.98 42.42 27.18 58.92 27.23 49.4 28.25 33.72 55.59 17.94 55.98 42.42"></polygon><polygon class="cls-18" points="55.98 42.42 27.63 58.78 29.06 33.89 57.41 17.52 55.98 42.42"></polygon><polygon class="cls-15" points="59.6 18.81 28.05 59.09 31.05 35.06 59.39 18.7 59.6 18.81"></polygon><polygon class="cls-19" points="56.6 42.85 28.25 59.21 31.25 35.18 59.6 18.81 56.6 42.85"></polygon><polygon class="cls-17" points="28.26 59.2 53.94 44.37 57.28 29.45 59.15 21.33 47.25 28.2 46.77 30.03 30.75 39.25 30.32 42.69 28.26 59.2"></polygon><path class="cls-12" d="M59.91,23.52a.72.72,0,0,0-.39.44l-.24,1.09L58.18,30,54.83,44.9,44.27,51,27.46,62l-1-.76,1.43-5.48L31.7,41.35a4.59,4.59,0,0,1,2.15-2.8l13.81-8L48,29.13a4.48,4.48,0,0,1,2.17-2.95l6.92-4a1.53,1.53,0,0,1,.8-.23,1.72,1.72,0,0,1,.91.26,9.85,9.85,0,0,1,1.23,1C60.16,23.35,60.05,23.43,59.91,23.52Z"></path><path class="cls-13" d="M33.85,38.55a4.39,4.39,0,0,0-.56.4l1,.72,14.37-8.35-1-.74Z"></path><path class="cls-13" d="M59.91,23.52a.72.72,0,0,0-.39.44l-.24,1.09-7.92,4.57-2.68-2.07a4.45,4.45,0,0,1,1.49-1.37l6.92-4a1.53,1.53,0,0,1,.8-.23Z"></path><path class="cls-20" d="M58.07,22.93a1.65,1.65,0,0,1,2.43,1.79l-1.35,6L55.8,45.66l-10.56,6.1L35,57.65,27.46,62l1.43-5.48,3.79-14.44a4.56,4.56,0,0,1,2.14-2.81l13.82-8L49,29.88a4.57,4.57,0,0,1,2.18-2.95Z"></path><path class="cls-21" d="M59.15,30.74,55.81,45.66,27.46,62l1.44-5.47C34.54,46.08,50.66,35.6,59.15,30.74Z"></path><polygon class="cls-12" points="50.1 44.53 46.22 46.74 45.24 51.76 35.04 57.65 36.02 52.59 32.13 54.82 43.69 35.92 50.1 44.53"></polygon><polygon class="cls-22" points="52.96 60.77 57.32 63.31 45.88 69.91 41.52 67.38 52.96 60.77"></polygon><polygon class="cls-23" points="45.88 57.45 45.87 66.32 41.52 63.79 41.52 54.91 45.88 57.45"></polygon><polygon class="cls-22" points="41.52 60.76 37.16 58.23 47.14 37.43 51.49 39.97 41.52 60.76"></polygon><polygon class="cls-23" points="45.88 69.91 45.87 75.85 41.52 73.32 41.52 67.38 45.88 69.91"></polygon><polygon class="cls-24" points="57.32 47.43 57.31 59.72 45.87 66.32 45.88 54.03 57.32 47.43"></polygon><polygon class="cls-24" points="57.32 63.31 57.31 69.25 45.87 75.85 45.88 69.91 57.32 63.31"></polygon><polygon class="cls-25" points="41.52 60.76 51.49 39.97 61.67 49.12 41.52 60.76"></polygon><polygon class="cls-24" points="41.52 60.76 51.83 40.93 61.67 49.12 41.52 60.76"></polygon></g></g></g></svg>