<svg xmlns="http://www.w3.org/2000/svg" viewBox="0 0 64 64" width="512" height="512"><g id="Cloud_Security" data-name="Cloud Security"><path d="M32,38a3.992,3.992,0,0,0-1,7.858V51h2V45.858A3.992,3.992,0,0,0,32,38Zm0,6a2,2,0,1,1,2-2A2,2,0,0,1,32,44Z"></path><path d="M60,52.184V45a1,1,0,0,0-1-1H54V39a8,8,0,0,0,0-16h-.885A13.8,13.8,0,0,0,55,16a13.992,13.992,0,0,0-27.414-3.958A10.994,10.994,0,0,0,9,20a10.887,10.887,0,0,0,.424,3.021A8,8,0,0,0,10,39v4H5a1,1,0,0,0-1,1V56.184a3,3,0,1,0,2,0V45h5a1,1,0,0,0,1-1V39h6V53a3,3,0,0,0,3,3H43a3,3,0,0,0,3-3V39h6v6a1,1,0,0,0,1,1h5v6.184a3,3,0,1,0,2,0ZM5,60a1,1,0,1,1,1-1A1,1,0,0,1,5,60Zm39-7a1,1,0,0,1-1,1H21a1,1,0,0,1-1-1V36a1,1,0,0,1,1-1H43a1,1,0,0,1,1,1ZM39,33H37V24a3,3,0,0,0-3-3H30a3,3,0,0,0-3,3v9H25V22a3,3,0,0,1,3-3h8a3,3,0,0,1,3,3Zm-4,0H29V24a1,1,0,0,1,1-1h4a1,1,0,0,1,1,1Zm8,0H41V22a5.006,5.006,0,0,0-5-5H28a5.006,5.006,0,0,0-5,5V33H21a3,3,0,0,0-3,3v1H10a6,6,0,0,1,0-12h.84a1,1,0,0,0,.915-1.4A8.9,8.9,0,0,1,11,20a9,9,0,0,1,16.326-5.22,1,1,0,0,0,1.8-.442A11.992,11.992,0,0,1,53,16a11.874,11.874,0,0,1-2.558,7.384A1,1,0,0,0,51.23,25H54a6,6,0,0,1,0,12H46V36A3,3,0,0,0,43,33ZM59,56a1,1,0,1,1,1-1A1,1,0,0,1,59,56Z"></path></g></svg>