<svg xmlns="http://www.w3.org/2000/svg" height="512" viewBox="0 0 64 64" width="512"><g id="consumer"><path d="m62 31a8.009 8.009 0 0 0 -8-8h-.885a13.805 13.805 0 0 0 1.885-7 13.992 13.992 0 0 0 -27.414-3.958 11 11 0 0 0 -18.162 10.979 8 8 0 0 0 -.44 15.907 9 9 0 1 0 16.066.072h13.9a8.921 8.921 0 0 0 -.95 4 9 9 0 1 0 17.016-4.072 8.006 8.006 0 0 0 6.984-7.928zm-45 19a7 7 0 1 1 7-7 7.008 7.008 0 0 1 -7 7zm30 0a7 7 0 1 1 7-7 7.008 7.008 0 0 1 -7 7zm7-13h-.311a8.957 8.957 0 0 0 -13.378 0h-16.622a8.957 8.957 0 0 0 -13.378 0h-.311a6 6 0 0 1 0-12h.84a1 1 0 0 0 .916-1.4 8.885 8.885 0 0 1 -.756-3.6 9 9 0 0 1 16.325-5.22 1 1 0 0 0 1.8-.442 11.992 11.992 0 0 1 23.875 1.662 11.879 11.879 0 0 1 -2.557 7.384 1 1 0 0 0 .787 1.616h2.77a6 6 0 0 1 0 12z"></path><path d="m41 6v2a8.009 8.009 0 0 1 8 8h2a10.011 10.011 0 0 0 -10-10z"></path><path d="m54 27v2a2 2 0 0 1 2 2h2a4 4 0 0 0 -4-4z"></path><path d="m13 20a6.922 6.922 0 0 0 .587 2.8l1.832-.8a4.946 4.946 0 0 1 -.419-2 5.006 5.006 0 0 1 5-5v-2a7.008 7.008 0 0 0 -7 7z"></path><path d="m48 37h-2v1a2 2 0 0 0 -2 2v2a2 2 0 0 0 2 2h2v2h-4v2h2v1h2v-1a2 2 0 0 0 2-2v-2a2 2 0 0 0 -2-2h-2v-2h4v-2h-2z"></path><path d="m32 22a4 4 0 1 0 4 4 4 4 0 0 0 -4-4zm0 6a2 2 0 1 1 2-2 2 2 0 0 1 -2 2z"></path><path d="m40.242 23.03-.668-.167.355-.591a1 1 0 0 0 -.151-1.222l-2.829-2.828a1 1 0 0 0 -1.221-.151l-.591.355-.167-.668a1 1 0 0 0 -.97-.758h-4a1 1 0 0 0 -.97.758l-.167.668-.591-.355a1 1 0 0 0 -1.221.151l-2.829 2.828a1 1 0 0 0 -.151 1.222l.355.591-.668.167a1 1 0 0 0 -.758.97v4a1 1 0 0 0 .758.97l.668.167-.355.591a1 1 0 0 0 .151 1.222l2.829 2.828a1 1 0 0 0 1.221.151l.591-.355.167.668a1 1 0 0 0 .97.758h4a1 1 0 0 0 .97-.758l.167-.668.591.355a1 1 0 0 0 1.221-.151l2.829-2.828a1 1 0 0 0 .151-1.222l-.355-.591.668-.167a1 1 0 0 0 .758-.97v-4a1 1 0 0 0 -.758-.97zm-1.242 4.189-1.22.3a1 1 0 0 0 -.615 1.485l.647 1.078-1.725 1.725-1.078-.647a1 1 0 0 0 -1.485.615l-.3 1.22h-2.443l-.3-1.22a1 1 0 0 0 -1.485-.615l-1.078.647-1.726-1.725.648-1.078a1 1 0 0 0 -.615-1.485l-1.22-.3v-2.438l1.22-.3a1 1 0 0 0 .615-1.485l-.648-1.078 1.726-1.725 1.078.647a1 1 0 0 0 1.485-.615l.3-1.22h2.438l.3 1.22a1 1 0 0 0 1.485.615l1.078-.647 1.725 1.725-.647 1.078a1 1 0 0 0 .615 1.485l1.22.3z"></path><path d="m46 54h2v4h-2z"></path><path d="m46 60h2v2h-2z"></path><path d="m52 52h2v4h-2z"></path><path d="m52 58h2v2h-2z"></path><path d="m40 52h2v4h-2z"></path><path d="m40 58h2v2h-2z"></path><path d="m18 37h-2v1a2 2 0 0 0 -2 2v2a2 2 0 0 0 2 2h2v2h-4v2h2v1h2v-1a2 2 0 0 0 2-2v-2a2 2 0 0 0 -2-2h-2v-2h4v-2h-2z"></path><path d="m16 54h2v4h-2z"></path><path d="m16 60h2v2h-2z"></path><path d="m22 52h2v4h-2z"></path><path d="m22 58h2v2h-2z"></path><path d="m10 52h2v4h-2z"></path><path d="m10 58h2v2h-2z"></path></g></svg>