<svg xmlns="http://www.w3.org/2000/svg" id="Out_line" height="512" viewBox="0 0 512 512" width="512" data-name="Out line"><path d="m248 448h16v16h-16z"></path><path d="m280 448h16v16h-16z"></path><path d="m312 448h48v16h-48z"></path><path d="m248 384h16v16h-16z"></path><path d="m280 384h16v16h-16z"></path><path d="m312 384h48v16h-48z"></path><path d="m248 320h16v16h-16z"></path><path d="m280 320h16v16h-16z"></path><path d="m312 320h48v16h-48z"></path><path d="m248 256h16v16h-16z"></path><path d="m280 256h16v16h-16z"></path><path d="m312 256h48v16h-48z"></path><path d="m488 224h-272a8.00008 8.00008 0 0 0 -8 8v216h-120a8 8 0 0 1 0-16h80a24 24 0 0 0 0-48h-112a8 8 0 0 1 0-16h96a24.0275 24.0275 0 0 0 24-24v-8a162.32432 162.32432 0 0 0 16.833-.87549l-1.666-15.91308a146.71546 146.71546 0 0 1 -31.167-.11268v-7.09875h16a8.00076 8.00076 0 0 0 5.65723-2.34326l8-8a8.00035 8.00035 0 0 0 2.34277-5.65674v-16h-16v12.68652l-3.31348 3.31348h-20.68652a8.00008 8.00008 0 0 0 -8 8v12.42554c-4.55249-1.03247-9.0603-2.28492-13.47656-3.75659q-1.26819-.42151-2.52344-.86695v-39.802a8.00222 8.00222 0 0 0 -1.59961-4.7998l-22.40039-29.8667v-21.3335a8.00035 8.00035 0 0 0 -2.34277-5.65674l-45.65723-45.65674v-44.11816l4.32959-30.31366a145.48432 145.48432 0 0 1 65.3606-49.21143l-12.34644 18.51923a7.99823 7.99823 0 0 0 -.499 8.01514l8 16a7.99953 7.99953 0 0 0 10.73339 3.57763l26.8418-13.42138 6.26658 6.26611-48 48h-28.68652a8.00008 8.00008 0 0 0 -8 8v24a8.00035 8.00035 0 0 0 2.34277 5.65674l32 32a8.00122 8.00122 0 0 0 11.31446 0l11.92285-11.92285 23.87792 11.93945 6.95215 20.85645a7.99321 7.99321 0 0 0 10.12011 5.05957l24-8-5.06054-15.17872-16.41016 5.47022-5.46973-16.41065a8.00049 8.00049 0 0 0 -4.01172-4.62548l-32-16a7.99987 7.99987 0 0 0 -9.23535 1.49853l-10.34276 10.34274-24-24v-12.686h24a8.00076 8.00076 0 0 0 5.65723-2.34326l56-56a8 8 0 0 0 0-11.31348l-16-16a8.00141 8.00141 0 0 0 -9.23535-1.49853l-24.84376 12.42236-2.34667-4.69238 13.4248-20.13721a7.99754 7.99754 0 0 0 .17383-8.59338 145.0224 145.0224 0 0 1 73.16992 1.78161v26.37427a8.00008 8.00008 0 0 0 8 8h4.90039l-4.49023 13.47021a8.00232 8.00232 0 0 0 1.18945 7.32959l22.40039 29.8667v61.3335a7.99943 7.99943 0 0 0 3.5625 6.65625l24 16a7.99726 7.99726 0 0 0 8.01562.499l8.84376-4.42236 4.42285 8.84473 14.31054-7.15528-8-16a8.00079 8.00079 0 0 0 -10.73339-3.57763l-11.84668 5.92382-16.5752-11.04978v-59.71875a8.00222 8.00222 0 0 0 -1.59961-4.7998l-21.48539-28.64698 6.6748-20.02343a8 8 0 0 0 -7.5898-10.52979h-8v-12.71167a144.25253 144.25253 0 0 1 84.80273 163.0354l15.64454 3.35254a160.11827 160.11827 0 0 0 -207.18165-185.46436 160.05775 160.05775 0 0 0 .20508 303.63819 158.16015 158.16015 0 0 0 25.2666 6.15967q4.58864.73352 9.2627 1.197v8.79323a8.00917 8.00917 0 0 1 -8 8h-96a24 24 0 0 0 0 48h112a8 8 0 0 1 0 16h-80a24 24 0 0 0 0 48h120v24a8.00008 8.00008 0 0 0 8 8h272a8.00008 8.00008 0 0 0 8-8v-256a8.00008 8.00008 0 0 0 -8-8zm-456-48a143.79994 143.79994 0 0 1 8-47.43536v39.43536a8.00035 8.00035 0 0 0 2.34277 5.65674l45.65723 45.65674v20.68652a8.00222 8.00222 0 0 0 1.59961 4.7998l22.40039 29.8667v30.38733a143.79559 143.79559 0 0 1 -80-129.05383zm448 176h-48v-48h48zm-64 0h-192v-48h192zm-192 16h192v48h-192zm208 0h48v48h-48zm48-80h-48v-48h48zm-256-48h192v48h-192zm0 192h192v48h-192zm256 48h-48v-48h48z"></path></svg>