<svg xmlns="http://www.w3.org/2000/svg" viewBox="0 0 55.6 42.4"><defs><style>.cls-1{fill:#37474f;}</style></defs><title>logo</title><g id="&#x421;&#x43B;&#x43E;&#x439;_2" data-name="&#x421;&#x43B;&#x43E;&#x439; 2"><g id="ah-logo"><path id="ah-logo-2" data-name="ah-logo" class="cls-1" d="M46.4,11.6c-5.4,0-8.7,4.6-8.7,4.6V.4c0-.3-.2-.4-.5-.4L31,1.4c-.2,0-.3.2-.3.4V36a3,3,0,0,1-6,0V23.3c0-8.4-3.4-11.6-11.2-11.6-3.7,0-9.1,2.2-11,3a.4.4,0,0,0-.2.4l.6,2.8c.1.2.3.4.5.3,1.5-.5,5.8-1.9,8.9-1.9,3.8,0,5.4,1.6,5.4,5.4v3.1a26.67,26.67,0,0,0-5.4-.8C3.8,24,0,28.7,0,34s4.5,8.4,9.3,8.4a12.85,12.85,0,0,0,9.8-4.1,10.08,10.08,0,0,0,8.5,4.1c4.7,0,10-1.8,10-9.4V22.8a5.52,5.52,0,0,1,2.1-4.1A6.49,6.49,0,0,1,44,17c2.2,0,4.6,1,4.6,4.6v20a.43.43,0,0,0,.4.4h6.2a.43.43,0,0,0,.4-.4V20.9C55.7,15.3,51.7,11.6,46.4,11.6ZM17.6,35a7.32,7.32,0,0,1-6,2.9C8.8,37.9,7,36.3,7,33.3s2.3-5.4,6.9-5.4a12.2,12.2,0,0,1,3.3.6.75.75,0,0,1,.5.7v5.4h0C17.8,34.8,17.7,34.9,17.6,35Z"></path></g></g></svg>