<svg xmlns="http://www.w3.org/2000/svg" viewBox="0 0 282.84 355.89"><defs><style>.cls-1{fill:#b2d3ea;}.cls-2{fill:#396caa;}.cls-3{fill:#5793ce;}.cls-4,.cls-8{fill:#d4ecff;}.cls-5{fill:#fff;}.cls-6{fill:#fafdff;}.cls-7{fill:#173d7a;}.cls-8{opacity:0.4;}</style></defs><title>server-room</title><g id="&#x421;&#x43B;&#x43E;&#x439;_2" data-name="&#x421;&#x43B;&#x43E;&#x439; 2"><g id="_&#x43B;&#x43E;&#x439;_1" data-name="&#x2014;&#x43B;&#x43E;&#x439;_1"><path class="cls-1" d="M257.17,233.59a4.35,4.35,0,0,1-2.26-.62l-13.58-8.14.82-1.37,13.58,8.14a2.79,2.79,0,0,0,2.86,0l22.1-12.92a1.12,1.12,0,0,0,0-1.94L251.2,201l.75-1.41,29.46,15.78a2.67,2.67,0,0,1,1.43,2.34,2.7,2.7,0,0,1-1.34,2.39L259.39,233A4.38,4.38,0,0,1,257.17,233.59Z"></path><path class="cls-1" d="M202.24,355.89a5.76,5.76,0,0,1-2.78-.72L145.27,325a2.5,2.5,0,0,1,0-4.35l24.53-13.84a.82.82,0,0,0,.43-.73.86.86,0,0,0-.42-.75L142.5,289.68a2.45,2.45,0,0,1-.09-4.2l11.15-7.06.85,1.35-11.15,7.06a.87.87,0,0,0-.39.74.83.83,0,0,0,.42.72L170.58,304a2.41,2.41,0,0,1,1.23,2.13,2.44,2.44,0,0,1-1.24,2.13L146,322.05a.9.9,0,0,0,0,1.56l54.19,30.17a4.11,4.11,0,0,0,4.14-.08L225,341a.39.39,0,0,0,.19-.33.43.43,0,0,0-.19-.34l-14.92-9.06.83-1.37L225.82,339a2,2,0,0,1,0,3.39l-20.62,12.68A5.73,5.73,0,0,1,202.24,355.89Z"></path><path class="cls-1" d="M225.65,234.42l-26.13-15.09c-1.6-.92-1.4-2.54.45-3.61l25.23-14.57a7,7,0,0,1,6.26-.26L257.59,216c1.6.93,1.4,2.54-.45,3.61l-25.23,14.57A7,7,0,0,1,225.65,234.42Z"></path><path class="cls-2" d="M266.25,204.49h0V193.2H240.94l-8.75-5.06c-2-1.15-5.52-1-7.84.33l-8.16,4.71H190.85v11.61a2.31,2.31,0,0,0,1.35,2.1l32.72,18.89c2,1.16,5.51,1,7.83-.33l31.6-18.24C265.68,206.42,266.33,205.42,266.25,204.49Z"></path><path class="cls-2" d="M228.55,187.36a8.93,8.93,0,0,0-4.2,1.1l-8.16,4.71H190.85v11.61a2.31,2.31,0,0,0,1.35,2.1l32.72,18.89a7.08,7.08,0,0,0,3.63.77Z"></path><path class="cls-3" d="M193.72,193.16h-2.87v11.61a2.31,2.31,0,0,0,1.35,2.1l1.52.88Z"></path><path class="cls-3" d="M225.42,226a8.86,8.86,0,0,0,6.27-.07V212.75h-6.27Z"></path><path class="cls-4" d="M224.92,214.19,192.2,195.3c-2-1.16-1.76-3.19.56-4.52l31.59-18.24c2.32-1.34,5.83-1.49,7.84-.33l32.72,18.89c2,1.16,1.75,3.19-.56,4.52l-31.6,18.24C230.43,215.2,226.93,215.35,224.92,214.19Z"></path><path class="cls-3" d="M225.51,210.79,198.09,195c-1.68-1-1.47-2.67.47-3.79L225,175.88a7.3,7.3,0,0,1,6.56-.27L259,191.44c1.68,1,1.47,2.67-.47,3.79l-26.48,15.29A7.3,7.3,0,0,1,225.51,210.79Z"></path><path class="cls-4" d="M254.22,207.47a2.92,2.92,0,0,1-1.32,2.29c-.73.42-1.32.08-1.32-.77a2.91,2.91,0,0,1,1.32-2.28C253.63,206.28,254.22,206.63,254.22,207.47Z"></path><path class="cls-4" d="M258.47,205a2.91,2.91,0,0,1-1.32,2.29c-.73.42-1.32.08-1.32-.76a2.92,2.92,0,0,1,1.32-2.29C257.88,203.83,258.47,204.17,258.47,205Z"></path><path class="cls-4" d="M262.72,202.56a2.92,2.92,0,0,1-1.32,2.29c-.73.42-1.32.08-1.32-.76a2.91,2.91,0,0,1,1.32-2.29C262.13,201.37,262.72,201.72,262.72,202.56Z"></path><path class="cls-2" d="M266.25,186.45h0V175.16H240.94l-8.75-5.06c-2-1.16-5.52-1-7.84.33l-8.16,4.71H190.85v11.61a2.31,2.31,0,0,0,1.35,2.1l32.72,18.89c2,1.16,5.51,1,7.83-.33l31.6-18.24C265.68,188.38,266.33,187.38,266.25,186.45Z"></path><path class="cls-2" d="M228.55,169.32a8.93,8.93,0,0,0-4.2,1.1l-8.16,4.71H190.85v11.61a2.31,2.31,0,0,0,1.35,2.1l32.72,18.89a7.08,7.08,0,0,0,3.63.77Z"></path><path class="cls-3" d="M193.72,175.12h-2.87v11.61a2.31,2.31,0,0,0,1.35,2.1l1.52.88Z"></path><path class="cls-3" d="M225.42,208a8.91,8.91,0,0,0,6.27-.07V194.71h-6.27Z"></path><path class="cls-4" d="M224.92,196.15,192.2,177.26c-2-1.16-1.76-3.19.56-4.52l31.59-18.24c2.32-1.34,5.83-1.49,7.84-.33l32.72,18.89c2,1.16,1.75,3.18-.56,4.52l-31.6,18.24C230.43,197.16,226.93,197.31,224.92,196.15Z"></path><path class="cls-3" d="M225.51,192.75l-27.42-15.83c-1.68-1-1.47-2.67.47-3.79L225,157.84a7.3,7.3,0,0,1,6.56-.27L259,173.4c1.68,1,1.47,2.67-.47,3.79l-26.48,15.29A7.3,7.3,0,0,1,225.51,192.75Z"></path><path class="cls-4" d="M254.22,189.43a2.92,2.92,0,0,1-1.32,2.29c-.73.42-1.32.08-1.32-.77a2.94,2.94,0,0,1,1.32-2.29C253.63,188.24,254.22,188.59,254.22,189.43Z"></path><path class="cls-4" d="M258.47,187a2.91,2.91,0,0,1-1.32,2.29c-.73.42-1.32.08-1.32-.76a2.92,2.92,0,0,1,1.32-2.29C257.88,185.79,258.47,186.13,258.47,187Z"></path><path class="cls-4" d="M262.72,184.52a2.92,2.92,0,0,1-1.32,2.29c-.73.42-1.32.08-1.32-.77a2.91,2.91,0,0,1,1.32-2.28C262.13,183.33,262.72,183.68,262.72,184.52Z"></path><path class="cls-2" d="M266.25,168.41h0V157.12l-25.31,0-8.75-5c-2-1.16-5.52-1-7.84.33l-8.16,4.71H190.85v11.61a2.31,2.31,0,0,0,1.35,2.1l32.72,18.89c2,1.16,5.51,1,7.83-.33l31.6-18.24C265.68,170.34,266.33,169.34,266.25,168.41Z"></path><path class="cls-2" d="M228.55,151.28a8.93,8.93,0,0,0-4.2,1.1l-8.16,4.71H190.85v11.61a2.31,2.31,0,0,0,1.35,2.1l32.72,18.89a7.08,7.08,0,0,0,3.63.77Z"></path><path class="cls-3" d="M193.72,157.08h-2.87v11.61a2.31,2.31,0,0,0,1.35,2.1l1.52.87Z"></path><path class="cls-3" d="M225.42,189.92a9,9,0,0,0,6.27-.07V176.67h-6.27Z"></path><path class="cls-4" d="M224.92,178.11,192.2,159.22c-2-1.16-1.76-3.19.56-4.53l31.59-18.24c2.32-1.33,5.83-1.48,7.84-.32L264.91,155c2,1.16,1.75,3.18-.56,4.52l-31.6,18.24C230.43,179.12,226.93,179.27,224.92,178.11Z"></path><path class="cls-5" d="M264.35,157.32l-31.6,18.24c-2.32,1.34-5.82,1.49-7.83.33L192.2,157a3,3,0,0,1-1-.89c-.69,1.11-.38,2.31,1,3.11l32.72,18.89c2,1.16,5.51,1,7.83-.33l31.6-18.24c1.8-1,2.34-2.49,1.56-3.63A4.44,4.44,0,0,1,264.35,157.32Z"></path><path class="cls-4" d="M254.22,171.39a2.94,2.94,0,0,1-1.32,2.29c-.73.42-1.32.08-1.32-.77a2.94,2.94,0,0,1,1.32-2.29C253.63,170.2,254.22,170.54,254.22,171.39Z"></path><path class="cls-4" d="M258.47,168.93a2.92,2.92,0,0,1-1.32,2.29c-.73.42-1.32.08-1.32-.76a2.92,2.92,0,0,1,1.32-2.29C257.88,167.75,258.47,168.09,258.47,168.93Z"></path><path class="cls-4" d="M262.72,166.48a2.94,2.94,0,0,1-1.32,2.29c-.73.42-1.32.08-1.32-.77a2.94,2.94,0,0,1,1.32-2.29C262.13,165.29,262.72,165.63,262.72,166.48Z"></path><path class="cls-3" d="M226.85,166.4l-15.31-8.84c-.94-.55-.82-1.49.27-2.12l14.78-8.54a4.11,4.11,0,0,1,3.67-.15l15.31,8.84c.94.54.82,1.49-.27,2.12l-14.78,8.53A4.08,4.08,0,0,1,226.85,166.4Z"></path><path class="cls-4" d="M228.32,159l-2.12-1.22c-.13-.07-.11-.2,0-.29l2-1.18a.54.54,0,0,1,.51,0l2.12,1.22c.13.07.11.21,0,.29l-2,1.18A.54.54,0,0,1,228.32,159Z"></path><path class="cls-2" d="M211.54,157.56l.05,0a2.1,2.1,0,0,1,.22-.15l14.78-8.54a4.11,4.11,0,0,1,3.67-.15l15.26,8.82c.87-.62.91-1.47,0-2l-15.31-8.84a4.11,4.11,0,0,0-3.67.15l-14.78,8.54C210.72,156.07,210.6,157,211.54,157.56Z"></path><path class="cls-1" d="M166.8,288.55l-56.48-32.2c-2.06-1.19-1.8-3.28.58-4.65l32.49-18.76c2.39-1.38,6-1.53,8.06-.34l56.47,32.2c2.07,1.2,1.81,3.28-.57,4.66l-32.5,18.75C172.47,289.59,168.86,289.74,166.8,288.55Z"></path><path class="cls-2" d="M213,254h0V122.13l-52.41-13.72-9.66-5.57c-2.21-1.28-6.08-1.12-8.64.36l-9,5.2-27.95,0,8.28,127.27a2.49,2.49,0,0,0,1.48,2.31l52.3,39.47c2.22,1.28,6.09,1.12,8.65-.36L210.85,257C212.33,256.09,213,255,213,254Z"></path><path class="cls-4" d="M146.88,102a9.94,9.94,0,0,0-4.63,1.22l-9,5.2-27.95,0V240.57a2.52,2.52,0,0,0,1.48,2.32l60.58,34.54a8,8,0,0,0,4,.86l.62-133Z"></path><path class="cls-3" d="M167.91,277.7a9.85,9.85,0,0,0,6.91-.08V143.7h-6.91Z"></path><path class="cls-4" d="M167.35,145.29l-60.58-34.55c-2.21-1.28-1.93-3.51.62-5l34.86-20.12c2.56-1.48,6.43-1.64,8.64-.36l60.58,34.54c2.22,1.28,1.94,3.52-.62,5L176,144.93C173.44,146.4,169.57,146.56,167.35,145.29Z"></path><path class="cls-6" d="M210.85,122.35,176,142.48c-2.56,1.47-6.43,1.63-8.65.35l-60.58-34.54a3.33,3.33,0,0,1-1.1-1c-.76,1.22-.42,2.55,1.1,3.43l60.58,34.55c2.22,1.27,6.09,1.11,8.65-.36l34.85-20.13c2-1.15,2.6-2.75,1.73-4A4.77,4.77,0,0,1,210.85,122.35Z"></path><path class="cls-7" d="M169.07,131.29l-40.34-23.38c-1-.6-.9-1.65.29-2.34l16.32-9.42a4.48,4.48,0,0,1,4-.16l40.33,23.38c1,.59.91,1.64-.29,2.33l-16.31,9.42A4.52,4.52,0,0,1,169.07,131.29Z"></path><path class="cls-4" d="M147.29,109,145,107.61c-.15-.09-.13-.23,0-.33l2.25-1.3a.59.59,0,0,1,.56,0l2.34,1.35c.14.08.12.22,0,.32l-2.26,1.3A.62.62,0,0,1,147.29,109Z"></path><path class="cls-4" d="M155.1,113.45l-2.34-1.35c-.14-.09-.12-.23,0-.33l2.26-1.3a.59.59,0,0,1,.56,0L158,111.8c.14.08.12.22,0,.32l-2.26,1.3A.62.62,0,0,1,155.1,113.45Z"></path><path class="cls-4" d="M162.91,117.93l-2.34-1.34c-.14-.09-.12-.23,0-.33l2.26-1.3a.59.59,0,0,1,.56,0l2.34,1.35c.14.08.12.22,0,.32l-2.26,1.3A.59.59,0,0,1,162.91,117.93Z"></path><path class="cls-4" d="M170.72,122.42l-2.34-1.34c-.14-.09-.13-.23,0-.33l2.26-1.3a.59.59,0,0,1,.56,0l2.33,1.35c.15.08.13.22,0,.32l-2.25,1.3A.59.59,0,0,1,170.72,122.42Z"></path><path class="cls-3" d="M128.73,107.91l.05,0c.08-.05.15-.11.24-.16l16.32-9.42a4.48,4.48,0,0,1,4-.17l40.29,23.35c1-.68,1-1.61,0-2.16L149.38,96a4.48,4.48,0,0,0-4,.16L129,105.57C127.83,106.26,127.7,107.31,128.73,107.91Z"></path><path class="cls-7" d="M182.8,171.41l22.94-13.13a5.61,5.61,0,0,0,2.33-4.47v-8.2c0-1.72-1-2.51-2.33-1.77L182.8,157a5.61,5.61,0,0,0-2.33,4.47v8.2C180.47,171.36,181.51,172.15,182.8,171.41Z"></path><path class="cls-5" d="M206.87,143.6a2.29,2.29,0,0,1,.59,1.7v8.2a5.62,5.62,0,0,1-2.34,4.47L182.19,171.1a1.67,1.67,0,0,1-1.14.24,1.39,1.39,0,0,0,1.75.07l22.94-13.13a5.61,5.61,0,0,0,2.33-4.47v-8.2C208.07,144.44,207.58,143.72,206.87,143.6Z"></path><path class="cls-2" d="M189.7,162.5l2.1-1.22a1.19,1.19,0,0,0,.51-1v-2.25c0-.37-.22-.55-.51-.38l-2.1,1.21a1.22,1.22,0,0,0-.51,1v2.25C189.19,162.49,189.42,162.66,189.7,162.5Z"></path><path class="cls-5" d="M196.73,158.44l2.11-1.22a1.22,1.22,0,0,0,.51-1V154c0-.37-.23-.55-.51-.38l-2.11,1.21a1.21,1.21,0,0,0-.5,1v2.25C196.23,158.43,196.45,158.6,196.73,158.44Z"></path><path class="cls-7" d="M182.8,230.67l22.94-13.13a5.61,5.61,0,0,0,2.33-4.47v-8.2c0-1.72-1-2.51-2.33-1.77L182.8,216.23a5.61,5.61,0,0,0-2.33,4.47v8.2C180.47,230.62,181.51,231.41,182.8,230.67Z"></path><path class="cls-5" d="M206.87,202.86a2.29,2.29,0,0,1,.59,1.7v8.2a5.62,5.62,0,0,1-2.34,4.47l-22.93,13.13a1.67,1.67,0,0,1-1.14.24,1.39,1.39,0,0,0,1.75.07l22.94-13.13a5.61,5.61,0,0,0,2.33-4.47v-8.2C208.07,203.7,207.58,203,206.87,202.86Z"></path><path class="cls-2" d="M189.7,221.76l2.1-1.22a1.19,1.19,0,0,0,.51-1v-2.25c0-.37-.22-.55-.51-.38l-2.1,1.21a1.22,1.22,0,0,0-.51,1v2.25C189.19,221.75,189.42,221.92,189.7,221.76Z"></path><path class="cls-2" d="M196.73,217.7l2.11-1.22a1.22,1.22,0,0,0,.51-1v-2.25c0-.37-.23-.55-.51-.38l-2.11,1.21a1.21,1.21,0,0,0-.5,1v2.25C196.23,217.69,196.45,217.86,196.73,217.7Z"></path><path class="cls-7" d="M182.8,260.3l22.94-13.13a5.61,5.61,0,0,0,2.33-4.47v-8.2c0-1.72-1-2.51-2.33-1.77L182.8,245.86a5.61,5.61,0,0,0-2.33,4.47v8.2C180.47,260.25,181.51,261,182.8,260.3Z"></path><path class="cls-5" d="M206.87,232.49a2.29,2.29,0,0,1,.59,1.7v8.2a5.62,5.62,0,0,1-2.34,4.47L182.19,260a1.74,1.74,0,0,1-1.14.25,1.4,1.4,0,0,0,1.75.06l22.94-13.13a5.61,5.61,0,0,0,2.33-4.47v-8.2C208.07,233.33,207.58,232.61,206.87,232.49Z"></path><path class="cls-5" d="M189.7,251.39l2.1-1.22a1.19,1.19,0,0,0,.51-1V247c0-.37-.22-.55-.51-.38l-2.1,1.21a1.22,1.22,0,0,0-.51,1V251C189.19,251.38,189.42,251.55,189.7,251.39Z"></path><path class="cls-2" d="M196.73,247.33l2.11-1.22a1.22,1.22,0,0,0,.51-1v-2.25c0-.37-.23-.55-.51-.38l-2.11,1.21a1.21,1.21,0,0,0-.5,1v2.25C196.23,247.32,196.45,247.49,196.73,247.33Z"></path><path class="cls-7" d="M182.8,201l22.94-13.13a5.61,5.61,0,0,0,2.33-4.47v-8.2c0-1.72-1-2.51-2.33-1.77L182.8,186.6a5.61,5.61,0,0,0-2.33,4.47v8.2C180.47,201,181.51,201.78,182.8,201Z"></path><path class="cls-5" d="M206.87,173.23a2.29,2.29,0,0,1,.59,1.7v8.2a5.62,5.62,0,0,1-2.34,4.47l-22.93,13.13a1.67,1.67,0,0,1-1.14.24,1.39,1.39,0,0,0,1.75.07l22.94-13.13a5.61,5.61,0,0,0,2.33-4.47v-8.2C208.07,174.07,207.58,173.35,206.87,173.23Z"></path><path class="cls-5" d="M189.7,192.13l2.1-1.22a1.19,1.19,0,0,0,.51-1v-2.25c0-.37-.22-.55-.51-.38l-2.1,1.21a1.22,1.22,0,0,0-.51,1v2.25C189.19,192.12,189.42,192.29,189.7,192.13Z"></path><path class="cls-5" d="M196.73,188.07l2.11-1.22a1.22,1.22,0,0,0,.51-1v-2.25c0-.37-.23-.55-.51-.38l-2.11,1.21a1.21,1.21,0,0,0-.5,1v2.25C196.23,188.06,196.45,188.23,196.73,188.07Z"></path><path class="cls-3" d="M162.94,163,110,132.46a5.12,5.12,0,0,1-2.14-4.09V118.28c0-1.58,1-2.31,2.14-1.62l52.91,30.54a5.14,5.14,0,0,1,2.15,4.1v10.09C165.09,163,164.13,163.69,162.94,163Z"></path><path class="cls-8" d="M161.42,159.47l-49.87-28.79a2.61,2.61,0,0,1-1.08-2.08V121c0-.8.48-1.17,1.08-.82L161.42,149a2.6,2.6,0,0,1,1.09,2.08v7.58C162.51,159.45,162,159.82,161.42,159.47Z"></path><path class="cls-4" d="M122,132.85l-7.45-4.3a2.54,2.54,0,0,1-1-2h0c0-.78.47-1.13,1-.8L122,130a2.54,2.54,0,0,1,1,2h0C123,132.83,122.53,133.18,122,132.85Z"></path><path class="cls-7" d="M128.29,135.1c0,.78-.55,1.09-1.22.7a2.66,2.66,0,0,1-1.22-2.11c0-.78.54-1.09,1.22-.7A2.7,2.7,0,0,1,128.29,135.1Z"></path><path class="cls-7" d="M132.59,137.58c0,.78-.55,1.1-1.22.71a2.72,2.72,0,0,1-1.22-2.11c0-.78.55-1.1,1.22-.71A2.72,2.72,0,0,1,132.59,137.58Z"></path><path class="cls-4" d="M136.89,140.07c0,.78-.54,1.09-1.22.7a2.7,2.7,0,0,1-1.22-2.11c0-.78.55-1.09,1.22-.7A2.67,2.67,0,0,1,136.89,140.07Z"></path><path class="cls-7" d="M141.2,142.55c0,.78-.55,1.1-1.22.71a2.69,2.69,0,0,1-1.22-2.11c0-.78.54-1.1,1.22-.71A2.72,2.72,0,0,1,141.2,142.55Z"></path><path class="cls-7" d="M159.32,155.25l-2.5-1.45a1.59,1.59,0,0,1-.68-1.29v-2.66c0-.49.3-.72.68-.51l2.5,1.45a1.62,1.62,0,0,1,.68,1.29v2.66C160,155.24,159.7,155.47,159.32,155.25Z"></path><path class="cls-3" d="M162.94,180.8,110,150.25a5.12,5.12,0,0,1-2.14-4.09V136.07c0-1.58,1-2.31,2.14-1.62L162.94,165a5.14,5.14,0,0,1,2.15,4.1v10.09C165.09,180.76,164.13,181.48,162.94,180.8Z"></path><path class="cls-8" d="M161.42,177.26l-49.87-28.79a2.61,2.61,0,0,1-1.08-2.08v-7.58c0-.8.48-1.17,1.08-.82l49.87,28.79a2.6,2.6,0,0,1,1.09,2.08v7.58C162.51,177.24,162,177.61,161.42,177.26Z"></path><path class="cls-4" d="M122,150.64l-7.45-4.3a2.54,2.54,0,0,1-1-2h0c0-.78.47-1.13,1-.8l7.45,4.3a2.54,2.54,0,0,1,1,2h0C123,150.62,122.53,151,122,150.64Z"></path><path class="cls-5" d="M128.29,152.89c0,.78-.55,1.09-1.22.7a2.66,2.66,0,0,1-1.22-2.11c0-.78.54-1.09,1.22-.7A2.7,2.7,0,0,1,128.29,152.89Z"></path><path class="cls-7" d="M132.59,155.37c0,.78-.55,1.1-1.22.71a2.72,2.72,0,0,1-1.22-2.11c0-.78.55-1.1,1.22-.71A2.72,2.72,0,0,1,132.59,155.37Z"></path><path class="cls-4" d="M136.89,157.86c0,.78-.54,1.09-1.22.7a2.7,2.7,0,0,1-1.22-2.11c0-.78.55-1.09,1.22-.7A2.67,2.67,0,0,1,136.89,157.86Z"></path><path class="cls-7" d="M141.2,160.34c0,.78-.55,1.1-1.22.71a2.69,2.69,0,0,1-1.22-2.12c0-.77.54-1.09,1.22-.7A2.72,2.72,0,0,1,141.2,160.34Z"></path><path class="cls-7" d="M159.32,173l-2.5-1.45a1.59,1.59,0,0,1-.68-1.29v-2.66c0-.49.3-.72.68-.51l2.5,1.45a1.62,1.62,0,0,1,.68,1.29v2.66C160,173,159.7,173.26,159.32,173Z"></path><path class="cls-3" d="M162.94,198.59,110,168a5.12,5.12,0,0,1-2.14-4.09V153.86c0-1.58,1-2.31,2.14-1.62l52.91,30.54a5.14,5.14,0,0,1,2.15,4.1V197C165.09,198.55,164.13,199.27,162.94,198.59Z"></path><path class="cls-8" d="M161.42,195.05l-49.87-28.79a2.61,2.61,0,0,1-1.08-2.08V156.6c0-.8.48-1.17,1.08-.82l49.87,28.79a2.6,2.6,0,0,1,1.09,2.08v7.58C162.51,195,162,195.4,161.42,195.05Z"></path><path class="cls-4" d="M122,168.43l-7.45-4.3a2.54,2.54,0,0,1-1-2h0c0-.78.47-1.13,1-.8l7.45,4.3a2.54,2.54,0,0,1,1,2h0C123,168.41,122.53,168.76,122,168.43Z"></path><path class="cls-5" d="M128.29,170.68c0,.78-.55,1.09-1.22.7a2.66,2.66,0,0,1-1.22-2.11c0-.78.54-1.09,1.22-.7A2.7,2.7,0,0,1,128.29,170.68Z"></path><path class="cls-7" d="M132.59,173.16c0,.78-.55,1.1-1.22.71a2.72,2.72,0,0,1-1.22-2.11c0-.78.55-1.1,1.22-.71A2.72,2.72,0,0,1,132.59,173.16Z"></path><path class="cls-4" d="M136.89,175.65c0,.78-.54,1.09-1.22.7a2.7,2.7,0,0,1-1.22-2.11c0-.78.55-1.09,1.22-.7A2.67,2.67,0,0,1,136.89,175.65Z"></path><path class="cls-7" d="M141.2,178.13c0,.78-.55,1.1-1.22.71a2.69,2.69,0,0,1-1.22-2.12c0-.77.54-1.09,1.22-.7A2.72,2.72,0,0,1,141.2,178.13Z"></path><path class="cls-7" d="M159.32,190.83l-2.5-1.45a1.59,1.59,0,0,1-.68-1.29v-2.66c0-.49.3-.72.68-.51l2.5,1.45a1.62,1.62,0,0,1,.68,1.29v2.66C160,190.82,159.7,191.05,159.32,190.83Z"></path><path class="cls-3" d="M162.94,216.38,110,185.83a5.12,5.12,0,0,1-2.14-4.09V171.65c0-1.58,1-2.31,2.14-1.62l52.91,30.54a5.14,5.14,0,0,1,2.15,4.1v10.09C165.09,216.34,164.13,217.06,162.94,216.38Z"></path><path class="cls-8" d="M161.42,212.84l-49.87-28.79a2.61,2.61,0,0,1-1.08-2.08v-7.58c0-.8.48-1.17,1.08-.82l49.87,28.79a2.59,2.59,0,0,1,1.09,2.08V212C162.51,212.82,162,213.19,161.42,212.84Z"></path><path class="cls-4" d="M122,186.22l-7.45-4.3a2.54,2.54,0,0,1-1-2h0c0-.78.47-1.13,1-.8l7.45,4.3a2.54,2.54,0,0,1,1,2h0C123,186.2,122.53,186.55,122,186.22Z"></path><path class="cls-7" d="M128.29,188.47c0,.78-.55,1.09-1.22.7a2.66,2.66,0,0,1-1.22-2.11c0-.78.54-1.09,1.22-.7A2.7,2.7,0,0,1,128.29,188.47Z"></path><path class="cls-7" d="M132.59,191c0,.78-.55,1.1-1.22.71a2.72,2.72,0,0,1-1.22-2.11c0-.78.55-1.1,1.22-.71A2.72,2.72,0,0,1,132.59,191Z"></path><path class="cls-4" d="M136.89,193.44c0,.78-.54,1.09-1.22.7a2.7,2.7,0,0,1-1.22-2.11c0-.78.55-1.09,1.22-.7A2.67,2.67,0,0,1,136.89,193.44Z"></path><path class="cls-7" d="M141.2,195.92c0,.78-.55,1.1-1.22.71a2.69,2.69,0,0,1-1.22-2.12c0-.77.54-1.09,1.22-.7A2.72,2.72,0,0,1,141.2,195.92Z"></path><path class="cls-4" d="M159.32,208.62l-2.5-1.45a1.59,1.59,0,0,1-.68-1.29v-2.66c0-.49.3-.72.68-.51l2.5,1.45a1.62,1.62,0,0,1,.68,1.29v2.66C160,208.61,159.7,208.84,159.32,208.62Z"></path><path class="cls-3" d="M162.94,234.17,110,203.62a5.12,5.12,0,0,1-2.14-4.09V189.44c0-1.58,1-2.31,2.14-1.62l52.91,30.54a5.14,5.14,0,0,1,2.15,4.1v10.09C165.09,234.13,164.13,234.85,162.94,234.17Z"></path><path class="cls-8" d="M161.42,230.63l-49.87-28.79a2.61,2.61,0,0,1-1.08-2.08v-7.58c0-.8.48-1.17,1.08-.82l49.87,28.79a2.59,2.59,0,0,1,1.09,2.08v7.58C162.51,230.61,162,231,161.42,230.63Z"></path><path class="cls-4" d="M122,204l-7.45-4.3a2.54,2.54,0,0,1-1-2h0c0-.78.47-1.13,1-.8l7.45,4.3a2.54,2.54,0,0,1,1,2h0C123,204,122.53,204.34,122,204Z"></path><path class="cls-7" d="M128.29,206.26c0,.78-.55,1.09-1.22.7a2.66,2.66,0,0,1-1.22-2.11c0-.78.54-1.09,1.22-.7A2.7,2.7,0,0,1,128.29,206.26Z"></path><path class="cls-5" d="M132.59,208.74c0,.78-.55,1.1-1.22.71a2.72,2.72,0,0,1-1.22-2.11c0-.78.55-1.1,1.22-.71A2.72,2.72,0,0,1,132.59,208.74Z"></path><path class="cls-4" d="M136.89,211.23c0,.78-.54,1.09-1.22.7a2.7,2.7,0,0,1-1.22-2.11c0-.78.55-1.09,1.22-.7A2.67,2.67,0,0,1,136.89,211.23Z"></path><path class="cls-5" d="M141.2,213.71c0,.78-.55,1.1-1.22.71a2.69,2.69,0,0,1-1.22-2.12c0-.77.54-1.09,1.22-.7A2.72,2.72,0,0,1,141.2,213.71Z"></path><path class="cls-4" d="M159.32,226.41l-2.5-1.45a1.59,1.59,0,0,1-.68-1.29V221c0-.5.3-.72.68-.51l2.5,1.45a1.62,1.62,0,0,1,.68,1.29v2.66C160,226.4,159.7,226.63,159.32,226.41Z"></path><path class="cls-3" d="M162.94,252,110,221.41a5.12,5.12,0,0,1-2.14-4.09V207.23c0-1.58,1-2.31,2.14-1.62l52.91,30.54a5.14,5.14,0,0,1,2.15,4.1v10.09C165.09,251.92,164.13,252.64,162.94,252Z"></path><path class="cls-8" d="M161.42,248.42l-49.87-28.79a2.61,2.61,0,0,1-1.08-2.08V210c0-.8.48-1.17,1.08-.82l49.87,28.79a2.59,2.59,0,0,1,1.09,2.08v7.58C162.51,248.4,162,248.77,161.42,248.42Z"></path><path class="cls-4" d="M122,221.8l-7.45-4.3a2.54,2.54,0,0,1-1-2h0c0-.78.47-1.13,1-.8L122,219a2.54,2.54,0,0,1,1,2h0C123,221.78,122.53,222.13,122,221.8Z"></path><path class="cls-7" d="M128.29,224.05c0,.78-.55,1.09-1.22.7a2.66,2.66,0,0,1-1.22-2.11c0-.78.54-1.09,1.22-.7A2.7,2.7,0,0,1,128.29,224.05Z"></path><path class="cls-7" d="M132.59,226.53c0,.78-.55,1.1-1.22.71a2.72,2.72,0,0,1-1.22-2.11c0-.78.55-1.1,1.22-.71A2.72,2.72,0,0,1,132.59,226.53Z"></path><path class="cls-4" d="M136.89,229c0,.78-.54,1.09-1.22.7a2.7,2.7,0,0,1-1.22-2.11c0-.78.55-1.09,1.22-.7A2.67,2.67,0,0,1,136.89,229Z"></path><path class="cls-7" d="M141.2,231.5c0,.78-.55,1.1-1.22.71a2.69,2.69,0,0,1-1.22-2.12c0-.77.54-1.09,1.22-.7A2.72,2.72,0,0,1,141.2,231.5Z"></path><path class="cls-7" d="M159.32,244.2l-2.5-1.45a1.59,1.59,0,0,1-.68-1.29V238.8c0-.5.3-.72.68-.51l2.5,1.45A1.62,1.62,0,0,1,160,241v2.66C160,244.19,159.7,244.42,159.32,244.2Z"></path><path class="cls-3" d="M162.94,269.75,110,239.2a5.12,5.12,0,0,1-2.14-4.09V225c0-1.58,1-2.31,2.14-1.62l52.91,30.54a5.14,5.14,0,0,1,2.15,4.1v10.09C165.09,269.71,164.13,270.43,162.94,269.75Z"></path><path class="cls-8" d="M161.42,266.21l-49.87-28.79a2.61,2.61,0,0,1-1.08-2.08v-7.58c0-.8.48-1.17,1.08-.82l49.87,28.79a2.59,2.59,0,0,1,1.09,2.08v7.58C162.51,266.19,162,266.56,161.42,266.21Z"></path><path class="cls-4" d="M122,239.59l-7.45-4.3a2.54,2.54,0,0,1-1-2h0c0-.78.47-1.13,1-.8l7.45,4.3a2.54,2.54,0,0,1,1,2h0C123,239.57,122.53,239.92,122,239.59Z"></path><path class="cls-5" d="M128.29,241.84c0,.78-.55,1.09-1.22.7a2.66,2.66,0,0,1-1.22-2.11c0-.78.54-1.09,1.22-.7A2.7,2.7,0,0,1,128.29,241.84Z"></path><path class="cls-7" d="M132.59,244.32c0,.78-.55,1.1-1.22.71a2.72,2.72,0,0,1-1.22-2.11c0-.78.55-1.1,1.22-.71A2.72,2.72,0,0,1,132.59,244.32Z"></path><path class="cls-4" d="M136.89,246.81c0,.78-.54,1.09-1.22.7a2.7,2.7,0,0,1-1.22-2.11c0-.78.55-1.09,1.22-.7A2.66,2.66,0,0,1,136.89,246.81Z"></path><path class="cls-7" d="M141.2,249.29c0,.78-.55,1.1-1.22.71a2.69,2.69,0,0,1-1.22-2.12c0-.77.54-1.09,1.22-.7A2.72,2.72,0,0,1,141.2,249.29Z"></path><path class="cls-4" d="M159.32,262l-2.5-1.45a1.59,1.59,0,0,1-.68-1.29v-2.66c0-.5.3-.72.68-.51l2.5,1.45a1.6,1.6,0,0,1,.68,1.29v2.66C160,262,159.7,262.21,159.32,262Z"></path><path class="cls-3" d="M147.55,107.7a.8.8,0,0,1-.8-.8V74a.8.8,0,0,1,1.6,0V106.9A.8.8,0,0,1,147.55,107.7Z"></path><rect class="cls-3" x="144.7" y="71.95" width="5.71" height="12.33"></rect><path class="cls-3" d="M149.57,85.44a4.43,4.43,0,0,1-4,0,1.23,1.23,0,0,1,0-2.33,4.49,4.49,0,0,1,4,0A1.23,1.23,0,0,1,149.57,85.44Z"></path><rect class="cls-3" x="142.92" y="54.76" width="9.26" height="19.34"></rect><path class="cls-2" d="M144.7,74v4.17a7.35,7.35,0,0,0,5.71,0V74A7.35,7.35,0,0,0,144.7,74Z"></path><path class="cls-3" d="M150.83,76a7.2,7.2,0,0,1-6.55,0c-1.81-1-1.81-2.73,0-3.78a7.27,7.27,0,0,1,6.55,0C152.63,73.26,152.63,75,150.83,76Z"></path><path class="cls-3" d="M155.36,112.37a.8.8,0,0,1-.8-.8V78.68a.8.8,0,1,1,1.6,0v32.89A.8.8,0,0,1,155.36,112.37Z"></path><rect class="cls-3" x="152.5" y="76.61" width="5.71" height="12.33"></rect><path class="cls-3" d="M157.38,90.11a4.49,4.49,0,0,1-4,0,1.23,1.23,0,0,1,0-2.34,4.49,4.49,0,0,1,4,0A1.23,1.23,0,0,1,157.38,90.11Z"></path><rect class="cls-3" x="150.73" y="59.43" width="9.26" height="19.34"></rect><path class="cls-2" d="M152.5,78.64v4.17a7.37,7.37,0,0,0,5.72,0V78.64A7.37,7.37,0,0,0,152.5,78.64Z"></path><path class="cls-3" d="M158.63,80.65a7.18,7.18,0,0,1-6.54,0c-1.81-1-1.81-2.73,0-3.78a7.21,7.21,0,0,1,6.54,0C160.44,77.92,160.44,79.61,158.63,80.65Z"></path><path class="cls-3" d="M163.17,117a.8.8,0,0,1-.8-.8V83.34a.8.8,0,1,1,1.6,0v32.89A.8.8,0,0,1,163.17,117Z"></path><rect class="cls-3" x="160.31" y="81.27" width="5.71" height="12.33"></rect><path class="cls-3" d="M165.19,94.77a4.49,4.49,0,0,1-4,0,1.23,1.23,0,0,1,0-2.33,4.43,4.43,0,0,1,4,0A1.23,1.23,0,0,1,165.19,94.77Z"></path><rect class="cls-3" x="158.54" y="64.09" width="9.26" height="19.34"></rect><path class="cls-2" d="M160.31,83.3v4.17a7.37,7.37,0,0,0,5.72,0V83.3A7.46,7.46,0,0,0,160.31,83.3Z"></path><path class="cls-3" d="M166.44,85.32a7.24,7.24,0,0,1-6.54,0c-1.81-1-1.81-2.74,0-3.78a7.18,7.18,0,0,1,6.54,0C168.25,82.58,168.25,84.27,166.44,85.32Z"></path><path class="cls-3" d="M171,121.69a.8.8,0,0,1-.8-.8V88a.8.8,0,0,1,1.6,0v32.89A.8.8,0,0,1,171,121.69Z"></path><rect class="cls-3" x="168.12" y="85.94" width="5.71" height="12.33"></rect><path class="cls-3" d="M173,99.43a4.43,4.43,0,0,1-4,0,1.23,1.23,0,0,1,0-2.33,4.49,4.49,0,0,1,4,0A1.23,1.23,0,0,1,173,99.43Z"></path><rect class="cls-3" x="166.35" y="68.75" width="9.26" height="19.34"></rect><path class="cls-2" d="M168.12,88v4.18a7.44,7.44,0,0,0,5.71,0V88A7.44,7.44,0,0,0,168.12,88Z"></path><path class="cls-3" d="M174.25,90a7.27,7.27,0,0,1-6.55,0c-1.8-1-1.8-2.74,0-3.78a7.27,7.27,0,0,1,6.55,0C176.06,87.24,176.06,88.94,174.25,90Z"></path><polygon class="cls-3" points="207.26 104.11 219.68 96.8 207.86 82.04 204.75 87.12 207.26 104.11"></polygon><path class="cls-3" d="M117.13,23.12l19.81-11.4s-.75,11.38-.75,11.4-11.38,3.53-11.38,3.53Z"></path><path class="cls-3" d="M210.72,67a12.52,12.52,0,0,0-4.29-1.59c-2-10.5-9.3-21.64-18-26.67a17.66,17.66,0,0,0-7.38-2.5c-1.18-12.72-10-27.18-20.78-33.39-5.61-3.24-10.7-3.62-14.46-1.64h0l-.18.11-.29.16-11.68,6.9,3.88,3.07c-3.48,1.52-5.68,5.43-5.68,11.21,0,10.65,7.48,23.61,16.7,28.93L210.72,96c6.92,4,12.54.76,12.54-7.24S217.64,71,210.72,67Z"></path><path class="cls-3" d="M132.42,18,159.24,2.29C154-.42,149.33-.65,145.8,1.21h0l-.18.11-.29.16-11.68,6.9,3.88,3.07A9.38,9.38,0,0,0,132.42,18Z"></path><path class="cls-3" d="M181.94,64.05l19.57-11.48c-3.36-5.81-8-10.88-13.09-13.83a21.29,21.29,0,0,0-2-1L161.53,52.26Z"></path><path class="cls-4" d="M139.16,9.65l8.72,5,16-9.41a31.9,31.9,0,0,0-3.59-2.43A22.59,22.59,0,0,0,154.68.51Z"></path><path class="cls-4" d="M199.35,49.19l-15.62,9.2,5.44,6.06,14.17-8.37A44.91,44.91,0,0,0,199.35,49.19Z"></path><path class="cls-4" d="M198.45,74.23a12.52,12.52,0,0,0-4.29-1.59c-2-10.5-9.3-21.65-18-26.68a17.6,17.6,0,0,0-7.37-2.49c-1.19-12.73-10-27.19-20.78-33.39-11.56-6.67-20.92-1.27-20.92,12.08,0,.45,0,.91,0,1.36-8.45-3.91-15,.5-15,10.51,0,10.65,7.48,23.61,16.71,28.94l69.68,40.23c6.93,4,12.55.76,12.55-7.24S205.38,78.23,198.45,74.23Z"></path><path class="cls-5" d="M127.11,23.52c0-.45,0-.91,0-1.36V22.1c-4.67-1.81-8.68-1-11.2,1.89C118.62,21.74,122.59,21.43,127.11,23.52Z"></path><path class="cls-5" d="M199.47,73.23a12.52,12.52,0,0,0-4.29-1.59c-2-10.49-9.3-21.64-18-26.67a17.77,17.77,0,0,0-7.37-2.5c-1.19-12.72-10-27.18-20.78-33.39-7.2-4.15-13.55-3.62-17.31.6,3.83-3.28,9.7-3.4,16.29.4,10.74,6.2,19.59,20.66,20.78,33.39A17.6,17.6,0,0,1,176.15,46c8.71,5,16,16.18,18,26.68a12.52,12.52,0,0,1,4.29,1.59C205.38,78.23,211,88,211,96a10.28,10.28,0,0,1-2,6.67c1.88-1.45,3-4.07,3-7.67C212,87,206.4,77.23,199.47,73.23Z"></path><path class="cls-2" d="M125.64,26.7l5.23,2.43-.26-5.77q0-.6,0-1.2c0-5.15,1.55-8.88,4.37-10.51s6.84-1.11,11.3,1.46c9.59,5.54,17.95,19,19,30.68l.28,2.94,2.94.23a14.09,14.09,0,0,1,5.89,2c7.62,4.39,14.48,14.61,16.32,24.29l.46,2.43,2.44.38a9,9,0,0,1,3.08,1.16c5.85,3.38,10.79,11.94,10.79,18.7,0,2.52-.7,4.38-1.92,5.08s-3.18.39-5.37-.87L130.52,59.93c-8.11-4.68-15-16.54-15-25.9,0-3.67,1.08-6.47,3-7.68a5.15,5.15,0,0,1,2.78-.74A10.45,10.45,0,0,1,125.64,26.7Z"></path><polygon class="cls-3" points="160.42 70.38 162.25 69.45 160.44 68.08 160.42 70.38"></polygon><polygon class="cls-3" points="154.9 45.54 156.68 44.64 156.71 45.58 154.9 45.54"></polygon><polygon class="cls-3" points="165.66 64.57 167.52 63.63 163.94 60.23 165.66 64.57"></polygon><path class="cls-3" d="M161.72,69.39,153,64.27a1.84,1.84,0,0,1-.79-1.47l0-10.07,10.31,6.07,0,10.07C162.52,69.42,162.16,69.65,161.72,69.39Z"></path><path class="cls-3" d="M156.66,44.65l-9.4,6.05c-.4.26-.08,1.21.53,1.57l9.6,5.66,9.6,5.65c.61.36.93-.22.54-.94l-9.34-17.09C157.79,44.82,157.07,44.39,156.66,44.65Z"></path><path class="cls-4" d="M159.85,70.33l-8.7-5.12a1.85,1.85,0,0,1-.8-1.47l0-10.07,10.3,6.07,0,10.07C160.65,70.36,160.29,70.59,159.85,70.33Z"></path><path class="cls-4" d="M154.79,45.59l-9.4,6c-.4.26-.07,1.21.53,1.57l9.6,5.66,9.6,5.65c.61.36.94-.22.54-.94l-9.33-17.09C155.92,45.76,155.2,45.33,154.79,45.59Z"></path><polygon class="cls-5" points="191.28 248.98 190.22 248.98 190.22 189.41 197.25 185.35 197.25 156.03 198.32 156.03 198.32 185.96 191.28 190.03 191.28 248.98"></polygon><path class="cls-1" d="M22.19,261.85a3.69,3.69,0,0,1-1.81-.48L1,250.36A1.83,1.83,0,0,1,0,248.75a1.87,1.87,0,0,1,.93-1.63l48.48-28a9,9,0,0,1,9,0l55.42,32-.8,1.38-55.42-32a7.45,7.45,0,0,0-7.42,0l-48.48,28a.27.27,0,0,0,0,.46l19.44,11a2.06,2.06,0,0,0,2.13-.06l8.22-5.32.86,1.35-8.21,5.31A3.64,3.64,0,0,1,22.19,261.85Z"></path><path class="cls-1" d="M47.5,266.1,21.37,251c-1.61-.92-1.41-2.54.45-3.61l25.23-14.56a6.92,6.92,0,0,1,6.25-.26l26.13,15.08c1.6.93,1.4,2.54-.45,3.61L53.75,265.84A7,7,0,0,1,47.5,266.1Z"></path><path class="cls-2" d="M88.1,236.17h0V224.88H62.78L54,219.82c-2-1.16-5.51-1-7.83.32L38,224.85H12.7v11.61a2.28,2.28,0,0,0,1.34,2.1l32.72,18.89c2,1.16,5.52,1,7.84-.33l31.59-18.24C87.53,238.1,88.17,237.1,88.1,236.17Z"></path><path class="cls-2" d="M50.4,219a9,9,0,0,0-4.2,1.1L38,224.85H12.7v11.61a2.28,2.28,0,0,0,1.34,2.1l32.72,18.89a7.12,7.12,0,0,0,3.64.78Z"></path><path class="cls-3" d="M15.57,224.84H12.7v11.61a2.28,2.28,0,0,0,1.34,2.1l1.53.88Z"></path><path class="cls-3" d="M47.27,257.69a8.89,8.89,0,0,0,6.26-.08V244.43H47.27Z"></path><path class="cls-4" d="M46.76,245.87,14,227c-2-1.16-1.75-3.18.57-4.52L46.2,204.22c2.32-1.34,5.83-1.49,7.83-.33l32.72,18.89c2,1.16,1.76,3.19-.56,4.53L54.6,245.55C52.28,246.88,48.77,247,46.76,245.87Z"></path><path class="cls-3" d="M47.35,242.47,19.93,226.64c-1.68-1-1.47-2.67.48-3.79l26.47-15.29a7.32,7.32,0,0,1,6.57-.27l27.41,15.83c1.69,1,1.48,2.67-.47,3.79L53.92,242.2A7.32,7.32,0,0,1,47.35,242.47Z"></path><path class="cls-4" d="M76.06,239.15a2.92,2.92,0,0,1-1.32,2.29c-.73.42-1.32.08-1.32-.76a2.91,2.91,0,0,1,1.32-2.29C75.47,238,76.06,238.31,76.06,239.15Z"></path><path class="cls-4" d="M80.32,236.7A2.92,2.92,0,0,1,79,239c-.73.43-1.32.08-1.32-.76A2.92,2.92,0,0,1,79,235.93C79.72,235.51,80.32,235.85,80.32,236.7Z"></path><path class="cls-4" d="M84.57,234.24a2.92,2.92,0,0,1-1.32,2.29c-.73.42-1.33.08-1.33-.76a2.92,2.92,0,0,1,1.33-2.29C84,233.06,84.57,233.4,84.57,234.24Z"></path><path class="cls-2" d="M88.1,218.13h0V206.84H62.78L54,201.77c-2-1.15-5.51-1-7.83.33L38,206.81H12.7v11.61a2.28,2.28,0,0,0,1.34,2.1L46.76,239.4c2,1.16,5.52,1,7.84-.33l31.59-18.24C87.53,220.06,88.17,219.06,88.1,218.13Z"></path><path class="cls-2" d="M50.4,201a8.9,8.9,0,0,0-4.2,1.1L38,206.81H12.7v11.61a2.28,2.28,0,0,0,1.34,2.1L46.76,239.4a7.12,7.12,0,0,0,3.64.78Z"></path><path class="cls-3" d="M15.57,206.8H12.7v11.61a2.28,2.28,0,0,0,1.34,2.1l1.53.88Z"></path><path class="cls-3" d="M47.27,239.65a8.89,8.89,0,0,0,6.26-.08V226.39H47.27Z"></path><path class="cls-4" d="M46.76,227.83,14,208.94c-2-1.16-1.75-3.18.57-4.52L46.2,186.18c2.32-1.34,5.83-1.49,7.83-.33l32.72,18.89c2,1.16,1.76,3.19-.56,4.53L54.6,227.51C52.28,228.84,48.77,229,46.76,227.83Z"></path><path class="cls-3" d="M47.35,224.43,19.93,208.6c-1.68-1-1.47-2.67.48-3.79l26.47-15.29a7.32,7.32,0,0,1,6.57-.27l27.41,15.83c1.69,1,1.48,2.67-.47,3.79L53.92,224.16A7.32,7.32,0,0,1,47.35,224.43Z"></path><path class="cls-4" d="M76.06,221.11a2.92,2.92,0,0,1-1.32,2.29c-.73.42-1.32.08-1.32-.76a2.91,2.91,0,0,1,1.32-2.29C75.47,219.93,76.06,220.27,76.06,221.11Z"></path><path class="cls-4" d="M80.32,218.65A2.92,2.92,0,0,1,79,220.94c-.73.42-1.32.08-1.32-.76A2.92,2.92,0,0,1,79,217.89C79.72,217.47,80.32,217.81,80.32,218.65Z"></path><path class="cls-4" d="M84.57,216.2a2.92,2.92,0,0,1-1.32,2.29c-.73.42-1.33.08-1.33-.76a2.92,2.92,0,0,1,1.33-2.29C84,215,84.57,215.36,84.57,216.2Z"></path><path class="cls-2" d="M88.1,200.09h0V188.8H62.78L54,183.73c-2-1.16-5.51-1-7.83.33L38,188.77H12.7v11.61a2.28,2.28,0,0,0,1.34,2.1l32.72,18.89c2,1.16,5.52,1,7.84-.33l31.59-18.24C87.53,202,88.17,201,88.1,200.09Z"></path><path class="cls-2" d="M50.4,183a8.9,8.9,0,0,0-4.2,1.1L38,188.77H12.7v11.61a2.28,2.28,0,0,0,1.34,2.1l32.72,18.89a7.12,7.12,0,0,0,3.64.77Z"></path><path class="cls-3" d="M15.57,188.76H12.7v11.61a2.28,2.28,0,0,0,1.34,2.1l1.53.88Z"></path><path class="cls-3" d="M47.27,221.6a8.89,8.89,0,0,0,6.26-.07V208.35H47.27Z"></path><path class="cls-4" d="M46.76,209.79,14,190.9c-2-1.16-1.75-3.19.57-4.52L46.2,168.14c2.32-1.34,5.83-1.49,7.83-.33L86.75,186.7c2,1.16,1.76,3.19-.56,4.52L54.6,209.46C52.28,210.8,48.77,211,46.76,209.79Z"></path><path class="cls-5" d="M86.19,189,54.6,207.24c-2.32,1.34-5.83,1.49-7.84.33L14,188.68a3.14,3.14,0,0,1-1-.89c-.69,1.11-.37,2.31,1,3.11l32.72,18.89c2,1.16,5.52,1,7.84-.33l31.59-18.24c1.8-1,2.35-2.49,1.56-3.63A4.26,4.26,0,0,1,86.19,189Z"></path><path class="cls-4" d="M76.06,203.07a2.92,2.92,0,0,1-1.32,2.29c-.73.42-1.32.08-1.32-.77a2.91,2.91,0,0,1,1.32-2.28C75.47,201.88,76.06,202.23,76.06,203.07Z"></path><path class="cls-4" d="M80.32,200.61A2.92,2.92,0,0,1,79,202.9c-.73.42-1.32.08-1.32-.76A2.92,2.92,0,0,1,79,199.85C79.72,199.43,80.32,199.77,80.32,200.61Z"></path><path class="cls-4" d="M84.57,198.16a2.92,2.92,0,0,1-1.32,2.29c-.73.42-1.33.08-1.33-.77a2.92,2.92,0,0,1,1.33-2.28C84,197,84.57,197.32,84.57,198.16Z"></path><path class="cls-3" d="M48.7,198.08l-15.31-8.84c-.94-.54-.82-1.49.26-2.12l14.78-8.53a4.08,4.08,0,0,1,3.67-.16l15.31,8.84c.94.55.82,1.49-.26,2.12l-14.79,8.54A4.09,4.09,0,0,1,48.7,198.08Z"></path><path class="cls-4" d="M50.16,190.68l-2.11-1.23c-.13-.07-.12-.2,0-.29L50.13,188a.52.52,0,0,1,.5,0l2.12,1.22c.13.08.12.21,0,.29l-2,1.18A.58.58,0,0,1,50.16,190.68Z"></path><path class="cls-2" d="M33.39,189.24l0,0,.22-.15,14.78-8.53a4.08,4.08,0,0,1,3.67-.16l15.27,8.82c.86-.62.91-1.47,0-2L52.1,178.43a4.08,4.08,0,0,0-3.67.16l-14.78,8.53C32.57,187.75,32.45,188.7,33.39,189.24Z"></path><path class="cls-4" d="M44.65,213.09c0,.57-.39.79-.88.51a1.93,1.93,0,0,1-.89-1.54c0-.57.39-.8.89-.51A2,2,0,0,1,44.65,213.09Z"></path><path class="cls-4" d="M41.9,211.51c0,.56-.4.79-.89.51a2,2,0,0,1-.89-1.54c0-.57.4-.8.89-.51A2,2,0,0,1,41.9,211.51Z"></path><path class="cls-4" d="M44.65,216.42c0,.56-.39.79-.88.51a1.93,1.93,0,0,1-.89-1.54c0-.57.39-.8.89-.51A2,2,0,0,1,44.65,216.42Z"></path><path class="cls-4" d="M41.9,214.84c0,.56-.4.79-.89.51a2,2,0,0,1-.89-1.54c0-.57.4-.8.89-.52A2,2,0,0,1,41.9,214.84Z"></path><path class="cls-4" d="M44.65,231c0,.57-.39.8-.88.51a1.93,1.93,0,0,1-.89-1.54c0-.56.39-.79.89-.51A2,2,0,0,1,44.65,231Z"></path><path class="cls-4" d="M41.9,229.46c0,.56-.4.79-.89.51a2,2,0,0,1-.89-1.54c0-.57.4-.8.89-.51A2,2,0,0,1,41.9,229.46Z"></path><path class="cls-4" d="M44.65,234.37c0,.57-.39.8-.88.51a1.93,1.93,0,0,1-.89-1.54c0-.57.39-.8.89-.51A2,2,0,0,1,44.65,234.37Z"></path><path class="cls-4" d="M41.9,232.79c0,.56-.4.79-.89.51a2,2,0,0,1-.89-1.54c0-.57.4-.8.89-.51A2,2,0,0,1,41.9,232.79Z"></path><path class="cls-4" d="M44.65,249c0,.57-.39.8-.88.51a1.93,1.93,0,0,1-.89-1.54c0-.56.39-.79.89-.51A2,2,0,0,1,44.65,249Z"></path><path class="cls-4" d="M41.9,247.41c0,.57-.4.8-.89.51a2,2,0,0,1-.89-1.54c0-.57.4-.8.89-.51A2,2,0,0,1,41.9,247.41Z"></path><path class="cls-4" d="M44.65,252.32c0,.57-.39.8-.88.51a1.93,1.93,0,0,1-.89-1.54c0-.56.39-.79.89-.51A2,2,0,0,1,44.65,252.32Z"></path><path class="cls-4" d="M41.9,250.74c0,.56-.4.79-.89.51a2,2,0,0,1-.89-1.54c0-.57.4-.8.89-.51A2,2,0,0,1,41.9,250.74Z"></path><path class="cls-1" d="M50.82,279.52a5.41,5.41,0,0,1-2.7-.72l-16.49-9.57a1.8,1.8,0,0,1,0-3.11l10.84-6.29.81,1.39-10.85,6.29a.17.17,0,0,0-.09.17.18.18,0,0,0,.09.17l16.49,9.57a3.83,3.83,0,0,0,3.78,0L85,259a5.41,5.41,0,0,1,5.38,0l27.05,15.63a3.81,3.81,0,0,0,3.81,0l13-7.54.8,1.38-13,7.55a5.42,5.42,0,0,1-5.41,0L89.57,260.43a3.81,3.81,0,0,0-3.78,0l-32.3,18.4A5.35,5.35,0,0,1,50.82,279.52Z"></path><path class="cls-1" d="M194.05,340.4l-26.13-15.09c-1.6-.92-1.4-2.54.45-3.61l25.23-14.57a7,7,0,0,1,6.26-.26L226,322c1.61.93,1.41,2.54-.44,3.61l-25.23,14.57A7,7,0,0,1,194.05,340.4Z"></path><path class="cls-2" d="M234.65,310.47h0V299.18H209.34l-8.75-5.05c-2-1.16-5.52-1-7.84.32l-8.16,4.71H159.25v11.61a2.29,2.29,0,0,0,1.35,2.1l32.72,18.89c2,1.16,5.51,1,7.83-.33l31.59-18.24C234.08,312.4,234.73,311.4,234.65,310.47Z"></path><path class="cls-2" d="M197,293.34a8.93,8.93,0,0,0-4.2,1.1l-8.16,4.71H159.25v11.61a2.29,2.29,0,0,0,1.35,2.1l32.72,18.89a7.06,7.06,0,0,0,3.63.78Z"></path><path class="cls-3" d="M162.12,299.14h-2.87v11.61a2.29,2.29,0,0,0,1.35,2.1l1.52.88Z"></path><path class="cls-3" d="M193.82,332a8.89,8.89,0,0,0,6.26-.08V318.73h-6.26Z"></path><path class="cls-4" d="M193.32,320.17,160.6,301.28c-2-1.16-1.76-3.18.56-4.52l31.59-18.24c2.32-1.34,5.83-1.49,7.84-.33l32.72,18.89c2,1.16,1.75,3.19-.57,4.53l-31.59,18.24C198.83,321.18,195.33,321.33,193.32,320.17Z"></path><path class="cls-3" d="M193.91,316.77l-27.42-15.83c-1.68-1-1.47-2.67.47-3.79l26.47-15.29a7.32,7.32,0,0,1,6.57-.27l27.42,15.83c1.68,1,1.47,2.67-.47,3.79L200.47,316.5A7.3,7.3,0,0,1,193.91,316.77Z"></path><path class="cls-4" d="M222.62,313.45a2.92,2.92,0,0,1-1.32,2.29c-.73.42-1.33.08-1.33-.76a2.92,2.92,0,0,1,1.33-2.29C222,312.27,222.62,312.61,222.62,313.45Z"></path><path class="cls-4" d="M226.87,311a2.91,2.91,0,0,1-1.32,2.29c-.73.42-1.32.08-1.32-.76a2.92,2.92,0,0,1,1.32-2.29C226.28,309.81,226.87,310.15,226.87,311Z"></path><path class="cls-4" d="M231.12,308.54a2.92,2.92,0,0,1-1.32,2.29c-.73.42-1.32.08-1.32-.76a2.91,2.91,0,0,1,1.32-2.29C230.53,307.36,231.12,307.7,231.12,308.54Z"></path><path class="cls-2" d="M234.65,292.43h0V281.14H209.34l-8.75-5.06c-2-1.16-5.52-1-7.84.33l-8.16,4.71H159.25v11.61a2.29,2.29,0,0,0,1.35,2.1l32.72,18.89c2,1.16,5.51,1,7.83-.33l31.59-18.24C234.08,294.36,234.73,293.36,234.65,292.43Z"></path><path class="cls-2" d="M197,275.3a8.93,8.93,0,0,0-4.2,1.1l-8.16,4.71H159.25v11.61a2.29,2.29,0,0,0,1.35,2.1l32.72,18.89a7.06,7.06,0,0,0,3.63.77Z"></path><path class="cls-3" d="M162.12,281.1h-2.87v11.61a2.29,2.29,0,0,0,1.35,2.1l1.52.88Z"></path><path class="cls-3" d="M193.82,313.94a8.83,8.83,0,0,0,6.26-.07V300.69h-6.26Z"></path><path class="cls-4" d="M193.32,302.13,160.6,283.24c-2-1.16-1.76-3.19.56-4.52l31.59-18.24c2.32-1.34,5.83-1.49,7.84-.33L233.31,279c2,1.16,1.75,3.19-.57,4.52L201.15,301.8C198.83,303.14,195.33,303.29,193.32,302.13Z"></path><path class="cls-3" d="M193.91,298.73,166.49,282.9c-1.68-1-1.47-2.67.47-3.79l26.47-15.29a7.32,7.32,0,0,1,6.57-.27l27.42,15.83c1.68,1,1.47,2.67-.47,3.79l-26.48,15.29A7.3,7.3,0,0,1,193.91,298.73Z"></path><path class="cls-4" d="M222.62,295.41a2.92,2.92,0,0,1-1.32,2.29c-.73.42-1.33.08-1.33-.77a2.92,2.92,0,0,1,1.33-2.28C222,294.22,222.62,294.57,222.62,295.41Z"></path><path class="cls-4" d="M226.87,293a2.91,2.91,0,0,1-1.32,2.29c-.73.42-1.32.08-1.32-.76a2.92,2.92,0,0,1,1.32-2.29C226.28,291.77,226.87,292.11,226.87,293Z"></path><path class="cls-4" d="M231.12,290.5a2.92,2.92,0,0,1-1.32,2.29c-.73.42-1.32.08-1.32-.77a2.91,2.91,0,0,1,1.32-2.28C230.53,289.31,231.12,289.66,231.12,290.5Z"></path><path class="cls-2" d="M234.65,274.39h0V263.1l-25.31,0L200.59,258c-2-1.16-5.52-1-7.84.33l-8.16,4.71H159.25v11.61a2.29,2.29,0,0,0,1.35,2.1l32.72,18.89c2,1.16,5.51,1,7.83-.33l31.59-18.24C234.08,276.32,234.73,275.32,234.65,274.39Z"></path><path class="cls-2" d="M197,257.26a8.93,8.93,0,0,0-4.2,1.1l-8.16,4.71H159.25v11.61a2.29,2.29,0,0,0,1.35,2.1l32.72,18.89a7.06,7.06,0,0,0,3.63.77Z"></path><path class="cls-3" d="M162.12,263.06h-2.87v11.61a2.29,2.29,0,0,0,1.35,2.1l1.52.88Z"></path><path class="cls-3" d="M193.82,295.9a8.89,8.89,0,0,0,6.26-.07V282.65h-6.26Z"></path><path class="cls-4" d="M193.32,284.09,160.6,265.2c-2-1.16-1.76-3.19.56-4.53l31.59-18.24c2.32-1.33,5.83-1.48,7.84-.32L233.31,261c2,1.16,1.75,3.18-.57,4.52l-31.59,18.24C198.83,285.1,195.33,285.25,193.32,284.09Z"></path><path class="cls-5" d="M232.74,263.3l-31.59,18.24c-2.32,1.34-5.82,1.49-7.83.33L160.6,263a3,3,0,0,1-1-.89c-.69,1.11-.38,2.31,1,3.11l32.72,18.89c2,1.16,5.51,1,7.83-.33l31.59-18.24c1.81-1,2.35-2.49,1.57-3.63A4.39,4.39,0,0,1,232.74,263.3Z"></path><path class="cls-4" d="M222.62,277.37a2.92,2.92,0,0,1-1.32,2.29c-.73.42-1.33.08-1.33-.77a3,3,0,0,1,1.33-2.29C222,276.18,222.62,276.52,222.62,277.37Z"></path><path class="cls-4" d="M226.87,274.91a2.91,2.91,0,0,1-1.32,2.29c-.73.42-1.32.08-1.32-.76a2.92,2.92,0,0,1,1.32-2.29C226.28,273.73,226.87,274.07,226.87,274.91Z"></path><path class="cls-4" d="M231.12,272.46a2.92,2.92,0,0,1-1.32,2.29c-.73.42-1.32.08-1.32-.77a2.91,2.91,0,0,1,1.32-2.28C230.53,271.27,231.12,271.62,231.12,272.46Z"></path><path class="cls-3" d="M195.25,272.38l-15.31-8.84c-.94-.55-.82-1.49.26-2.12L195,252.88a4.09,4.09,0,0,1,3.66-.15L214,261.57c.93.55.82,1.49-.27,2.12l-14.78,8.53A4.08,4.08,0,0,1,195.25,272.38Z"></path><path class="cls-4" d="M196.72,265l-2.12-1.23c-.13-.07-.11-.2,0-.29l2-1.18a.54.54,0,0,1,.51,0l2.12,1.22c.13.08.11.21,0,.29l-2,1.18A.58.58,0,0,1,196.72,265Z"></path><path class="cls-2" d="M179.94,263.54l0,0,.22-.15L195,254.88a4.06,4.06,0,0,1,3.66-.16l15.27,8.82c.87-.62.91-1.47.05-2l-15.32-8.84a4.09,4.09,0,0,0-3.66.15l-14.79,8.54C179.12,262.05,179,263,179.94,263.54Z"></path><path class="cls-4" d="M146.68,82.14c0,.57-.4.8-.89.51a1.93,1.93,0,0,1-.89-1.54c0-.56.39-.79.89-.51A2,2,0,0,1,146.68,82.14Z"></path><path class="cls-4" d="M154.51,86.89c0,.57-.4.8-.89.51a2,2,0,0,1-.89-1.54c0-.56.4-.79.89-.51A2,2,0,0,1,154.51,86.89Z"></path><path class="cls-4" d="M162.34,91.64c0,.57-.4.8-.89.51a2,2,0,0,1-.89-1.54c0-.56.4-.79.89-.51A2,2,0,0,1,162.34,91.64Z"></path><path class="cls-4" d="M170.18,96.39c0,.57-.4.8-.89.51a1.93,1.93,0,0,1-.89-1.54c0-.56.39-.79.89-.51A2,2,0,0,1,170.18,96.39Z"></path></g></g></svg>