<?xml version="1.0" encoding="UTF-8"?>
<svg width="214px" height="35px" viewBox="0 0 214 35" version="1.1" xmlns="http://www.w3.org/2000/svg" xmlns:xlink="http://www.w3.org/1999/xlink">
    <!-- Generator: Sketch 55.2 (78181) - https://sketchapp.com -->
    <title>logo</title>
    <desc>Created with Sketch.</desc>
    <defs>
        <linearGradient x1="14.338648%" y1="98.5390625%" x2="85.661352%" y2="1.4609375%" id="linearGradient-1">
            <stop stop-color="#6F00D8" offset="0%"></stop>
            <stop stop-color="#1C6AFF" offset="100%"></stop>
        </linearGradient>
    </defs>
    <g id="Page-1" stroke="none" stroke-width="1" fill="none" fill-rule="evenodd">
        <g id="Catalog-Master" transform="translate(-9.000000, -15.000000)">
            <g id="logo" transform="translate(9.000000, 15.000000)">
                <path d="M38.387,12.908 L38.387,4.738 L41.066,4.738 L41.066,12.908 C41.066,13.8200046 41.2971644,14.510331 41.7595,14.979 C42.2218356,15.447669 42.8836624,15.682 43.745,15.682 C44.6063376,15.682 45.271331,15.447669 45.74,14.979 C46.208669,14.510331 46.443,13.8200046 46.443,12.908 L46.443,4.738 L49.103,4.738 L49.103,12.908 C49.103,14.5800084 48.5773386,15.8688288 47.526,16.7745 C46.4746614,17.6801712 45.1953409,18.133 43.688,18.133 C42.1806591,18.133 40.9203384,17.6833378 39.907,16.784 C38.8936616,15.8846622 38.387,14.5926751 38.387,12.908 Z M53.72,7.474 L53.72,9.051 C54.3913367,7.89832757 55.4806591,7.322 56.988,7.322 C58.1913394,7.322 59.1729962,7.71782938 59.933,8.5095 C60.6930038,9.30117063 61.073,10.399993 61.073,11.806 L61.073,18 L58.413,18 L58.413,12.186 C58.413,11.3626626 58.2040021,10.7325022 57.786,10.2955 C57.3679979,9.85849782 56.7980036,9.64 56.076,9.64 C55.3539964,9.64 54.7808355,9.85849782 54.3565,10.2955 C53.9321645,10.7325022 53.72,11.3626626 53.72,12.186 L53.72,18 L51.041,18 L51.041,7.474 L53.72,7.474 Z M62.973,18 L62.973,3.94 L65.652,3.94 L65.652,18 L62.973,18 Z M70.611,4.795 C70.611,5.25100228 70.4526683,5.63733175 70.136,5.954 C69.8193318,6.27066825 69.4361689,6.429 68.9865,6.429 C68.5368311,6.429 68.1536683,6.27066825 67.837,5.954 C67.5203318,5.63733175 67.362,5.25100228 67.362,4.795 C67.362,4.33899772 67.5203318,3.95266825 67.837,3.636 C68.1536683,3.31933175 68.5368311,3.161 68.9865,3.161 C69.4361689,3.161 69.8193318,3.31933175 70.136,3.636 C70.4526683,3.95266825 70.611,4.33899772 70.611,4.795 Z M67.647,18 L67.647,7.474 L70.326,7.474 L70.326,18 L67.647,18 Z M75,7.474 L75,9.051 C75.6713367,7.89832757 76.7606591,7.322 78.268,7.322 C79.066004,7.322 79.7784969,7.50566483 80.4055,7.873 C81.0325031,8.24033517 81.5169983,8.76599658 81.859,9.45 C82.2263352,8.79133004 82.7298301,8.2720019 83.3695,7.892 C84.0091699,7.5119981 84.727996,7.322 85.526,7.322 C86.7800063,7.322 87.7901628,7.71466274 88.5565,8.5 C89.3228372,9.28533726 89.706,10.3873262 89.706,11.806 L89.706,18 L87.046,18 L87.046,12.186 C87.046,11.3626626 86.8370021,10.7325022 86.419,10.2955 C86.0009979,9.85849782 85.4310036,9.64 84.709,9.64 C83.9869964,9.64 83.4138355,9.85849782 82.9895,10.2955 C82.5651645,10.7325022 82.353,11.3626626 82.353,12.186 L82.353,18 L79.693,18 L79.693,12.186 C79.693,11.3626626 79.4840021,10.7325022 79.066,10.2955 C78.6479979,9.85849782 78.0780036,9.64 77.356,9.64 C76.6339964,9.64 76.0608355,9.85849782 75.6365,10.2955 C75.2121645,10.7325022 75,11.3626626 75,12.186 L75,18 L72.321,18 L72.321,7.474 L75,7.474 Z M94.57,4.795 C94.57,5.25100228 94.4116683,5.63733175 94.095,5.954 C93.7783318,6.27066825 93.3951689,6.429 92.9455,6.429 C92.4958311,6.429 92.1126683,6.27066825 91.796,5.954 C91.4793318,5.63733175 91.321,5.25100228 91.321,4.795 C91.321,4.33899772 91.4793318,3.95266825 91.796,3.636 C92.1126683,3.31933175 92.4958311,3.161 92.9455,3.161 C93.3951689,3.161 93.7783318,3.31933175 94.095,3.636 C94.4116683,3.95266825 94.57,4.33899772 94.57,4.795 Z M91.606,18 L91.606,7.474 L94.285,7.474 L94.285,18 L91.606,18 Z M100.365,15.758 L101.638,15.758 L101.638,18 L99.947,18 C98.870328,18 98.0406696,17.7530025 97.458,17.259 C96.8753304,16.7649975 96.584,15.9480057 96.584,14.808 L96.584,9.659 L95.463,9.659 L95.463,7.474 L96.584,7.474 L96.584,4.871 L99.263,4.871 L99.263,7.474 L101.619,7.474 L101.619,9.659 L99.263,9.659 L99.263,14.808 C99.263,15.1500017 99.3453325,15.3938326 99.51,15.5395 C99.6746675,15.6851674 99.9596646,15.758 100.365,15.758 Z M107.319,18.152 C105.786326,18.152 104.538671,17.6548383 103.576,16.6605 C102.613329,15.6661617 102.132,14.3520082 102.132,12.718 C102.132,11.0839918 102.616495,9.77617158 103.5855,8.7945 C104.554505,7.81282843 105.808492,7.322 107.3475,7.322 C108.886508,7.322 110.149995,7.80016189 111.138,8.7565 C112.126005,9.71283812 112.62,10.988992 112.62,12.585 C112.62,12.9523352 112.594667,13.2943318 112.544,13.611 L104.868,13.611 C104.931334,14.2950034 105.184664,14.8459979 105.628,15.264 C106.071336,15.6820021 106.634997,15.891 107.319,15.891 C108.243671,15.891 108.927664,15.5110038 109.371,14.751 L112.259,14.751 C111.954998,15.7516717 111.366004,16.5686635 110.492,17.202 C109.617996,17.8353365 108.56034,18.152 107.319,18.152 Z M109.846,11.882 C109.808,11.1853299 109.551502,10.6280021 109.0765,10.21 C108.601498,9.79199791 108.028337,9.583 107.357,9.583 C106.685663,9.583 106.125169,9.79199791 105.6755,10.21 C105.225831,10.6280021 104.956667,11.1853299 104.868,11.882 L109.846,11.882 Z M120.581,15.017 C121.138336,14.4596639 121.417,13.6996715 121.417,12.737 C121.417,11.7743285 121.138336,11.0175028 120.581,10.4665 C120.023664,9.91549725 119.371337,9.64 118.624,9.64 C117.876663,9.64 117.227503,9.91233061 116.6765,10.457 C116.125497,11.0016694 115.85,11.7553285 115.85,12.718 C115.85,13.6806715 116.128664,14.4406639 116.686,14.998 C117.243336,15.5553361 117.892496,15.834 118.6335,15.834 C119.374504,15.834 120.023664,15.5616694 120.581,15.017 Z M114.539,16.632 C113.601662,15.6059949 113.133,14.3013413 113.133,12.718 C113.133,11.1346588 113.601662,9.83950504 114.539,8.8325 C115.476338,7.82549497 116.666993,7.322 118.111,7.322 C119.555007,7.322 120.656996,7.91732738 121.417,9.108 L121.417,3.94 L124.077,3.94 L124.077,18 L121.417,18 L121.417,16.233 C120.618996,17.5123397 119.510674,18.152 118.092,18.152 C116.673326,18.152 115.489005,17.6453384 114.539,16.632 Z M138.574,4.7 L138.574,6.752 L133.596,6.752 L133.596,10.229 L138.004,10.229 L138.004,12.281 L133.596,12.281 L133.596,15.948 L138.574,15.948 L138.574,18 L130.917,18 L130.917,4.7 L138.574,4.7 Z M140.455,18 L140.455,3.94 L143.134,3.94 L143.134,18 L140.455,18 Z M149.575,18.152 C148.042326,18.152 146.794671,17.6548383 145.832,16.6605 C144.869329,15.6661617 144.388,14.3520082 144.388,12.718 C144.388,11.0839918 144.872495,9.77617158 145.8415,8.7945 C146.810505,7.81282843 148.064492,7.322 149.6035,7.322 C151.142508,7.322 152.405995,7.80016189 153.394,8.7565 C154.382005,9.71283812 154.876,10.988992 154.876,12.585 C154.876,12.9523352 154.850667,13.2943318 154.8,13.611 L147.124,13.611 C147.187334,14.2950034 147.440664,14.8459979 147.884,15.264 C148.327336,15.6820021 148.890997,15.891 149.575,15.891 C150.499671,15.891 151.183664,15.5110038 151.627,14.751 L154.515,14.751 C154.210998,15.7516717 153.622004,16.5686635 152.748,17.202 C151.873996,17.8353365 150.81634,18.152 149.575,18.152 Z M152.102,11.882 C152.064,11.1853299 151.807502,10.6280021 151.3325,10.21 C150.857498,9.79199791 150.284337,9.583 149.613,9.583 C148.941663,9.583 148.381169,9.79199791 147.9315,10.21 C147.481831,10.6280021 147.212667,11.1853299 147.124,11.882 L152.102,11.882 Z M158.809,7.474 L158.809,9.051 C159.480337,7.89832757 160.569659,7.322 162.077,7.322 C162.875004,7.322 163.587497,7.50566483 164.2145,7.873 C164.841503,8.24033517 165.325998,8.76599658 165.668,9.45 C166.035335,8.79133004 166.53883,8.2720019 167.1785,7.892 C167.81817,7.5119981 168.536996,7.322 169.335,7.322 C170.589006,7.322 171.599163,7.71466274 172.3655,8.5 C173.131837,9.28533726 173.515,10.3873262 173.515,11.806 L173.515,18 L170.855,18 L170.855,12.186 C170.855,11.3626626 170.646002,10.7325022 170.228,10.2955 C169.809998,9.85849782 169.240004,9.64 168.518,9.64 C167.795996,9.64 167.222835,9.85849782 166.7985,10.2955 C166.374165,10.7325022 166.162,11.3626626 166.162,12.186 L166.162,18 L163.502,18 L163.502,12.186 C163.502,11.3626626 163.293002,10.7325022 162.875,10.2955 C162.456998,9.85849782 161.887004,9.64 161.165,9.64 C160.442996,9.64 159.869835,9.85849782 159.4455,10.2955 C159.021165,10.7325022 158.809,11.3626626 158.809,12.186 L158.809,18 L156.13,18 L156.13,7.474 L158.809,7.474 Z M179.861,18.152 C178.328326,18.152 177.080671,17.6548383 176.118,16.6605 C175.155329,15.6661617 174.674,14.3520082 174.674,12.718 C174.674,11.0839918 175.158495,9.77617158 176.1275,8.7945 C177.096505,7.81282843 178.350492,7.322 179.8895,7.322 C181.428508,7.322 182.691995,7.80016189 183.68,8.7565 C184.668005,9.71283812 185.162,10.988992 185.162,12.585 C185.162,12.9523352 185.136667,13.2943318 185.086,13.611 L177.41,13.611 C177.473334,14.2950034 177.726664,14.8459979 178.17,15.264 C178.613336,15.6820021 179.176997,15.891 179.861,15.891 C180.785671,15.891 181.469664,15.5110038 181.913,14.751 L184.801,14.751 C184.496998,15.7516717 183.908004,16.5686635 183.034,17.202 C182.159996,17.8353365 181.10234,18.152 179.861,18.152 Z M182.388,11.882 C182.35,11.1853299 182.093502,10.6280021 181.6185,10.21 C181.143498,9.79199791 180.570337,9.583 179.899,9.583 C179.227663,9.583 178.667169,9.79199791 178.2175,10.21 C177.767831,10.6280021 177.498667,11.1853299 177.41,11.882 L182.388,11.882 Z M189.095,7.474 L189.095,9.051 C189.766337,7.89832757 190.855659,7.322 192.363,7.322 C193.566339,7.322 194.547996,7.71782938 195.308,8.5095 C196.068004,9.30117063 196.448,10.399993 196.448,11.806 L196.448,18 L193.788,18 L193.788,12.186 C193.788,11.3626626 193.579002,10.7325022 193.161,10.2955 C192.742998,9.85849782 192.173004,9.64 191.451,9.64 C190.728996,9.64 190.155835,9.85849782 189.7315,10.2955 C189.307165,10.7325022 189.095,11.3626626 189.095,12.186 L189.095,18 L186.416,18 L186.416,7.474 L189.095,7.474 Z M202.433,15.758 L203.706,15.758 L203.706,18 L202.015,18 C200.938328,18 200.10867,17.7530025 199.526,17.259 C198.94333,16.7649975 198.652,15.9480057 198.652,14.808 L198.652,9.659 L197.531,9.659 L197.531,7.474 L198.652,7.474 L198.652,4.871 L201.331,4.871 L201.331,7.474 L203.687,7.474 L203.687,9.659 L201.331,9.659 L201.331,14.808 C201.331,15.1500017 201.413333,15.3938326 201.578,15.5395 C201.742667,15.6851674 202.027665,15.758 202.433,15.758 Z M204.352,10.552 C204.352,9.63999544 204.738329,8.87366977 205.511,8.253 C206.283671,7.63233023 207.30966,7.322 208.589,7.322 C209.86834,7.322 210.894329,7.6291636 211.667,8.2435 C212.439671,8.85783641 212.851333,9.69066141 212.902,10.742 L210.166,10.742 C210.09,9.8553289 209.545338,9.412 208.532,9.412 C208.025331,9.412 207.632668,9.51333232 207.354,9.716 C207.075332,9.91866768 206.936,10.1973316 206.936,10.552 C206.936,10.9066684 207.144998,11.1853323 207.563,11.388 C207.981002,11.5906677 208.487664,11.7489994 209.083,11.863 C209.678336,11.9770006 210.270497,12.1194991 210.8595,12.2905 C211.448503,12.4615009 211.951998,12.7654978 212.37,13.2025 C212.788002,13.6395022 212.997,14.2189964 212.997,14.941 C212.997,15.8910048 212.594837,16.6636637 211.7905,17.259 C210.986163,17.8543363 209.960173,18.152 208.7125,18.152 C207.464827,18.152 206.442004,17.8575029 205.644,17.2685 C204.845996,16.6794971 204.409,15.8340055 204.333,14.732 L207.069,14.732 C207.170334,15.6186711 207.733995,16.062 208.76,16.062 C209.254002,16.062 209.652998,15.9511678 209.957,15.7295 C210.261002,15.5078322 210.413,15.2165018 210.413,14.8555 C210.413,14.4944982 210.204002,14.209501 209.786,14.0005 C209.367998,13.791499 208.861336,13.6300006 208.266,13.516 C207.670664,13.4019994 207.078503,13.2626675 206.4895,13.098 C205.900497,12.9333325 205.397002,12.6388355 204.979,12.2145 C204.560998,11.7901645 204.352,11.2360034 204.352,10.552 Z" id="UnlimitedElements" fill="#202125" fill-rule="nonzero"></path>
                <path d="M20.4546702,0 L29.9550479,5.46098752 L30,16.4607977 L20.5445743,22 L20.5,10.9998102 L11,5.539582 L20.4546702,0 Z M29.9546711,18 L29.9550488,18 L30,29.306405 L20.5455178,35 L11.0449512,29.3871901 L11,18.0807851 L20.4994334,23.693595 L29.9546711,18 Z M0,12.5392979 L9.47728179,7 L19,12.4607021 L9.52271821,18 L9.56777601,29 L0.0454364289,23.5392979 L0,12.5392979 Z" id="Combined-Shape-Copy" fill="url(#linearGradient-1)"></path>
                <path d="M140.544922,32 L141.675781,26.5976562 L140.726562,26.5976562 L140.896484,25.7773438 L141.845703,25.7773438 L142.027344,24.8925781 C142.121094,24.4511697 142.217773,24.1328135 142.317383,23.9375 C142.416993,23.7421865 142.5791,23.5810553 142.803711,23.4541016 C143.028321,23.3271478 143.333982,23.2636719 143.720703,23.2636719 C143.990236,23.2636719 144.380857,23.3203119 144.892578,23.4335938 L144.699219,24.359375 C144.339842,24.2656245 144.039064,24.21875 143.796875,24.21875 C143.589843,24.21875 143.432618,24.2705073 143.325195,24.3740234 C143.217773,24.4775396 143.125,24.7226543 143.046875,25.109375 L142.90625,25.7773438 L144.089844,25.7773438 L143.919922,26.5976562 L142.736328,26.5976562 L141.605469,32 L140.544922,32 Z M143.919922,29.6386719 C143.919922,28.4238221 144.27734,27.4179727 144.992188,26.6210938 C145.582034,25.9648405 146.355464,25.6367188 147.3125,25.6367188 C148.062504,25.6367188 148.66699,25.8710914 149.125977,26.3398438 C149.584963,26.8085961 149.814453,27.4414023 149.814453,28.2382812 C149.814453,28.9531286 149.669923,29.618161 149.380859,30.2333984 C149.091795,30.8486359 148.680667,31.3203109 148.147461,31.6484375 C147.614255,31.9765641 147.052737,32.140625 146.462891,32.140625 C145.978513,32.140625 145.538088,32.0371104 145.141602,31.8300781 C144.745115,31.6230458 144.442384,31.33008 144.233398,30.9511719 C144.024413,30.5722637 143.919922,30.1347681 143.919922,29.6386719 Z M144.980469,29.5332031 C144.980469,30.1191436 145.121092,30.563475 145.402344,30.8662109 C145.683595,31.1689468 146.041013,31.3203125 146.474609,31.3203125 C146.701173,31.3203125 146.92578,31.2744145 147.148438,31.1826172 C147.371095,31.0908199 147.578124,30.9511728 147.769531,30.7636719 C147.960938,30.5761709 148.124023,30.3623059 148.258789,30.1220703 C148.393555,29.8818347 148.501953,29.6230483 148.583984,29.3457031 C148.705079,28.9589824 148.765625,28.5878924 148.765625,28.2324219 C148.765625,27.6699191 148.624025,27.2334 148.34082,26.9228516 C148.057616,26.6123031 147.701174,26.4570312 147.271484,26.4570312 C146.939451,26.4570312 146.63672,26.536132 146.363281,26.6943359 C146.089842,26.8525399 145.842775,27.0839829 145.62207,27.3886719 C145.401366,27.6933609 145.239258,28.0478495 145.135742,28.4521484 C145.032226,28.8564473 144.980469,29.2167953 144.980469,29.5332031 Z M150.40625,32 L151.707031,25.7773438 L152.644531,25.7773438 L152.380859,27.0488281 C152.701173,26.568357 153.014647,26.2128918 153.321289,25.9824219 C153.627931,25.751952 153.941405,25.6367188 154.261719,25.6367188 C154.472657,25.6367188 154.73242,25.7128899 155.041016,25.8652344 L154.607422,26.8496094 C154.423827,26.7167962 154.222657,26.6503906 154.003906,26.6503906 C153.632811,26.6503906 153.251955,26.8574198 152.861328,27.2714844 C152.470701,27.6855489 152.164064,28.4296821 151.941406,29.5039062 L151.414062,32 L150.40625,32 Z M157.876953,32 L159.675781,23.4101562 L165.875,23.4101562 L165.669922,24.3886719 L160.619141,24.3886719 L160.056641,27.0605469 L164.978516,27.0605469 L164.773438,28.0390625 L159.851562,28.0390625 L159.230469,31.0273438 L164.638672,31.0273438 L164.433594,32 L157.876953,32 Z M165.658203,32 L167.451172,23.4101562 L168.511719,23.4101562 L166.71875,32 L165.658203,32 Z M172.976562,29.8847656 L174.007812,29.9902344 C173.859374,30.5019557 173.518557,30.9882789 172.985352,31.4492188 C172.452146,31.9101586 171.81641,32.140625 171.078125,32.140625 C170.617185,32.140625 170.194338,32.0341808 169.80957,31.8212891 C169.424803,31.6083974 169.131837,31.2988302 168.930664,30.8925781 C168.729491,30.4863261 168.628906,30.0234401 168.628906,29.5039062 C168.628906,28.8242154 168.786131,28.1650423 169.100586,27.5263672 C169.415041,26.8876921 169.822263,26.4130875 170.322266,26.1025391 C170.822268,25.7919906 171.363278,25.6367188 171.945312,25.6367188 C172.687504,25.6367188 173.280271,25.8671852 173.723633,26.328125 C174.166994,26.7890648 174.388672,27.4179648 174.388672,28.2148438 C174.388672,28.5195328 174.361328,28.8320296 174.306641,29.1523438 L169.724609,29.1523438 C169.708984,29.2734381 169.701172,29.382812 169.701172,29.4804688 C169.701172,30.0625029 169.83496,30.5068344 170.102539,30.8134766 C170.370119,31.1201187 170.697264,31.2734375 171.083984,31.2734375 C171.447267,31.2734375 171.804686,31.1542981 172.15625,30.9160156 C172.507814,30.6777332 172.781249,30.3339866 172.976562,29.8847656 Z M169.894531,28.34375 L173.386719,28.34375 C173.390625,28.2343745 173.392578,28.1562502 173.392578,28.109375 C173.392578,27.5781223 173.259767,27.1708999 172.994141,26.8876953 C172.728514,26.6044908 172.386721,26.4628906 171.96875,26.4628906 C171.515623,26.4628906 171.102541,26.6191391 170.729492,26.9316406 C170.356443,27.2441422 170.078126,27.7148406 169.894531,28.34375 Z M175.074219,32 L176.375,25.7773438 L177.435547,25.7773438 L177.21875,26.8027344 C177.613283,26.3613259 177.965819,26.0566415 178.276367,25.8886719 C178.586916,25.7207023 178.923826,25.6367188 179.287109,25.6367188 C179.67383,25.6367188 179.997069,25.7392568 180.256836,25.9443359 C180.516603,26.1494151 180.6875,26.435545 180.769531,26.8027344 C181.085939,26.4121074 181.418944,26.1201182 181.768555,25.9267578 C182.118166,25.7333975 182.486326,25.6367188 182.873047,25.6367188 C183.392581,25.6367188 183.782225,25.7597644 184.041992,26.0058594 C184.301759,26.2519544 184.431641,26.597654 184.431641,27.0429688 C184.431641,27.234376 184.386719,27.550779 184.296875,27.9921875 L183.458984,32 L182.398438,32 L183.253906,27.8867188 C183.328125,27.5507796 183.365234,27.3105476 183.365234,27.1660156 C183.365234,26.9628896 183.300782,26.802735 183.171875,26.6855469 C183.042968,26.5683588 182.861329,26.5097656 182.626953,26.5097656 C182.310545,26.5097656 181.988283,26.6054678 181.660156,26.796875 C181.33203,26.9882822 181.077149,27.2392563 180.895508,27.5498047 C180.713866,27.8603531 180.554688,28.3378874 180.417969,28.9824219 L179.785156,32 L178.724609,32 L179.603516,27.7988281 C179.666016,27.5136704 179.697266,27.3105475 179.697266,27.1894531 C179.697266,26.9863271 179.63379,26.8222662 179.506836,26.6972656 C179.379882,26.572265 179.214845,26.5097656 179.011719,26.5097656 C178.710936,26.5097656 178.395509,26.6054678 178.06543,26.796875 C177.73535,26.9882822 177.466798,27.2548811 177.259766,27.5966797 C177.052733,27.9384783 176.882813,28.4257781 176.75,29.0585938 L176.134766,32 L175.074219,32 Z M189.646484,29.8847656 L190.677734,29.9902344 C190.529296,30.5019557 190.188479,30.9882789 189.655273,31.4492188 C189.122068,31.9101586 188.486332,32.140625 187.748047,32.140625 C187.287107,32.140625 186.86426,32.0341808 186.479492,31.8212891 C186.094725,31.6083974 185.801759,31.2988302 185.600586,30.8925781 C185.399413,30.4863261 185.298828,30.0234401 185.298828,29.5039062 C185.298828,28.8242154 185.456053,28.1650423 185.770508,27.5263672 C186.084963,26.8876921 186.492185,26.4130875 186.992188,26.1025391 C187.49219,25.7919906 188.0332,25.6367188 188.615234,25.6367188 C189.357426,25.6367188 189.950193,25.8671852 190.393555,26.328125 C190.836916,26.7890648 191.058594,27.4179648 191.058594,28.2148438 C191.058594,28.5195328 191.03125,28.8320296 190.976562,29.1523438 L186.394531,29.1523438 C186.378906,29.2734381 186.371094,29.382812 186.371094,29.4804688 C186.371094,30.0625029 186.504881,30.5068344 186.772461,30.8134766 C187.04004,31.1201187 187.367186,31.2734375 187.753906,31.2734375 C188.117189,31.2734375 188.474608,31.1542981 188.826172,30.9160156 C189.177736,30.6777332 189.451171,30.3339866 189.646484,29.8847656 Z M186.564453,28.34375 L190.056641,28.34375 C190.060547,28.2343745 190.0625,28.1562502 190.0625,28.109375 C190.0625,27.5781223 189.929689,27.1708999 189.664062,26.8876953 C189.398436,26.6044908 189.056643,26.4628906 188.638672,26.4628906 C188.185545,26.4628906 187.772463,26.6191391 187.399414,26.9316406 C187.026365,27.2441422 186.748048,27.7148406 186.564453,28.34375 Z M191.75,32 L193.050781,25.7773438 L194.011719,25.7773438 L193.783203,26.8613281 C194.201174,26.4355447 194.591795,26.125001 194.955078,25.9296875 C195.318361,25.734374 195.689451,25.6367188 196.068359,25.6367188 C196.572268,25.6367188 196.967772,25.7734361 197.254883,26.046875 C197.541994,26.3203139 197.685547,26.6855446 197.685547,27.1425781 C197.685547,27.373048 197.634766,27.7363256 197.533203,28.2324219 L196.742188,32 L195.681641,32 L196.507812,28.0566406 C196.589844,27.6738262 196.630859,27.3906259 196.630859,27.2070312 C196.630859,26.999999 196.559571,26.8320319 196.416992,26.703125 C196.274413,26.5742181 196.068361,26.5097656 195.798828,26.5097656 C195.255857,26.5097656 194.772463,26.7050762 194.348633,27.0957031 C193.924803,27.4863301 193.613282,28.1562453 193.414062,29.1054688 L192.810547,32 L191.75,32 Z M200.902344,31.1386719 L200.726562,32.0058594 C200.472655,32.072266 200.226564,32.1054688 199.988281,32.1054688 C199.566404,32.1054688 199.23047,32.0019542 198.980469,31.7949219 C198.792968,31.6386711 198.699219,31.4257826 198.699219,31.15625 C198.699219,31.0195306 198.749999,30.7050806 198.851562,30.2128906 L199.607422,26.5976562 L198.769531,26.5976562 L198.939453,25.7773438 L199.777344,25.7773438 L200.099609,24.2480469 L201.3125,23.515625 L200.837891,25.7773438 L201.880859,25.7773438 L201.705078,26.5976562 L200.667969,26.5976562 L199.947266,30.0371094 C199.857421,30.4746116 199.8125,30.7363277 199.8125,30.8222656 C199.8125,30.9472662 199.848632,31.0429684 199.920898,31.109375 C199.993164,31.1757816 200.111327,31.2089844 200.275391,31.2089844 C200.509767,31.2089844 200.718749,31.1855471 200.902344,31.1386719 Z M201.945312,29.6386719 C201.945312,28.4238221 202.302731,27.4179727 203.017578,26.6210938 C203.607425,25.9648405 204.380855,25.6367188 205.337891,25.6367188 C206.087894,25.6367188 206.692381,25.8710914 207.151367,26.3398438 C207.610354,26.8085961 207.839844,27.4414023 207.839844,28.2382812 C207.839844,28.9531286 207.695314,29.618161 207.40625,30.2333984 C207.117186,30.8486359 206.706057,31.3203109 206.172852,31.6484375 C205.639646,31.9765641 205.078128,32.140625 204.488281,32.140625 C204.003904,32.140625 203.563479,32.0371104 203.166992,31.8300781 C202.770506,31.6230458 202.467774,31.33008 202.258789,30.9511719 C202.049804,30.5722637 201.945312,30.1347681 201.945312,29.6386719 Z M203.005859,29.5332031 C203.005859,30.1191436 203.146483,30.563475 203.427734,30.8662109 C203.708986,31.1689468 204.066404,31.3203125 204.5,31.3203125 C204.726564,31.3203125 204.951171,31.2744145 205.173828,31.1826172 C205.396485,31.0908199 205.603515,30.9511728 205.794922,30.7636719 C205.986329,30.5761709 206.149413,30.3623059 206.28418,30.1220703 C206.418946,29.8818347 206.527343,29.6230483 206.609375,29.3457031 C206.730469,28.9589824 206.791016,28.5878924 206.791016,28.2324219 C206.791016,27.6699191 206.649415,27.2334 206.366211,26.9228516 C206.083006,26.6123031 205.726565,26.4570312 205.296875,26.4570312 C204.964842,26.4570312 204.662111,26.536132 204.388672,26.6943359 C204.115233,26.8525399 203.868165,27.0839829 203.647461,27.3886719 C203.426757,27.6933609 203.264649,28.0478495 203.161133,28.4521484 C203.057617,28.8564473 203.005859,29.2167953 203.005859,29.5332031 Z M208.431641,32 L209.732422,25.7773438 L210.669922,25.7773438 L210.40625,27.0488281 C210.726564,26.568357 211.040038,26.2128918 211.34668,25.9824219 C211.653322,25.751952 211.966795,25.6367188 212.287109,25.6367188 C212.498048,25.6367188 212.757811,25.7128899 213.066406,25.8652344 L212.632812,26.8496094 C212.449218,26.7167962 212.248048,26.6503906 212.029297,26.6503906 C211.658201,26.6503906 211.277346,26.8574198 210.886719,27.2714844 C210.496092,27.6855489 210.189454,28.4296821 209.966797,29.5039062 L209.439453,32 L208.431641,32 Z" id="forElementor" fill="#202125" fill-rule="nonzero"></path>
            </g>
        </g>
    </g>
</svg>