<?xml version="1.0" encoding="utf-8"?>
<!-- Generator: Adobe Illustrator 23.1.1, SVG Export Plug-In . SVG Version: 6.00 Build 0)  -->
<svg version="1.1" id="Layer_1" xmlns="http://www.w3.org/2000/svg" xmlns:xlink="http://www.w3.org/1999/xlink" x="0px" y="0px"
	 viewBox="0 0 252.8 35" style="enable-background:new 0 0 252.8 35;" xml:space="preserve">
<style type="text/css">
	.st0{fill:#202125;}
	.st1{fill-rule:evenodd;clip-rule:evenodd;fill:url(#Combined-Shape-Copy_1_);}
	.st2{fill:url(#SVGID_1_);}
	.st3{fill:#FFFFFF;}
</style>
<title>logo</title>
<desc>Created with Sketch.</desc>
<g id="Page-1">
	<g id="Catalog-Master" transform="translate(-9.000000, -15.000000)">
		<g id="logo" transform="translate(9.000000, 15.000000)">
			<path id="UnlimitedElements" class="st0" d="M38.4,12.9V4.7h2.7v8.2c0,0.9,0.2,1.6,0.7,2.1c0.5,0.5,1.1,0.7,2,0.7
				c0.9,0,1.5-0.2,2-0.7c0.5-0.5,0.7-1.2,0.7-2.1V4.7h2.7v8.2c0,1.7-0.5,3-1.6,3.9c-1.1,0.9-2.3,1.4-3.8,1.4s-2.8-0.4-3.8-1.3
				C38.9,15.9,38.4,14.6,38.4,12.9z M53.7,7.5v1.6c0.7-1.2,1.8-1.7,3.3-1.7c1.2,0,2.2,0.4,2.9,1.2c0.8,0.8,1.1,1.9,1.1,3.3V18h-2.7
				v-5.8c0-0.8-0.2-1.5-0.6-1.9s-1-0.7-1.7-0.7s-1.3,0.2-1.7,0.7s-0.6,1.1-0.6,1.9V18H51V7.5H53.7z M63,18V3.9h2.7V18H63z M70.6,4.8
				c0,0.5-0.2,0.8-0.5,1.2c-0.3,0.3-0.7,0.5-1.1,0.5S68.2,6.3,67.8,6c-0.3-0.3-0.5-0.7-0.5-1.2s0.2-0.8,0.5-1.2
				c0.3-0.3,0.7-0.5,1.1-0.5s0.8,0.2,1.1,0.5C70.5,4,70.6,4.3,70.6,4.8z M67.6,18V7.5h2.7V18H67.6z M75,7.5v1.6
				c0.7-1.2,1.8-1.7,3.3-1.7c0.8,0,1.5,0.2,2.1,0.6c0.6,0.4,1.1,0.9,1.5,1.6c0.4-0.7,0.9-1.2,1.5-1.6s1.4-0.6,2.2-0.6
				c1.3,0,2.3,0.4,3,1.2c0.8,0.8,1.1,1.9,1.1,3.3V18H87v-5.8c0-0.8-0.2-1.5-0.6-1.9c-0.4-0.4-1-0.7-1.7-0.7c-0.7,0-1.3,0.2-1.7,0.7
				c-0.4,0.4-0.6,1.1-0.6,1.9V18h-2.7v-5.8c0-0.8-0.2-1.5-0.6-1.9c-0.4-0.4-1-0.7-1.7-0.7c-0.7,0-1.3,0.2-1.7,0.7
				c-0.4,0.4-0.6,1.1-0.6,1.9V18h-2.7V7.5H75z M94.6,4.8c0,0.5-0.2,0.8-0.5,1.2s-0.7,0.5-1.1,0.5S92.1,6.3,91.8,6
				c-0.3-0.3-0.5-0.7-0.5-1.2s0.2-0.8,0.5-1.2c0.3-0.3,0.7-0.5,1.1-0.5s0.8,0.2,1.1,0.5S94.6,4.3,94.6,4.8z M91.6,18V7.5h2.7V18
				H91.6z M100.4,15.8h1.3V18h-1.7c-1.1,0-1.9-0.2-2.5-0.7c-0.6-0.5-0.9-1.3-0.9-2.5V9.7h-1.1V7.5h1.1V4.9h2.7v2.6h2.4v2.2h-2.4v5.1
				c0,0.3,0.1,0.6,0.2,0.7C99.7,15.7,100,15.8,100.4,15.8z M107.3,18.2c-1.5,0-2.8-0.5-3.7-1.5c-1-1-1.4-2.3-1.4-3.9
				s0.5-2.9,1.5-3.9c1-1,2.2-1.5,3.8-1.5c1.5,0,2.8,0.5,3.8,1.4s1.5,2.2,1.5,3.8c0,0.4,0,0.7-0.1,1h-7.7c0.1,0.7,0.3,1.2,0.8,1.7
				s1,0.6,1.7,0.6c0.9,0,1.6-0.4,2.1-1.1h2.9c-0.3,1-0.9,1.8-1.8,2.5C109.6,17.8,108.6,18.2,107.3,18.2z M109.8,11.9
				c0-0.7-0.3-1.3-0.8-1.7s-1-0.6-1.7-0.6c-0.7,0-1.2,0.2-1.7,0.6s-0.7,1-0.8,1.7H109.8z M120.6,15c0.6-0.6,0.8-1.3,0.8-2.3
				s-0.3-1.7-0.8-2.3c-0.6-0.6-1.2-0.8-2-0.8s-1.4,0.3-1.9,0.8s-0.8,1.3-0.8,2.3s0.3,1.7,0.8,2.3c0.6,0.6,1.2,0.8,1.9,0.8
				S120,15.6,120.6,15z M114.5,16.6c-0.9-1-1.4-2.3-1.4-3.9s0.5-2.9,1.4-3.9s2.1-1.5,3.6-1.5s2.5,0.6,3.3,1.8V3.9h2.7V18h-2.7v-1.8
				c-0.8,1.3-1.9,1.9-3.3,1.9C116.7,18.2,115.5,17.6,114.5,16.6z M138.6,4.7v2.1h-5v3.5h4.4v2.1h-4.4v3.7h5V18h-7.7V4.7H138.6z
				 M140.5,18V3.9h2.7V18H140.5z M149.6,18.2c-1.5,0-2.8-0.5-3.7-1.5s-1.4-2.3-1.4-3.9s0.5-2.9,1.5-3.9c1-1,2.2-1.5,3.8-1.5
				s2.8,0.5,3.8,1.4s1.5,2.2,1.5,3.8c0,0.4,0,0.7-0.1,1h-7.7c0.1,0.7,0.3,1.2,0.8,1.7c0.4,0.4,1,0.6,1.7,0.6c0.9,0,1.6-0.4,2.1-1.1
				h2.9c-0.3,1-0.9,1.8-1.8,2.5S150.8,18.2,149.6,18.2z M152.1,11.9c0-0.7-0.3-1.3-0.8-1.7c-0.5-0.4-1-0.6-1.7-0.6
				c-0.7,0-1.2,0.2-1.7,0.6c-0.4,0.4-0.7,1-0.8,1.7H152.1z M158.8,7.5v1.6c0.7-1.2,1.8-1.7,3.3-1.7c0.8,0,1.5,0.2,2.1,0.6
				c0.6,0.4,1.1,0.9,1.5,1.6c0.4-0.7,0.9-1.2,1.5-1.6c0.6-0.4,1.4-0.6,2.2-0.6c1.3,0,2.3,0.4,3,1.2c0.8,0.8,1.1,1.9,1.1,3.3V18h-2.7
				v-5.8c0-0.8-0.2-1.5-0.6-1.9s-1-0.7-1.7-0.7c-0.7,0-1.3,0.2-1.7,0.7c-0.4,0.4-0.6,1.1-0.6,1.9V18h-2.7v-5.8
				c0-0.8-0.2-1.5-0.6-1.9s-1-0.7-1.7-0.7c-0.7,0-1.3,0.2-1.7,0.7c-0.4,0.4-0.6,1.1-0.6,1.9V18h-2.7V7.5H158.8z M179.9,18.2
				c-1.5,0-2.8-0.5-3.7-1.5c-1-1-1.4-2.3-1.4-3.9s0.5-2.9,1.5-3.9s2.2-1.5,3.8-1.5c1.5,0,2.8,0.5,3.8,1.4c1,1,1.5,2.2,1.5,3.8
				c0,0.4,0,0.7-0.1,1h-7.7c0.1,0.7,0.3,1.2,0.8,1.7c0.4,0.4,1,0.6,1.7,0.6c0.9,0,1.6-0.4,2.1-1.1h2.9c-0.3,1-0.9,1.8-1.8,2.5
				S181.1,18.2,179.9,18.2z M182.4,11.9c0-0.7-0.3-1.3-0.8-1.7s-1-0.6-1.7-0.6s-1.2,0.2-1.7,0.6c-0.4,0.4-0.7,1-0.8,1.7H182.4z
				 M189.1,7.5v1.6c0.7-1.2,1.8-1.7,3.3-1.7c1.2,0,2.2,0.4,2.9,1.2s1.1,1.9,1.1,3.3V18h-2.7v-5.8c0-0.8-0.2-1.5-0.6-1.9
				s-1-0.7-1.7-0.7c-0.7,0-1.3,0.2-1.7,0.7c-0.4,0.4-0.6,1.1-0.6,1.9V18h-2.7V7.5H189.1z M202.4,15.8h1.3V18H202
				c-1.1,0-1.9-0.2-2.5-0.7c-0.6-0.5-0.9-1.3-0.9-2.5V9.7h-1.1V7.5h1.1V4.9h2.7v2.6h2.4v2.2h-2.4v5.1c0,0.3,0.1,0.6,0.2,0.7
				C201.7,15.7,202,15.8,202.4,15.8z M204.4,10.6c0-0.9,0.4-1.7,1.2-2.3s1.8-0.9,3.1-0.9s2.3,0.3,3.1,0.9c0.8,0.6,1.2,1.4,1.2,2.5
				h-2.7c-0.1-0.9-0.6-1.3-1.6-1.3c-0.5,0-0.9,0.1-1.2,0.3c-0.3,0.2-0.4,0.5-0.4,0.8s0.2,0.6,0.6,0.8c0.4,0.2,0.9,0.4,1.5,0.5
				c0.6,0.1,1.2,0.3,1.8,0.4c0.6,0.2,1.1,0.5,1.5,0.9s0.6,1,0.6,1.7c0,1-0.4,1.7-1.2,2.3c-0.8,0.6-1.8,0.9-3.1,0.9
				c-1.2,0-2.3-0.3-3.1-0.9s-1.2-1.4-1.3-2.5h2.7c0.1,0.9,0.7,1.3,1.7,1.3c0.5,0,0.9-0.1,1.2-0.3c0.3-0.2,0.5-0.5,0.5-0.9
				s-0.2-0.6-0.6-0.9c-0.4-0.2-0.9-0.4-1.5-0.5c-0.6-0.1-1.2-0.3-1.8-0.4c-0.6-0.2-1.1-0.5-1.5-0.9S204.4,11.2,204.4,10.6z"/>
			
				<linearGradient id="Combined-Shape-Copy_1_" gradientUnits="userSpaceOnUse" x1="92.0234" y1="29.1518" x2="92.7366" y2="30.1225" gradientTransform="matrix(30 0 0 -35 -2755 1056)">
				<stop  offset="0" style="stop-color:#6F00D8"/>
				<stop  offset="1" style="stop-color:#1C6AFF"/>
			</linearGradient>
			<path id="Combined-Shape-Copy" class="st1" d="M20.5,0L30,5.5l0,11L20.5,22l0-11L11,5.5L20.5,0z M30,18L30,18l0,11.3L20.5,35
				L11,29.4l0-11.3l9.5,5.6L30,18z M0,12.5L9.5,7l9.5,5.5L9.5,18l0,11L0,23.5L0,12.5z"/>
			<path id="forElementor" class="st0" d="M140.5,32l1.1-5.4h-0.9l0.2-0.8h0.9l0.2-0.9c0.1-0.4,0.2-0.8,0.3-1s0.3-0.4,0.5-0.5
				s0.5-0.2,0.9-0.2c0.3,0,0.7,0.1,1.2,0.2l-0.2,0.9c-0.4-0.1-0.7-0.1-0.9-0.1c-0.2,0-0.4,0.1-0.5,0.2s-0.2,0.3-0.3,0.7l-0.1,0.7
				h1.2l-0.2,0.8h-1.2l-1.1,5.4H140.5z M143.9,29.6c0-1.2,0.4-2.2,1.1-3c0.6-0.7,1.4-1,2.3-1c0.8,0,1.4,0.2,1.8,0.7s0.7,1.1,0.7,1.9
				c0,0.7-0.1,1.4-0.4,2s-0.7,1.1-1.2,1.4s-1.1,0.5-1.7,0.5c-0.5,0-0.9-0.1-1.3-0.3c-0.4-0.2-0.7-0.5-0.9-0.9S143.9,30.1,143.9,29.6
				z M145,29.5c0,0.6,0.1,1,0.4,1.3s0.6,0.5,1.1,0.5c0.2,0,0.5,0,0.7-0.1s0.4-0.2,0.6-0.4c0.2-0.2,0.4-0.4,0.5-0.6s0.2-0.5,0.3-0.8
				c0.1-0.4,0.2-0.8,0.2-1.1c0-0.6-0.1-1-0.4-1.3s-0.6-0.5-1.1-0.5c-0.3,0-0.6,0.1-0.9,0.2s-0.5,0.4-0.7,0.7s-0.4,0.7-0.5,1.1
				S145,29.2,145,29.5z M150.4,32l1.3-6.2h0.9l-0.3,1.3c0.3-0.5,0.6-0.8,0.9-1.1s0.6-0.3,0.9-0.3c0.2,0,0.5,0.1,0.8,0.2l-0.4,1
				c-0.2-0.1-0.4-0.2-0.6-0.2c-0.4,0-0.8,0.2-1.1,0.6s-0.7,1.2-0.9,2.2l-0.5,2.5H150.4z M157.9,32l1.8-8.6h6.2l-0.2,1h-5.1l-0.6,2.7
				h4.9l-0.2,1h-4.9l-0.6,3h5.4l-0.2,1H157.9z M165.7,32l1.8-8.6h1.1l-1.8,8.6H165.7z M173,29.9l1,0.1c-0.1,0.5-0.5,1-1,1.5
				s-1.2,0.7-1.9,0.7c-0.5,0-0.9-0.1-1.3-0.3c-0.4-0.2-0.7-0.5-0.9-0.9s-0.3-0.9-0.3-1.4c0-0.7,0.2-1.3,0.5-2s0.7-1.1,1.2-1.4
				s1-0.5,1.6-0.5c0.7,0,1.3,0.2,1.8,0.7s0.7,1.1,0.7,1.9c0,0.3,0,0.6-0.1,0.9h-4.6c0,0.1,0,0.2,0,0.3c0,0.6,0.1,1,0.4,1.3
				s0.6,0.5,1,0.5c0.4,0,0.7-0.1,1.1-0.4S172.8,30.3,173,29.9z M169.9,28.3h3.5c0-0.1,0-0.2,0-0.2c0-0.5-0.1-0.9-0.4-1.2
				s-0.6-0.4-1-0.4c-0.5,0-0.9,0.2-1.2,0.5S170.1,27.7,169.9,28.3z M175.1,32l1.3-6.2h1.1l-0.2,1c0.4-0.4,0.7-0.7,1.1-0.9
				s0.6-0.3,1-0.3c0.4,0,0.7,0.1,1,0.3s0.4,0.5,0.5,0.9c0.3-0.4,0.6-0.7,1-0.9c0.3-0.2,0.7-0.3,1.1-0.3c0.5,0,0.9,0.1,1.2,0.4
				s0.4,0.6,0.4,1c0,0.2,0,0.5-0.1,0.9l-0.8,4h-1.1l0.9-4.1c0.1-0.3,0.1-0.6,0.1-0.7c0-0.2-0.1-0.4-0.2-0.5s-0.3-0.2-0.5-0.2
				c-0.3,0-0.6,0.1-1,0.3s-0.6,0.4-0.8,0.8s-0.3,0.8-0.5,1.4l-0.6,3h-1.1l0.9-4.2c0.1-0.3,0.1-0.5,0.1-0.6c0-0.2-0.1-0.4-0.2-0.5
				s-0.3-0.2-0.5-0.2c-0.3,0-0.6,0.1-0.9,0.3s-0.6,0.5-0.8,0.8s-0.4,0.8-0.5,1.5l-0.6,2.9H175.1z M189.6,29.9l1,0.1
				c-0.1,0.5-0.5,1-1,1.5s-1.2,0.7-1.9,0.7c-0.5,0-0.9-0.1-1.3-0.3c-0.4-0.2-0.7-0.5-0.9-0.9s-0.3-0.9-0.3-1.4c0-0.7,0.2-1.3,0.5-2
				s0.7-1.1,1.2-1.4s1-0.5,1.6-0.5c0.7,0,1.3,0.2,1.8,0.7s0.7,1.1,0.7,1.9c0,0.3,0,0.6-0.1,0.9h-4.6c0,0.1,0,0.2,0,0.3
				c0,0.6,0.1,1,0.4,1.3s0.6,0.5,1,0.5c0.4,0,0.7-0.1,1.1-0.4S189.5,30.3,189.6,29.9z M186.6,28.3h3.5c0-0.1,0-0.2,0-0.2
				c0-0.5-0.1-0.9-0.4-1.2s-0.6-0.4-1-0.4c-0.5,0-0.9,0.2-1.2,0.5S186.7,27.7,186.6,28.3z M191.8,32l1.3-6.2h1l-0.2,1.1
				c0.4-0.4,0.8-0.7,1.2-0.9s0.7-0.3,1.1-0.3c0.5,0,0.9,0.1,1.2,0.4s0.4,0.6,0.4,1.1c0,0.2-0.1,0.6-0.2,1.1l-0.8,3.8h-1.1l0.8-3.9
				c0.1-0.4,0.1-0.7,0.1-0.8c0-0.2-0.1-0.4-0.2-0.5s-0.3-0.2-0.6-0.2c-0.5,0-1,0.2-1.5,0.6s-0.7,1.1-0.9,2l-0.6,2.9H191.8z
				 M200.9,31.1l-0.2,0.9c-0.3,0.1-0.5,0.1-0.7,0.1c-0.4,0-0.8-0.1-1-0.3c-0.2-0.2-0.3-0.4-0.3-0.6c0-0.1,0.1-0.5,0.2-0.9l0.8-3.6
				h-0.8l0.2-0.8h0.8l0.3-1.5l1.2-0.7l-0.5,2.3h1l-0.2,0.8h-1l-0.7,3.4c-0.1,0.4-0.1,0.7-0.1,0.8c0,0.1,0,0.2,0.1,0.3
				s0.2,0.1,0.4,0.1C200.5,31.2,200.7,31.2,200.9,31.1z M201.9,29.6c0-1.2,0.4-2.2,1.1-3c0.6-0.7,1.4-1,2.3-1c0.8,0,1.4,0.2,1.8,0.7
				s0.7,1.1,0.7,1.9c0,0.7-0.1,1.4-0.4,2s-0.7,1.1-1.2,1.4s-1.1,0.5-1.7,0.5c-0.5,0-0.9-0.1-1.3-0.3c-0.4-0.2-0.7-0.5-0.9-0.9
				S201.9,30.1,201.9,29.6z M203,29.5c0,0.6,0.1,1,0.4,1.3s0.6,0.5,1.1,0.5c0.2,0,0.5,0,0.7-0.1s0.4-0.2,0.6-0.4
				c0.2-0.2,0.4-0.4,0.5-0.6s0.2-0.5,0.3-0.8c0.1-0.4,0.2-0.8,0.2-1.1c0-0.6-0.1-1-0.4-1.3s-0.6-0.5-1.1-0.5c-0.3,0-0.6,0.1-0.9,0.2
				s-0.5,0.4-0.7,0.7s-0.4,0.7-0.5,1.1S203,29.2,203,29.5z M208.4,32l1.3-6.2h0.9l-0.3,1.3c0.3-0.5,0.6-0.8,0.9-1.1s0.6-0.3,0.9-0.3
				c0.2,0,0.5,0.1,0.8,0.2l-0.4,1c-0.2-0.1-0.4-0.2-0.6-0.2c-0.4,0-0.8,0.2-1.1,0.6s-0.7,1.2-0.9,2.2l-0.5,2.5H208.4z"/>
		</g>
	</g>
</g>
<linearGradient id="SVGID_1_" gradientUnits="userSpaceOnUse" x1="217.0051" y1="11.4355" x2="252.7531" y2="11.4355">
	<stop  offset="0" style="stop-color:#6F00D8"/>
	<stop  offset="1" style="stop-color:#1C6AFF"/>
</linearGradient>
<path class="st2" d="M245.1,19.8h-20.4c-4.2,0-7.7-3.4-7.7-7.7v-1.4c0-4.2,3.4-7.7,7.7-7.7h20.4c4.2,0,7.7,3.4,7.7,7.7v1.4
	C252.8,16.3,249.3,19.8,245.1,19.8z"/>
<g>
	<path class="st3" d="M228.5,11.4c-0.2,0.3-0.5,0.5-0.9,0.6c-0.4,0.2-0.9,0.2-1.4,0.2h-1.4v3.3H223V7.3h3.1c1,0,1.7,0.2,2.2,0.7
		c0.5,0.5,0.8,1.1,0.8,1.7C229.1,10.4,228.9,10.9,228.5,11.4z M224.7,11h1.4c0.4,0,0.7-0.1,1-0.3s0.3-0.5,0.3-0.9
		c0-0.4-0.1-0.7-0.3-0.9s-0.5-0.3-1-0.3h-1.4V11z"/>
	<path class="st3" d="M232.1,12.3v3.3h-1.7V7.3h3.1c1,0,1.7,0.2,2.2,0.7c0.5,0.5,0.8,1.1,0.8,1.8c0,0.5-0.2,1-0.5,1.5
		c-0.3,0.5-0.8,0.8-1.5,0.9l2.1,3.4h-2l-2-3.3H232.1z M232.1,8.6V11h1.4c0.4,0,0.7-0.1,1-0.3s0.3-0.5,0.3-0.9c0-0.4-0.1-0.7-0.3-0.9
		s-0.5-0.3-1-0.3H232.1z"/>
	<path class="st3" d="M242,15.7c-1.2,0-2.2-0.4-3-1.2s-1.2-1.8-1.2-3.1s0.4-2.3,1.2-3.1c0.8-0.8,1.8-1.2,3-1.2s2.2,0.4,3,1.2
		c0.8,0.8,1.2,1.8,1.2,3.1s-0.4,2.3-1.2,3.1S243.2,15.7,242,15.7z M243.8,13.4c0.5-0.5,0.7-1.2,0.7-2s-0.2-1.5-0.7-2
		c-0.5-0.5-1.1-0.7-1.8-0.7s-1.4,0.2-1.9,0.8c-0.5,0.5-0.7,1.2-0.7,2s0.2,1.5,0.7,2c0.5,0.5,1.1,0.8,1.9,0.8S243.4,13.9,243.8,13.4z
		"/>
</g>
</svg>
